<svg width="18" height="18" viewBox="0 0 18 18" fill="none" xmlns="http://www.w3.org/2000/svg">
<path d="M13.0325 0H4.96721C2.22829 0 0 2.2284 0 4.96732V13.0326C0 15.7716 2.22829 17.9999 4.96721 17.9999H13.0325C15.7716 17.9999 17.9999 15.7715 17.9999 13.0326V4.96732C18 2.2284 15.7716 0 13.0325 0ZM16.403 13.0326C16.403 14.891 14.891 16.4029 13.0326 16.4029H4.96721C3.1089 16.403 1.59704 14.891 1.59704 13.0326V4.96732C1.59704 3.10901 3.1089 1.59704 4.96721 1.59704H13.0325C14.8909 1.59704 16.4029 3.10901 16.4029 4.96732L16.403 13.0326Z" fill="#252525"/>
<path d="M9.00018 4.36206C6.44268 4.36206 4.36206 6.44268 4.36206 9.00018C4.36206 11.5576 6.44268 13.6381 9.00018 13.6381C11.5577 13.6381 13.6383 11.5576 13.6383 9.00018C13.6383 6.44268 11.5577 4.36206 9.00018 4.36206ZM9.00018 12.0409C7.32339 12.0409 5.9591 10.6769 5.9591 9.00007C5.9591 7.32318 7.32329 5.95899 9.00018 5.95899C10.6771 5.95899 12.0413 7.32318 12.0413 9.00007C12.0413 10.6769 10.677 12.0409 9.00018 12.0409Z" fill="#252525"/>
<path d="M13.8327 3.00793C13.525 3.00793 13.2228 3.1325 13.0055 3.35077C12.7871 3.56796 12.6616 3.87033 12.6616 4.1791C12.6616 4.4869 12.7872 4.78916 13.0055 5.00743C13.2226 5.22462 13.525 5.35026 13.8327 5.35026C14.1415 5.35026 14.4428 5.22462 14.661 5.00743C14.8793 4.78916 15.0039 4.48679 15.0039 4.1791C15.0039 3.87033 14.8793 3.56796 14.661 3.35077C14.4438 3.1325 14.1415 3.00793 13.8327 3.00793Z" fill="#252525"/>
</svg>
