<svg width="53" height="54" viewBox="0 0 53 54" fill="none" xmlns="http://www.w3.org/2000/svg">
<path d="M48.6082 0H4.88768C2.4743 0.002925 0.518467 2.016 0.515625 4.5V32.4C0.518467 34.884 2.4743 36.8971 4.88768 36.9H48.6082C51.0216 36.8971 52.9774 34.884 52.9803 32.4V4.5C52.9774 2.016 51.0216 0.002925 48.6082 0ZM51.2314 32.4C51.2314 33.8912 50.057 35.1 48.6082 35.1H4.88768C3.43889 35.1 2.26445 33.8912 2.26445 32.4V4.5C2.26445 3.00881 3.43889 1.8 4.88768 1.8H48.6082C50.057 1.8 51.2314 3.00881 51.2314 4.5V32.4Z" fill="black"/>
<path d="M30.0534 15.3H36.3649V8.09998C36.3621 5.61598 34.4062 3.6029 31.9929 3.59998H20.6255C18.2121 3.6029 16.2563 5.61598 16.2535 8.09998V12.6H14.5046C12.0913 12.6029 10.1354 14.616 10.1326 17.1V21.6H8.38377C5.9704 21.6029 4.01456 23.616 4.01172 26.1V33.3H24.1232V26.1C24.1206 25.5404 24.0159 24.9862 23.8145 24.4665L23.9325 24.3H30.244V17.1C30.2415 16.5404 30.1369 15.9862 29.9354 15.4665L30.0534 15.3ZM34.6161 13.5H31.087L34.6161 8.50498V13.5ZM28.5276 5.39998L23.4394 12.6H19.4809L24.5682 5.39998H28.5276ZM18.0023 8.09998C18.0023 6.60879 19.1767 5.39998 20.6255 5.39998H22.4067L18.0023 11.6325V8.09998ZM18.4474 14.4H22.4067L17.3185 21.6H13.36L18.4474 14.4ZM11.8814 17.1C11.8814 15.6088 13.0559 14.4 14.5046 14.4H16.2858L11.8814 20.6325V17.1ZM5.76054 26.1C5.76054 24.6088 6.93498 23.4 8.38377 23.4H10.1649L5.76054 29.6325V26.1ZM6.6026 31.5L12.3265 23.4H16.2858L10.5619 31.5H6.6026ZM12.7235 31.5L18.4474 23.4H19.7511C20.5157 23.4026 21.2404 23.7507 21.7334 24.3522L16.6828 31.5H12.7235ZM22.3743 31.5H18.8443L22.3743 26.505V31.5ZM22.8037 22.5H22.3743V22.5234C21.622 21.9278 20.7003 21.6032 19.7511 21.6H19.4809L24.5682 14.4H25.872C26.6365 14.4026 27.3613 14.7508 27.8543 15.3522L22.8037 22.5ZM28.4952 22.5H24.9652L28.4952 17.505V22.5ZM25.872 12.6H25.6018L30.6891 5.39998H31.9929C32.7575 5.40279 33.4825 5.75086 33.976 6.35218H33.9725L28.7575 13.7421C27.9647 13.0094 26.9375 12.6028 25.872 12.6Z" fill="black"/>
<path d="M41.1764 29.7001C43.8179 29.6642 45.9508 27.4688 45.9857 24.7501C46.0139 22.0452 43.9063 19.8291 41.2784 19.8001C41.2444 19.7997 41.2104 19.7997 41.1764 19.8001C38.5203 19.8001 36.3672 22.0162 36.3672 24.7501C36.3672 27.4839 38.5203 29.7001 41.1764 29.7001ZM41.1764 21.6001C42.8482 21.581 44.2184 22.9605 44.2369 24.6813C44.2371 24.7043 44.2371 24.7272 44.2369 24.7501C44.2148 26.4802 42.8574 27.8772 41.1764 27.9001C39.4862 27.9001 38.116 26.4898 38.116 24.7501C38.116 23.0104 39.4862 21.6001 41.1764 21.6001Z" fill="black"/>
<path d="M32.8672 24.3V25.2C32.872 29.6715 36.3926 33.2951 40.7369 33.3H41.6113C45.9556 33.2951 49.4762 29.6715 49.481 25.2V16.1766H40.7316C36.3903 16.2087 32.8829 19.8315 32.8672 24.3ZM47.7322 17.9766V25.2C47.7278 28.6775 44.9899 31.4955 41.6113 31.5H40.7369C37.3583 31.4955 34.6204 28.6775 34.616 25.2V24.3C34.6284 20.8221 37.3579 18.0023 40.7369 17.9766H47.7322Z" fill="black"/>
<path d="M6.397 10.7009L6.65933 10.8809C7.53986 11.4874 8.68884 11.4874 9.56937 10.8809L9.83169 10.7009C10.9963 9.9014 11.3458 8.30154 10.6257 7.06584C10.6002 7.02241 10.5709 6.98146 10.5382 6.94344L8.78327 4.81584C8.46969 4.43784 7.91771 4.39306 7.55046 4.71582C7.51559 4.74654 7.48302 4.77995 7.45329 4.81584L5.68698 6.94344C5.65463 6.98169 5.62534 7.02264 5.59954 7.06584C4.88012 8.30244 5.23109 9.90252 6.397 10.7009ZM7.07205 8.04504L8.12134 6.78504L9.17064 8.04504C9.37295 8.4524 9.24616 8.95111 8.87596 9.20424L8.61364 9.38424C8.31983 9.58606 7.93684 9.58606 7.64304 9.38424L7.38072 9.20424C7.00549 8.9555 6.87247 8.45589 7.07205 8.04504Z" fill="black"/>
<path d="M48.0551 9.15758C47.6866 8.8221 47.2648 8.55424 46.8082 8.36558C46.8388 8.28042 46.8565 8.19087 46.8607 8.10008C46.8616 5.61484 44.905 3.59929 42.4903 3.59839C42.3502 3.59839 42.2101 3.60525 42.0707 3.61898C41.1826 3.71719 40.354 4.125 39.722 4.77458C37.8446 6.66458 37.9819 8.22158 38.3107 9.36458C38.4195 9.74832 38.7609 10.0121 39.1493 10.0126H41.6256C40.7814 11.0528 40.5198 12.4682 40.9339 13.7548C41.0437 14.1374 41.3849 14.4001 41.7725 14.4001H48.4512C48.8386 14.4002 49.1798 14.138 49.2898 13.7557C49.4143 13.3449 49.4797 12.9178 49.4839 12.4876C49.4834 11.2203 48.9649 10.0117 48.0551 9.15758ZM39.8654 8.20898C39.8892 7.36129 40.2862 6.57075 40.9444 6.06068C41.2897 5.69978 41.7445 5.47106 42.2333 5.41268C42.9719 5.33471 43.7075 5.58604 44.2541 6.10298C44.7749 6.59517 45.0809 7.28265 45.1031 8.01008C44.9667 8.01008 44.8312 7.99118 44.6939 8.00288C44.4033 8.03595 44.1176 8.10514 43.8431 8.20898H39.8654ZM47.7351 12.6001H42.4886C42.5109 11.7515 42.9075 10.9594 43.5659 10.4482C43.9114 10.0876 44.3661 9.85902 44.8548 9.80018C45.5932 9.72267 46.3286 9.97388 46.8756 10.4905C47.4222 11.0022 47.7341 11.7271 47.7351 12.4876C47.7351 12.5245 47.7351 12.5623 47.7351 12.6001Z" fill="black"/>
<path d="M52.1493 43.6761L51.7777 40.0968C51.7263 39.6028 51.2958 39.2451 50.8158 39.2976L12.7597 43.479V40.5C12.7597 40.003 12.3682 39.6 11.8853 39.6H6.63887C6.15598 39.6 5.76446 40.003 5.76446 40.5V43.6131L2.68479 43.2747C2.20889 43.2187 1.77879 43.5704 1.72436 44.0602C1.72381 44.0648 1.72338 44.0693 1.72294 44.0739L1.6355 44.8938C1.60074 44.919 1.56795 44.9469 1.53756 44.9775C1.39197 45.1632 1.3241 45.4008 1.34869 45.6381L1.72032 49.2183C1.76819 49.6757 2.14342 50.0223 2.59035 50.022C2.62194 50.022 2.65342 50.0202 2.68479 50.0166L5.76446 49.68V53.1C5.76446 53.597 6.15598 54 6.63887 54H11.8853C12.3682 54 12.7597 53.597 12.7597 53.1V49.8123L50.8158 53.9946C51.2958 54.0472 51.7263 53.6894 51.7777 53.1954L52.1493 49.6161C52.2004 49.1221 51.8528 48.679 51.3728 48.6261L33.36 46.6461L51.3728 44.6661C51.8528 44.6132 52.2004 44.1701 52.1493 43.6761ZM7.51328 41.4H11.0109V43.6716L8.56695 43.9416C8.53635 43.9353 8.51186 43.9173 8.47951 43.9137L7.51328 43.8057V41.4ZM11.0109 52.2H7.51328V49.5V49.4865L11.0109 49.1013V52.2ZM50.3183 50.319L50.1329 52.11L16.8887 48.456L25.1248 47.5506L50.3183 50.319ZM25.1248 45.7407H25.0942C24.9661 45.7273 24.8366 45.744 24.7156 45.7893L3.3677 48.1311L3.18233 46.341L50.1329 41.1822L50.3183 42.9723L25.1248 45.7407Z" fill="black"/>
</svg>
