<svg width="48" height="54" viewBox="0 0 48 54" fill="none" xmlns="http://www.w3.org/2000/svg">
<path d="M4.9673 30.2018C4.47625 30.2018 4.07812 30.6116 4.07812 31.117V34.7778C4.07812 35.2832 4.47625 35.693 4.9673 35.693C5.45835 35.693 5.85648 35.2832 5.85648 34.7778V31.117C5.85648 30.6116 5.45835 30.2018 4.9673 30.2018Z" fill="black"/>
<path d="M8.5298 32.0321C8.03875 32.0321 7.64062 32.4419 7.64062 32.9473V36.6081C7.64062 37.1135 8.03875 37.5233 8.5298 37.5233C9.02085 37.5233 9.41898 37.1135 9.41898 36.6081V32.9473C9.41898 32.4419 9.02085 32.0321 8.5298 32.0321Z" fill="black"/>
<path d="M40.9575 36.9441C40.543 36.6729 39.9935 36.7991 39.7301 37.2257C39.4773 37.6352 39.5788 38.1765 39.9616 38.4596C42.4057 40.1534 43.0529 43.5659 41.4074 46.0814C39.7617 48.5971 36.4463 49.2633 34.0023 47.5695C31.5582 45.8757 30.9109 42.4633 32.5565 39.9478C33.5474 38.433 35.2051 37.5243 36.9793 37.5234C37.4703 37.5234 37.8685 37.1136 37.8685 36.6082C37.8685 36.1028 37.4703 35.693 36.9793 35.693C33.0507 35.6938 29.8664 38.9724 29.8672 43.016C29.868 47.0595 33.0533 50.337 36.9819 50.3362C40.9106 50.3354 44.0948 47.0568 44.094 43.0132C44.0936 40.5794 42.9181 38.3047 40.9575 36.9441Z" fill="black"/>
<path d="M47.2309 39.9747C46.3694 36.903 44.2496 34.3704 41.4256 33.0389V12.813C41.4257 12.4894 41.2597 12.1897 40.989 12.025L21.4271 0.127413C21.1479 -0.042471 20.801 -0.042471 20.5219 0.127413L0.960024 12.025C0.941351 12.036 0.928013 12.0525 0.91023 12.0653C0.892446 12.0781 0.875552 12.0927 0.857768 12.1074C0.780521 12.17 0.714166 12.2455 0.66126 12.3307C0.66126 12.3371 0.65059 12.3407 0.647033 12.3472V12.3536C0.596906 12.4466 0.562895 12.5478 0.546556 12.6528C0.546556 12.6803 0.538554 12.7059 0.535886 12.7334C0.533218 12.7608 0.523438 12.7855 0.523438 12.813V36.6082C0.523326 36.9318 0.68938 37.2314 0.960024 37.3962L20.5219 49.2938C20.5454 49.3054 20.5694 49.3158 20.594 49.3249C20.6182 49.3373 20.6432 49.3483 20.6686 49.3578C20.8644 49.442 21.0847 49.442 21.2804 49.3578C21.3062 49.3483 21.3314 49.3373 21.356 49.3249C21.3791 49.3139 21.404 49.3075 21.4271 49.2938L26.7364 46.064C28.3701 51.889 34.2823 55.248 39.9418 53.5665C45.6012 51.885 48.8647 45.7998 47.2309 39.9747ZM20.9745 1.97795L25.5982 4.79035L18.7427 8.96C18.3197 9.21729 18.1793 9.77888 18.4293 10.2143C18.6792 10.6497 19.2248 10.7942 19.6479 10.5369L27.3473 5.85748L31.971 8.66988L14.1572 19.5013L9.53347 16.6889L16.9821 12.1586C17.4051 11.9013 17.5455 11.3398 17.2956 10.9043C17.0456 10.4689 16.5 10.3245 16.0769 10.5817L7.78535 15.6254L3.16074 12.813L20.9745 1.97795ZM13.268 21.0873V27.1981L8.67453 24.404V18.2932L13.268 21.0873ZM26.6609 40.1855C26.4244 41.1087 26.3063 42.0598 26.3096 43.0146C26.3098 43.3976 26.3294 43.7804 26.3683 44.1613L21.8637 46.9023V43.9298C21.8637 43.4244 21.4656 43.0146 20.9745 43.0146C20.4835 43.0146 20.0853 43.4244 20.0853 43.9298V46.9023L2.30179 36.0865V14.4173L6.89617 17.2114V24.9257C6.89584 25.2496 7.06178 25.5497 7.33276 25.7146L13.7046 29.5904C13.8418 29.6735 13.998 29.7174 14.1572 29.7176C14.6482 29.7176 15.0464 29.3079 15.0464 28.8024V22.1682L20.0853 25.2332V40.269C20.0853 40.7744 20.4835 41.1842 20.9745 41.1842C21.4656 41.1842 21.8637 40.7744 21.8637 40.269V25.2332L37.9792 15.4314C38.402 15.1741 38.5421 14.6127 38.2921 14.1776C38.0422 13.7424 37.4968 13.5981 37.074 13.8554L20.9745 23.648L15.9062 20.5647L33.72 9.72969L39.6473 13.3347V32.3983C33.972 30.8576 28.1577 34.344 26.6609 40.1855ZM36.9797 52.1666C32.0689 52.1666 28.0879 48.0691 28.0879 43.0146C28.0879 37.96 32.0689 33.8626 36.9797 33.8626C41.8905 33.8626 45.8715 37.96 45.8715 43.0146C45.8662 48.0668 41.8883 52.161 36.9797 52.1666Z" fill="black"/>
<path d="M40.2577 40.5371C39.9132 40.1945 39.3668 40.1945 39.0222 40.5371L35.6496 44.0085L34.9445 43.2827C34.5912 42.9315 34.0284 42.9416 33.6872 43.3051C33.3543 43.6598 33.3543 44.2222 33.6872 44.5768L35.0209 45.9496C35.3682 46.3069 35.931 46.3069 36.2782 45.9496L40.2795 41.8312C40.6207 41.4676 40.611 40.8882 40.2577 40.5371Z" fill="black"/>
</svg>
