<svg width="54" height="34" viewBox="0 0 54 34" fill="none" xmlns="http://www.w3.org/2000/svg">
<path d="M15.1631 19.6375C14.7386 19.6375 14.3945 19.9916 14.3945 20.4285V21.7682C14.3945 22.2051 14.7386 22.5592 15.1631 22.5592C15.5875 22.5592 15.9316 22.2051 15.9316 21.7682V20.4285C15.9317 19.9916 15.5875 19.6375 15.1631 19.6375Z" fill="black"/>
<path d="M29.5498 19.6375C29.1253 19.6375 28.7812 19.9916 28.7812 20.4285V21.7682C28.7812 22.2051 29.1253 22.5592 29.5498 22.5592C29.9742 22.5592 30.3183 22.2051 30.3183 21.7682V20.4285C30.3183 19.9916 29.9742 19.6375 29.5498 19.6375Z" fill="black"/>
<path d="M25.0505 21.1697C24.731 20.8822 24.2454 20.9157 23.9661 21.2446C23.576 21.7039 22.9919 21.9674 22.3637 21.9674C21.7354 21.9674 21.1514 21.7039 20.7613 21.2446C20.4819 20.9156 19.9964 20.8821 19.6768 21.1696C19.3572 21.4572 19.3246 21.9568 19.6041 22.2858C20.2861 23.0888 21.2919 23.5494 22.3638 23.5494C23.4356 23.5494 24.4414 23.0888 25.1235 22.2859C25.4026 21.9569 25.37 21.4572 25.0505 21.1697Z" fill="black"/>
<mask id="path-4-outside-1" maskUnits="userSpaceOnUse" x="-0.484375" y="0" width="54" height="34" fill="black">
<rect fill="white" x="-0.484375" width="54" height="34"/>
<path d="M52.8381 13.5611C52.0233 11.7272 50.2497 10.2907 48.0937 9.71856C46.5265 9.3027 44.9447 9.38454 43.5995 9.90482C42.7307 7.47767 40.9465 5.51015 38.2827 4.04794C38.281 4.04699 38.2794 4.04562 38.2776 4.04456C35.9226 2.75141 32.8625 1.85946 29.182 1.3934C27.1223 1.13236 24.827 1 22.3586 1C19.8909 1 17.5955 1.13236 15.5352 1.3934C11.8547 1.85936 8.79457 2.75131 6.43961 4.04467C6.43766 4.04572 6.43582 4.0472 6.43387 4.04836C1.54258 6.73348 0.515625 10.6586 0.515625 13.4789C0.515625 14.0811 0.733373 14.6047 1.1453 14.9933C1.46665 15.2964 1.89856 15.516 2.4769 15.6583C1.82048 17.0725 1.48745 18.6713 1.48745 20.4284C1.48745 24.0711 2.89231 26.9791 5.6632 29.0718C6.00534 29.3302 6.48634 29.2543 6.73749 28.902C6.98854 28.5498 6.91466 28.0548 6.57251 27.7963C4.18497 25.9933 3.02439 23.5831 3.02439 20.4284C3.02439 18.7037 3.38867 17.1674 4.10801 15.8545C4.69578 15.8717 5.37853 15.8507 6.19194 15.7916C8.98803 15.5884 11.7638 15.1388 14.5477 14.8124C16.6989 14.5598 19.5308 14.2699 22.3584 14.2699C24.9671 14.2699 27.5793 14.5083 30.1695 14.8125C32.7297 15.1132 35.2816 15.5077 37.8495 15.7369C38.5721 15.8017 39.2981 15.8536 40.0237 15.859C40.0313 16.1257 40.0523 16.3946 40.0866 16.6647C40.0871 16.6689 40.0877 16.6732 40.0883 16.6774C40.2737 18.0999 40.8251 19.5077 41.6855 20.6411C41.6873 20.6433 41.6888 20.6457 41.6906 20.6481C41.6219 24.5875 39.6925 27.3811 35.798 29.1838C32.5772 30.6747 28.0555 31.4308 22.3586 31.4308C16.832 31.4308 12.407 30.7183 9.2066 29.3129C8.81609 29.1415 8.36471 29.3282 8.19809 29.7302C8.03158 30.132 8.21305 30.5967 8.60336 30.7681C11.9955 32.2576 16.6235 33.0129 22.3585 33.0129C28.2742 33.0129 33.008 32.2101 36.4284 30.6267C40.3976 28.7894 42.645 25.9134 43.1292 22.0644C43.498 22.3317 43.8887 22.5568 44.2982 22.7285C44.967 23.009 45.7913 22.7661 46.208 22.1325C47.1823 20.6515 47.5049 18.6699 47.1146 16.7104C49.0329 17.0292 50.9432 16.6142 52.3397 15.5501C52.9382 15.0944 53.1477 14.2578 52.8381 13.5611ZM2.18383 13.827C2.10503 13.7527 2.05267 13.6651 2.05267 13.4789C2.05267 10.6468 3.19501 8.32637 5.45446 6.55798C5.45365 6.56157 5.45293 6.56536 5.45221 6.56906C4.91096 9.08533 5.02491 11.7469 5.74691 14.212C5.74917 14.2199 5.75122 14.2276 5.75357 14.2354C3.79538 14.353 2.59638 14.2162 2.18383 13.827ZM14.2228 3.1928C13.2993 5.19396 12.7636 7.40184 12.7797 9.6229C12.7887 10.869 12.9799 12.1119 13.363 13.2947C13.37 13.3163 13.376 13.3379 13.3832 13.3595C11.6786 13.5697 9.97676 13.8087 8.27023 14.0017C7.95575 14.0378 7.64117 14.0721 7.32628 14.1038C7.32218 14.0911 7.31819 14.0784 7.31409 14.0657C6.6092 11.8429 6.47322 9.44244 6.91169 7.14882C7.078 6.27891 7.28652 5.63946 7.40733 5.30934C9.23529 4.35042 11.5233 3.63745 14.2273 3.1832C14.2258 3.18626 14.2243 3.18963 14.2228 3.1928ZM21.3841 12.699C19.6204 12.7384 17.8583 12.8484 16.1048 13.049C15.7203 13.0885 15.3361 13.1302 14.9521 13.1737C14.9485 13.1638 14.9451 13.1539 14.9415 13.144C13.9489 10.3968 14.2616 7.33497 15.2966 4.65195C15.5258 4.05785 15.7882 3.4745 16.0947 2.91826C17.7787 2.72061 19.6226 2.60934 21.5899 2.58646V12.6946H21.59C21.5212 12.6957 21.4528 12.6975 21.3841 12.699ZM30.1957 11.6129C30.0962 12.1316 29.9562 12.6417 29.7779 13.1375C29.7736 13.1497 29.7695 13.1617 29.7651 13.1738C27.8213 12.9533 25.8706 12.7787 23.9154 12.7148C23.6528 12.7062 23.39 12.699 23.1271 12.6946V2.58646C25.0945 2.60934 26.9383 2.72061 28.6224 2.91826C29.2012 3.97158 30.9636 7.6095 30.1957 11.6129ZM37.4039 14.0623C37.3995 14.0761 37.3951 14.0899 37.3907 14.1038C37.2641 14.0911 36.9705 14.0602 36.952 14.0582C35.2789 13.8763 33.611 13.6454 31.9412 13.4352C31.7396 13.4099 31.5371 13.3845 31.3332 13.3594C31.3345 13.3554 31.3356 13.3514 31.3369 13.3474C32.7124 9.16053 31.4217 5.22138 30.4898 3.18309C33.1939 3.63745 35.4818 4.35042 37.3104 5.3105C37.7943 6.59743 38.0054 7.9874 38.0504 9.36208C38.0507 9.37125 38.0511 9.38032 38.0513 9.3895C38.0985 10.9683 37.8812 12.561 37.4039 14.0623ZM41.5006 11.2973C40.8021 12.1152 40.3414 13.1468 40.1388 14.278C40.1319 14.278 39.3572 14.2625 38.9776 14.237C38.9729 14.2367 38.968 14.2364 38.9633 14.2361C38.9657 14.2281 38.9677 14.2202 38.9701 14.2122C39.2684 13.1952 39.4636 12.1464 39.55 11.0879C39.673 9.58008 39.5783 8.04952 39.2651 6.57085C39.2644 6.56758 39.2638 6.5641 39.263 6.56083C40.7096 7.69694 41.7021 9.06645 42.2264 10.652C41.9977 10.8199 41.5272 11.2662 41.5006 11.2973ZM51.4253 14.2785C50.2193 15.1973 48.4772 15.4747 46.7655 15.0205C46.5949 14.9751 46.4208 14.921 46.2482 14.8594C45.638 14.6416 45.0449 15.2802 45.2815 15.8971C45.3485 16.0719 45.4085 16.2486 45.4597 16.4224C45.9727 18.1635 45.7766 19.9666 44.9354 21.2454C44.9233 21.2638 44.8982 21.2717 44.8782 21.2633C42.1799 20.136 40.9137 16.4317 41.8824 13.7089C41.886 13.6987 41.8899 13.6887 41.8935 13.6786C42.7633 11.2798 45.5128 10.6672 47.7099 11.2503C49.4217 11.7045 50.8162 12.8143 51.4403 14.2189C51.4493 14.2392 51.4427 14.2653 51.4253 14.2785Z"/>
</mask>
<path d="M52.8381 13.5611C52.0233 11.7272 50.2497 10.2907 48.0937 9.71856C46.5265 9.3027 44.9447 9.38454 43.5995 9.90482C42.7307 7.47767 40.9465 5.51015 38.2827 4.04794C38.281 4.04699 38.2794 4.04562 38.2776 4.04456C35.9226 2.75141 32.8625 1.85946 29.182 1.3934C27.1223 1.13236 24.827 1 22.3586 1C19.8909 1 17.5955 1.13236 15.5352 1.3934C11.8547 1.85936 8.79457 2.75131 6.43961 4.04467C6.43766 4.04572 6.43582 4.0472 6.43387 4.04836C1.54258 6.73348 0.515625 10.6586 0.515625 13.4789C0.515625 14.0811 0.733373 14.6047 1.1453 14.9933C1.46665 15.2964 1.89856 15.516 2.4769 15.6583C1.82048 17.0725 1.48745 18.6713 1.48745 20.4284C1.48745 24.0711 2.89231 26.9791 5.6632 29.0718C6.00534 29.3302 6.48634 29.2543 6.73749 28.902C6.98854 28.5498 6.91466 28.0548 6.57251 27.7963C4.18497 25.9933 3.02439 23.5831 3.02439 20.4284C3.02439 18.7037 3.38867 17.1674 4.10801 15.8545C4.69578 15.8717 5.37853 15.8507 6.19194 15.7916C8.98803 15.5884 11.7638 15.1388 14.5477 14.8124C16.6989 14.5598 19.5308 14.2699 22.3584 14.2699C24.9671 14.2699 27.5793 14.5083 30.1695 14.8125C32.7297 15.1132 35.2816 15.5077 37.8495 15.7369C38.5721 15.8017 39.2981 15.8536 40.0237 15.859C40.0313 16.1257 40.0523 16.3946 40.0866 16.6647C40.0871 16.6689 40.0877 16.6732 40.0883 16.6774C40.2737 18.0999 40.8251 19.5077 41.6855 20.6411C41.6873 20.6433 41.6888 20.6457 41.6906 20.6481C41.6219 24.5875 39.6925 27.3811 35.798 29.1838C32.5772 30.6747 28.0555 31.4308 22.3586 31.4308C16.832 31.4308 12.407 30.7183 9.2066 29.3129C8.81609 29.1415 8.36471 29.3282 8.19809 29.7302C8.03158 30.132 8.21305 30.5967 8.60336 30.7681C11.9955 32.2576 16.6235 33.0129 22.3585 33.0129C28.2742 33.0129 33.008 32.2101 36.4284 30.6267C40.3976 28.7894 42.645 25.9134 43.1292 22.0644C43.498 22.3317 43.8887 22.5568 44.2982 22.7285C44.967 23.009 45.7913 22.7661 46.208 22.1325C47.1823 20.6515 47.5049 18.6699 47.1146 16.7104C49.0329 17.0292 50.9432 16.6142 52.3397 15.5501C52.9382 15.0944 53.1477 14.2578 52.8381 13.5611ZM2.18383 13.827C2.10503 13.7527 2.05267 13.6651 2.05267 13.4789C2.05267 10.6468 3.19501 8.32637 5.45446 6.55798C5.45365 6.56157 5.45293 6.56536 5.45221 6.56906C4.91096 9.08533 5.02491 11.7469 5.74691 14.212C5.74917 14.2199 5.75122 14.2276 5.75357 14.2354C3.79538 14.353 2.59638 14.2162 2.18383 13.827ZM14.2228 3.1928C13.2993 5.19396 12.7636 7.40184 12.7797 9.6229C12.7887 10.869 12.9799 12.1119 13.363 13.2947C13.37 13.3163 13.376 13.3379 13.3832 13.3595C11.6786 13.5697 9.97676 13.8087 8.27023 14.0017C7.95575 14.0378 7.64117 14.0721 7.32628 14.1038C7.32218 14.0911 7.31819 14.0784 7.31409 14.0657C6.6092 11.8429 6.47322 9.44244 6.91169 7.14882C7.078 6.27891 7.28652 5.63946 7.40733 5.30934C9.23529 4.35042 11.5233 3.63745 14.2273 3.1832C14.2258 3.18626 14.2243 3.18963 14.2228 3.1928ZM21.3841 12.699C19.6204 12.7384 17.8583 12.8484 16.1048 13.049C15.7203 13.0885 15.3361 13.1302 14.9521 13.1737C14.9485 13.1638 14.9451 13.1539 14.9415 13.144C13.9489 10.3968 14.2616 7.33497 15.2966 4.65195C15.5258 4.05785 15.7882 3.4745 16.0947 2.91826C17.7787 2.72061 19.6226 2.60934 21.5899 2.58646V12.6946H21.59C21.5212 12.6957 21.4528 12.6975 21.3841 12.699ZM30.1957 11.6129C30.0962 12.1316 29.9562 12.6417 29.7779 13.1375C29.7736 13.1497 29.7695 13.1617 29.7651 13.1738C27.8213 12.9533 25.8706 12.7787 23.9154 12.7148C23.6528 12.7062 23.39 12.699 23.1271 12.6946V2.58646C25.0945 2.60934 26.9383 2.72061 28.6224 2.91826C29.2012 3.97158 30.9636 7.6095 30.1957 11.6129ZM37.4039 14.0623C37.3995 14.0761 37.3951 14.0899 37.3907 14.1038C37.2641 14.0911 36.9705 14.0602 36.952 14.0582C35.2789 13.8763 33.611 13.6454 31.9412 13.4352C31.7396 13.4099 31.5371 13.3845 31.3332 13.3594C31.3345 13.3554 31.3356 13.3514 31.3369 13.3474C32.7124 9.16053 31.4217 5.22138 30.4898 3.18309C33.1939 3.63745 35.4818 4.35042 37.3104 5.3105C37.7943 6.59743 38.0054 7.9874 38.0504 9.36208C38.0507 9.37125 38.0511 9.38032 38.0513 9.3895C38.0985 10.9683 37.8812 12.561 37.4039 14.0623ZM41.5006 11.2973C40.8021 12.1152 40.3414 13.1468 40.1388 14.278C40.1319 14.278 39.3572 14.2625 38.9776 14.237C38.9729 14.2367 38.968 14.2364 38.9633 14.2361C38.9657 14.2281 38.9677 14.2202 38.9701 14.2122C39.2684 13.1952 39.4636 12.1464 39.55 11.0879C39.673 9.58008 39.5783 8.04952 39.2651 6.57085C39.2644 6.56758 39.2638 6.5641 39.263 6.56083C40.7096 7.69694 41.7021 9.06645 42.2264 10.652C41.9977 10.8199 41.5272 11.2662 41.5006 11.2973ZM51.4253 14.2785C50.2193 15.1973 48.4772 15.4747 46.7655 15.0205C46.5949 14.9751 46.4208 14.921 46.2482 14.8594C45.638 14.6416 45.0449 15.2802 45.2815 15.8971C45.3485 16.0719 45.4085 16.2486 45.4597 16.4224C45.9727 18.1635 45.7766 19.9666 44.9354 21.2454C44.9233 21.2638 44.8982 21.2717 44.8782 21.2633C42.1799 20.136 40.9137 16.4317 41.8824 13.7089C41.886 13.6987 41.8899 13.6887 41.8935 13.6786C42.7633 11.2798 45.5128 10.6672 47.7099 11.2503C49.4217 11.7045 50.8162 12.8143 51.4403 14.2189C51.4493 14.2392 51.4427 14.2653 51.4253 14.2785Z" fill="black"/>
<path d="M52.8381 13.5611C52.0233 11.7272 50.2497 10.2907 48.0937 9.71856C46.5265 9.3027 44.9447 9.38454 43.5995 9.90482C42.7307 7.47767 40.9465 5.51015 38.2827 4.04794C38.281 4.04699 38.2794 4.04562 38.2776 4.04456C35.9226 2.75141 32.8625 1.85946 29.182 1.3934C27.1223 1.13236 24.827 1 22.3586 1C19.8909 1 17.5955 1.13236 15.5352 1.3934C11.8547 1.85936 8.79457 2.75131 6.43961 4.04467C6.43766 4.04572 6.43582 4.0472 6.43387 4.04836C1.54258 6.73348 0.515625 10.6586 0.515625 13.4789C0.515625 14.0811 0.733373 14.6047 1.1453 14.9933C1.46665 15.2964 1.89856 15.516 2.4769 15.6583C1.82048 17.0725 1.48745 18.6713 1.48745 20.4284C1.48745 24.0711 2.89231 26.9791 5.6632 29.0718C6.00534 29.3302 6.48634 29.2543 6.73749 28.902C6.98854 28.5498 6.91466 28.0548 6.57251 27.7963C4.18497 25.9933 3.02439 23.5831 3.02439 20.4284C3.02439 18.7037 3.38867 17.1674 4.10801 15.8545C4.69578 15.8717 5.37853 15.8507 6.19194 15.7916C8.98803 15.5884 11.7638 15.1388 14.5477 14.8124C16.6989 14.5598 19.5308 14.2699 22.3584 14.2699C24.9671 14.2699 27.5793 14.5083 30.1695 14.8125C32.7297 15.1132 35.2816 15.5077 37.8495 15.7369C38.5721 15.8017 39.2981 15.8536 40.0237 15.859C40.0313 16.1257 40.0523 16.3946 40.0866 16.6647C40.0871 16.6689 40.0877 16.6732 40.0883 16.6774C40.2737 18.0999 40.8251 19.5077 41.6855 20.6411C41.6873 20.6433 41.6888 20.6457 41.6906 20.6481C41.6219 24.5875 39.6925 27.3811 35.798 29.1838C32.5772 30.6747 28.0555 31.4308 22.3586 31.4308C16.832 31.4308 12.407 30.7183 9.2066 29.3129C8.81609 29.1415 8.36471 29.3282 8.19809 29.7302C8.03158 30.132 8.21305 30.5967 8.60336 30.7681C11.9955 32.2576 16.6235 33.0129 22.3585 33.0129C28.2742 33.0129 33.008 32.2101 36.4284 30.6267C40.3976 28.7894 42.645 25.9134 43.1292 22.0644C43.498 22.3317 43.8887 22.5568 44.2982 22.7285C44.967 23.009 45.7913 22.7661 46.208 22.1325C47.1823 20.6515 47.5049 18.6699 47.1146 16.7104C49.0329 17.0292 50.9432 16.6142 52.3397 15.5501C52.9382 15.0944 53.1477 14.2578 52.8381 13.5611ZM2.18383 13.827C2.10503 13.7527 2.05267 13.6651 2.05267 13.4789C2.05267 10.6468 3.19501 8.32637 5.45446 6.55798C5.45365 6.56157 5.45293 6.56536 5.45221 6.56906C4.91096 9.08533 5.02491 11.7469 5.74691 14.212C5.74917 14.2199 5.75122 14.2276 5.75357 14.2354C3.79538 14.353 2.59638 14.2162 2.18383 13.827ZM14.2228 3.1928C13.2993 5.19396 12.7636 7.40184 12.7797 9.6229C12.7887 10.869 12.9799 12.1119 13.363 13.2947C13.37 13.3163 13.376 13.3379 13.3832 13.3595C11.6786 13.5697 9.97676 13.8087 8.27023 14.0017C7.95575 14.0378 7.64117 14.0721 7.32628 14.1038C7.32218 14.0911 7.31819 14.0784 7.31409 14.0657C6.6092 11.8429 6.47322 9.44244 6.91169 7.14882C7.078 6.27891 7.28652 5.63946 7.40733 5.30934C9.23529 4.35042 11.5233 3.63745 14.2273 3.1832C14.2258 3.18626 14.2243 3.18963 14.2228 3.1928ZM21.3841 12.699C19.6204 12.7384 17.8583 12.8484 16.1048 13.049C15.7203 13.0885 15.3361 13.1302 14.9521 13.1737C14.9485 13.1638 14.9451 13.1539 14.9415 13.144C13.9489 10.3968 14.2616 7.33497 15.2966 4.65195C15.5258 4.05785 15.7882 3.4745 16.0947 2.91826C17.7787 2.72061 19.6226 2.60934 21.5899 2.58646V12.6946H21.59C21.5212 12.6957 21.4528 12.6975 21.3841 12.699ZM30.1957 11.6129C30.0962 12.1316 29.9562 12.6417 29.7779 13.1375C29.7736 13.1497 29.7695 13.1617 29.7651 13.1738C27.8213 12.9533 25.8706 12.7787 23.9154 12.7148C23.6528 12.7062 23.39 12.699 23.1271 12.6946V2.58646C25.0945 2.60934 26.9383 2.72061 28.6224 2.91826C29.2012 3.97158 30.9636 7.6095 30.1957 11.6129ZM37.4039 14.0623C37.3995 14.0761 37.3951 14.0899 37.3907 14.1038C37.2641 14.0911 36.9705 14.0602 36.952 14.0582C35.2789 13.8763 33.611 13.6454 31.9412 13.4352C31.7396 13.4099 31.5371 13.3845 31.3332 13.3594C31.3345 13.3554 31.3356 13.3514 31.3369 13.3474C32.7124 9.16053 31.4217 5.22138 30.4898 3.18309C33.1939 3.63745 35.4818 4.35042 37.3104 5.3105C37.7943 6.59743 38.0054 7.9874 38.0504 9.36208C38.0507 9.37125 38.0511 9.38032 38.0513 9.3895C38.0985 10.9683 37.8812 12.561 37.4039 14.0623ZM41.5006 11.2973C40.8021 12.1152 40.3414 13.1468 40.1388 14.278C40.1319 14.278 39.3572 14.2625 38.9776 14.237C38.9729 14.2367 38.968 14.2364 38.9633 14.2361C38.9657 14.2281 38.9677 14.2202 38.9701 14.2122C39.2684 13.1952 39.4636 12.1464 39.55 11.0879C39.673 9.58008 39.5783 8.04952 39.2651 6.57085C39.2644 6.56758 39.2638 6.5641 39.263 6.56083C40.7096 7.69694 41.7021 9.06645 42.2264 10.652C41.9977 10.8199 41.5272 11.2662 41.5006 11.2973ZM51.4253 14.2785C50.2193 15.1973 48.4772 15.4747 46.7655 15.0205C46.5949 14.9751 46.4208 14.921 46.2482 14.8594C45.638 14.6416 45.0449 15.2802 45.2815 15.8971C45.3485 16.0719 45.4085 16.2486 45.4597 16.4224C45.9727 18.1635 45.7766 19.9666 44.9354 21.2454C44.9233 21.2638 44.8982 21.2717 44.8782 21.2633C42.1799 20.136 40.9137 16.4317 41.8824 13.7089C41.886 13.6987 41.8899 13.6887 41.8935 13.6786C42.7633 11.2798 45.5128 10.6672 47.7099 11.2503C49.4217 11.7045 50.8162 12.8143 51.4403 14.2189C51.4493 14.2392 51.4427 14.2653 51.4253 14.2785Z" stroke="black" stroke-width="0.6" mask="url(#path-4-outside-1)"/>
</svg>
