<svg width="277" height="180" viewBox="0 0 277 180" fill="none" xmlns="http://www.w3.org/2000/svg">
<path fill-rule="evenodd" clip-rule="evenodd" d="M154.725 165.693C87.6811 165.693 33.332 168.896 33.332 172.847C33.332 176.797 87.6811 180 154.725 180C221.768 180 276.117 176.797 276.117 172.847C276.117 168.886 221.768 165.693 154.725 165.693Z" fill="#868685"/>
<path fill-rule="evenodd" clip-rule="evenodd" d="M157.388 55.8044L157.29 55.4256C157.182 55.0252 157.323 54.5923 157.615 54.4516C157.896 54.3109 158.199 54.5274 158.329 54.9062L158.459 55.2741C159.585 58.7156 162.171 62.7847 165.775 66.4318C169.757 70.4577 174.032 73.0117 177.365 73.6502C178.08 72.9684 179.454 72.6221 180.969 72.8385C183.09 73.1416 184.692 74.4186 184.541 75.6956C184.4 76.9726 182.56 77.7735 180.439 77.4704C178.48 77.1891 176.954 76.0744 176.857 74.8839C173.48 74.3537 169.011 71.7455 164.898 67.6006C161.067 63.7263 158.394 59.3757 157.388 55.8044Z" fill="#1A1A18"/>
<path d="M100.816 175.509C113.033 175.509 122.936 165.261 122.936 152.62C122.936 139.979 113.033 129.731 100.816 129.731C88.599 129.731 78.6953 139.979 78.6953 152.62C78.6953 165.261 88.599 175.509 100.816 175.509Z" fill="#010202"/>
<path d="M100.819 169.567C109.862 169.567 117.193 161.98 117.193 152.62C117.193 143.26 109.862 135.672 100.819 135.672C91.7762 135.672 84.4453 143.26 84.4453 152.62C84.4453 161.98 91.7762 169.567 100.819 169.567Z" fill="#FBCB98"/>
<path d="M100.821 158.312C103.863 158.312 106.329 155.764 106.329 152.62C106.329 149.476 103.863 146.927 100.821 146.927C97.7787 146.927 95.3125 149.476 95.3125 152.62C95.3125 155.764 97.7787 158.312 100.821 158.312Z" fill="#010202"/>
<path d="M223.335 175.509C235.552 175.509 245.456 165.261 245.456 152.62C245.456 139.979 235.552 129.731 223.335 129.731C211.119 129.731 201.215 139.979 201.215 152.62C201.215 165.261 211.119 175.509 223.335 175.509Z" fill="#010202"/>
<path d="M223.335 169.567C232.378 169.567 239.709 161.98 239.709 152.62C239.709 143.26 232.378 135.672 223.335 135.672C214.292 135.672 206.961 143.26 206.961 152.62C206.961 161.98 214.292 169.567 223.335 169.567Z" fill="#FBCB98"/>
<path d="M223.337 158.312C226.379 158.312 228.845 155.764 228.845 152.62C228.845 149.476 226.379 146.927 223.337 146.927C220.294 146.927 217.828 149.476 217.828 152.62C217.828 155.764 220.294 158.312 223.337 158.312Z" fill="#010202"/>
<path fill-rule="evenodd" clip-rule="evenodd" d="M182.407 74.0615C186.735 72.1785 190.772 71.9295 191.421 73.5204C192.071 75.1113 189.073 77.925 184.744 79.8081C180.415 81.6912 176.379 81.9293 175.729 80.3492C175.08 78.7583 178.067 75.9446 182.407 74.0615Z" fill="#FBCB98"/>
<path fill-rule="evenodd" clip-rule="evenodd" d="M184.995 73.607C184.465 73.5096 184.043 73.8884 183.891 74.6135C183.729 75.3386 183.837 76.4208 183.913 77.2541C183.989 78.0874 184.032 78.661 183.805 79.0614C183.578 79.4618 183.069 79.6783 182.398 79.8514C181.727 80.0137 180.872 80.1328 179.952 80.1436C179.032 80.1544 178.026 80.0679 177.225 79.9488C176.424 79.8298 175.829 79.6674 175.515 79.635C175.19 79.6025 175.147 79.6891 175.331 79.938C175.515 80.1869 175.872 80.6198 176.186 80.912C177.842 82.4812 185.645 80.2085 186.034 78.8882C186.175 78.4121 187.376 77.2757 187.506 76.5398C187.636 75.8039 187.235 75.3277 186.705 74.7975C186.175 74.2672 185.526 73.7044 184.995 73.607Z" fill="#EEAB69"/>
<path fill-rule="evenodd" clip-rule="evenodd" d="M102.55 104.288C101.219 105.284 100.364 106.452 99.9314 107.048C99.4985 107.632 99.4985 107.632 99.3362 107.935C99.1738 108.238 98.8492 108.844 98.2864 109.439C97.7128 110.024 96.9012 110.597 96.1003 111.128C95.2995 111.658 94.4986 112.134 93.8601 112.697C93.2216 113.26 92.7346 113.887 92.4965 114.353C92.2584 114.807 92.2585 115.088 92.3991 115.478C92.5507 115.868 92.8429 116.355 92.9835 116.604C93.135 116.852 93.1351 116.852 91.9879 117.74C90.8407 118.627 88.5464 120.402 86.0898 122.469C83.6332 124.536 81.025 126.917 79.142 128.952C77.2589 130.997 76.1009 132.707 75.3325 134.244C74.575 135.781 74.207 137.144 74.207 138.237C74.207 139.33 74.5858 140.163 75.3325 140.834C76.0793 141.505 77.1831 142.003 79.5857 142.371C81.9774 142.739 85.6569 142.966 89.3256 143.021C92.9944 143.075 96.6739 142.956 102.691 142.761C108.719 142.566 117.095 142.285 121.284 142.155C125.472 142.014 125.472 142.014 125.764 142.155C126.056 142.295 126.641 142.588 127.128 142.999C127.615 143.41 128.015 143.962 128.361 145.055C128.708 146.148 129.021 147.804 129.173 148.626C129.324 149.449 129.324 149.449 129.725 149.568C130.125 149.687 130.937 149.925 132.625 150.109C134.314 150.304 136.889 150.445 143.22 150.477C149.551 150.51 159.659 150.423 167.451 150.077C175.243 149.741 180.741 149.157 184.453 148.518C188.165 147.88 190.113 147.198 191.779 146.408C193.446 145.618 194.842 144.72 195.535 144.265C196.227 143.811 196.227 143.811 196.325 144.168C196.411 144.525 196.595 145.228 196.942 145.759C197.288 146.289 197.797 146.657 198.814 146.635C199.831 146.624 201.346 146.235 205.156 143.919C208.954 141.603 215.047 137.35 218.716 134.969C222.385 132.588 223.64 132.079 225.296 131.744C226.952 131.408 228.997 131.235 231.821 131.17C234.646 131.105 238.261 131.149 240.663 131.062C243.077 130.975 244.278 130.759 244.884 130.651C245.49 130.543 245.49 130.543 245.425 130.056C245.36 129.569 245.241 128.595 244.7 127.437C244.159 126.279 243.196 124.937 241.984 123.746C240.771 122.556 239.321 121.528 237.135 120.456C234.949 119.385 232.038 118.281 229.332 117.61C226.616 116.939 224.094 116.701 222.017 116.679C219.939 116.658 218.294 116.831 217.482 116.928C216.66 117.015 216.66 117.015 215.134 114.558C213.608 112.102 210.556 107.177 208.402 103.725C206.249 100.273 204.993 98.2816 203.63 96.1604C202.266 94.0393 200.794 91.7883 199.074 89.2342C197.353 86.6802 195.394 83.8448 194.409 82.4163C193.424 80.9986 193.424 80.9986 194.139 80.9769C194.853 80.9553 196.271 80.912 197.45 80.7388C198.63 80.5657 199.571 80.2735 200.21 79.8298C200.848 79.386 201.173 78.78 201.379 77.687C201.584 76.5939 201.671 75.0139 201.747 73.8775C201.822 72.7412 201.898 72.0486 202.125 71.291C202.353 70.5335 202.721 69.711 202.959 69.1374C203.197 68.5747 203.305 68.2608 203.37 67.8712C203.435 67.4816 203.467 67.0163 203.402 66.6159C203.337 66.2154 203.175 65.8691 202.775 65.5661C202.385 65.2631 201.757 64.9925 201.011 64.8843C200.264 64.7761 199.398 64.8194 197.548 65.3064C195.708 65.7934 192.883 66.7241 190.6 67.8496C188.305 68.9751 186.541 70.3062 185.546 71.4534C184.539 72.5897 184.301 73.5421 184.29 74.6892C184.269 75.8364 184.474 77.2 185.329 79.5592C186.184 81.9184 187.689 85.295 189.799 89.8403C191.909 94.3856 194.615 100.121 196.206 104.082C197.797 108.043 198.273 110.229 198.067 113.595C197.861 116.961 196.985 121.506 195.762 125.294C194.55 129.092 192.991 132.133 191.487 134.449C189.983 136.765 188.533 138.335 187.05 139.471C185.578 140.607 184.085 141.3 182.321 141.863C180.557 142.425 178.533 142.847 174.139 142.923C169.745 142.999 162.971 142.718 158.447 142.122C153.934 141.527 151.672 140.607 149.822 139.622C147.982 138.627 146.553 137.555 145.525 136.549C144.508 135.542 143.891 134.601 143.469 133.562C143.047 132.523 142.809 131.365 142.831 130.12C142.852 128.865 143.144 127.512 143.686 126.149C144.237 124.785 145.038 123.4 146.153 121.874C147.268 120.359 148.685 118.703 149.897 117.22C151.11 115.738 152.127 114.417 152.96 113.173C153.793 111.918 154.443 110.727 154.843 109.645C155.254 108.563 155.417 107.6 155.395 106.82C155.374 106.041 155.146 105.435 154.876 104.926C154.605 104.418 154.27 103.996 153.512 103.13C152.755 102.264 151.586 100.955 145.471 100.587C139.357 100.23 128.307 100.814 121.143 101.149C113.979 101.485 110.689 101.572 108.145 102.015C105.667 102.47 103.871 103.292 102.55 104.288Z" fill="#010202"/>
<path fill-rule="evenodd" clip-rule="evenodd" d="M152.864 102.794C153.611 103.173 153.644 103.216 153.103 103.855C152.551 104.493 151.425 105.738 149.033 107.026C146.653 108.314 143.005 109.634 139.737 110.554C136.469 111.474 133.558 111.972 128.309 112.296C123.071 112.61 115.495 112.74 110.755 112.708C106.015 112.675 104.111 112.469 102.552 111.842C100.994 111.214 99.7925 110.154 99.2297 109.569C98.6778 108.974 98.7752 108.844 98.97 108.541C99.1648 108.227 99.4678 107.74 99.8466 107.221C100.225 106.69 100.68 106.128 102 105.208C103.32 104.288 105.496 103.011 111.123 102.643C116.751 102.275 125.831 102.838 131.069 103.011C136.307 103.184 137.713 102.978 139.488 102.61C141.263 102.242 143.395 101.723 145.073 101.431C146.75 101.139 147.984 101.074 149.315 101.398C150.668 101.712 152.118 102.426 152.864 102.794ZM133.872 119.807C135.56 121.062 136.642 123.703 137.27 126.073C137.897 128.443 138.092 130.553 138.19 132.426C138.287 134.298 138.287 135.943 137.843 137.22C137.4 138.497 136.512 139.395 135.43 140.12C134.348 140.845 133.071 141.397 131.653 141.852C130.235 142.306 128.699 142.653 127.768 142.717C126.848 142.793 126.545 142.588 125.787 142.079C125.03 141.57 123.807 140.737 122.151 139.07C120.506 137.404 118.428 134.882 119.262 131.365C120.095 127.848 123.829 123.324 126.848 120.997C129.867 118.671 132.172 118.552 133.872 119.807Z" fill="#A3CCEE"/>
<path fill-rule="evenodd" clip-rule="evenodd" d="M84.8807 118.184C89.3287 118.184 92.9216 121.019 92.9216 124.525C92.9216 128.032 89.3178 130.867 84.8807 130.867C80.4328 130.867 76.8398 128.032 76.8398 124.525C76.8398 121.03 80.4436 118.184 84.8807 118.184Z" fill="#FBCB98"/>
<path fill-rule="evenodd" clip-rule="evenodd" d="M125.776 142.144C125.484 142.003 125.484 142.003 121.296 142.144C117.107 142.285 108.72 142.555 102.703 142.75C96.675 142.945 93.0063 143.064 89.3376 143.01C85.6689 142.956 81.9893 142.728 79.5976 142.36C77.2059 141.992 76.0912 141.495 75.3445 140.824C74.5978 140.153 74.219 139.319 74.219 138.226C74.2082 137.133 74.5761 135.77 75.3445 134.233C76.102 132.696 77.26 130.986 79.1539 128.941C81.037 126.896 83.6559 124.525 86.1018 122.458C88.5584 120.391 90.8527 118.617 91.9998 117.729C92.5626 117.296 92.7358 117.101 92.9738 116.939C94.2942 116.214 95.7876 115.402 97.3244 114.601C98.8719 113.801 100.647 112.913 102.811 112.037C104.976 111.16 107.541 110.294 109.856 109.688C112.172 109.082 114.229 108.736 116.144 108.584C118.06 108.433 119.845 108.465 121.696 108.747C123.547 109.028 125.484 109.558 127.107 110.132C128.73 110.706 130.051 111.312 131.306 112.513C132.561 113.714 133.752 115.5 134.737 117.675C135.732 119.85 136.522 122.404 136.977 125.067C137.431 127.729 137.561 130.488 137.431 132.675C137.302 134.861 136.912 136.473 136.328 137.599C135.743 138.724 134.953 139.384 133.157 140.055C131.36 140.737 128.46 141.473 127.172 141.808C126.09 142.068 125.841 142.133 125.776 142.144Z" fill="#010202"/>
<path fill-rule="evenodd" clip-rule="evenodd" d="M79.781 135.521C80.7225 133.724 82.4866 130.932 84.7809 128.227C87.0752 125.51 89.8781 122.87 92.8218 120.759C95.7654 118.638 98.8281 117.036 101.815 115.889C104.802 114.742 107.702 114.049 110.852 113.584C114.001 113.119 117.388 112.881 120.418 113.065C123.449 113.249 126.111 113.865 128.254 114.818C130.396 115.77 132.02 117.047 133.156 118.508C134.303 119.969 134.974 121.625 134.379 122.458C133.784 123.292 131.922 123.313 128.643 123.302C125.364 123.292 120.667 123.248 115.429 123.638C110.181 124.028 104.391 124.85 99.9211 125.921C95.4515 127.004 92.3023 128.346 89.7158 129.861C87.1293 131.387 85.0947 133.086 83.3415 134.633C81.5883 136.181 80.1057 137.566 79.4239 137.858C78.7204 138.129 78.8395 137.317 79.781 135.521Z" fill="#A3CCEE"/>
<path fill-rule="evenodd" clip-rule="evenodd" d="M186.691 148.096C189.029 147.588 190.49 147.036 191.789 146.419C193.455 145.629 194.851 144.73 195.544 144.276C196.237 143.821 196.237 143.821 196.334 144.179C196.421 144.536 196.605 145.239 196.951 145.769C197.297 146.3 197.806 146.668 198.823 146.646C199.84 146.635 201.355 146.246 205.165 143.93C208.963 141.614 215.056 137.361 218.725 134.98C222.394 132.599 223.649 132.09 225.305 131.755C226.961 131.419 229.006 131.246 231.831 131.181C234.655 131.116 238.27 131.159 240.673 131.073C243.086 130.986 244.287 130.77 244.893 130.662C245.499 130.553 245.499 130.553 245.434 130.066C245.369 129.579 245.25 128.605 244.709 127.447C244.168 126.289 243.205 124.947 241.993 123.757C240.781 122.567 239.331 121.538 237.144 120.467C234.958 119.396 232.047 118.292 229.342 117.621C226.625 116.95 224.104 116.712 222.026 116.69C219.948 116.668 218.303 116.842 217.491 116.939C216.669 117.026 216.669 117.026 215.143 114.569C213.617 112.112 210.565 107.188 208.412 103.736C206.258 100.284 205.003 98.2924 203.639 96.1713C202.275 94.0501 200.728 91.8424 199.083 89.245C195.62 83.7907 193.683 76.9835 192.481 83.8664C192.297 84.9378 192.47 86.2257 193.087 87.9897C193.704 89.7645 194.797 92.0263 195.847 94.483C196.897 96.9396 197.892 99.5911 198.823 103.097C199.765 106.604 200.63 110.976 201.042 114.342C201.453 117.707 201.399 120.077 201.052 122.642C200.706 125.207 200.078 127.978 199.213 130.521C198.347 133.053 197.243 135.369 195.89 137.523C194.537 139.676 192.925 141.679 191.356 143.41C189.787 145.153 188.239 146.646 186.691 148.096Z" fill="#A3CCEE"/>
<path fill-rule="evenodd" clip-rule="evenodd" d="M208.034 112.08C207.385 112.524 206.898 113.649 206.963 114.775C207.028 115.9 207.645 117.047 208.391 117.74C209.138 118.433 210.026 118.692 210.989 118.844C211.952 118.995 213.002 119.039 213.932 118.974C214.863 118.909 215.686 118.736 216.108 118.335C216.53 117.935 216.551 117.318 216.194 116.614C215.837 115.911 215.101 115.121 214.062 114.353C213.012 113.584 211.66 112.848 210.567 112.35C209.495 111.874 208.684 111.636 208.034 112.08Z" fill="#92C3DD"/>
<path fill-rule="evenodd" clip-rule="evenodd" d="M212.385 107.816C215.447 107.816 217.926 110.219 217.926 113.195C217.926 116.16 215.447 118.573 212.385 118.573C209.322 118.573 206.844 116.171 206.844 113.195C206.855 110.229 209.333 107.816 212.385 107.816Z" fill="#010202"/>
<path fill-rule="evenodd" clip-rule="evenodd" d="M212.578 107.762C213.715 106.918 215.738 107.827 217.102 109.796C218.466 111.766 218.639 114.039 217.502 114.883C216.366 115.727 214.342 114.818 212.979 112.848C211.615 110.879 211.431 108.606 212.578 107.762Z" fill="#FBCB98"/>
<path fill-rule="evenodd" clip-rule="evenodd" d="M94.4693 94.2883C94.7399 96.8423 96.4931 102.015 97.4563 104.645C98.4303 107.275 98.6142 107.372 102.067 107.275C105.508 107.177 112.218 106.874 118.278 106.755C124.349 106.636 129.771 106.69 134.447 106.582C139.111 106.485 143.007 106.225 146.07 105.727C149.121 105.229 151.329 104.504 152.974 103.66C154.619 102.816 155.69 101.864 156.437 99.9158C157.184 97.9678 157.606 95.035 157.833 93.5632C158.061 92.0914 158.082 92.0914 156.968 92.3619C155.842 92.6216 153.58 93.1519 150.453 93.6606C147.325 94.1692 143.353 94.6454 137.812 94.7428C132.271 94.8294 125.161 94.5263 118.04 93.9852C110.919 93.4333 103.787 92.6325 99.6099 92.2104C95.4217 91.7775 94.1988 91.7342 94.4693 94.2883Z" fill="#010202"/>
<path fill-rule="evenodd" clip-rule="evenodd" d="M201.294 78.1738C201.348 78.0331 201.359 77.8816 201.391 77.7193C201.597 76.6263 201.683 75.0462 201.759 73.9099C201.835 72.7736 201.911 72.0809 202.138 71.3234C202.365 70.5658 202.733 69.7433 202.971 69.1698C203.209 68.607 203.317 68.2932 203.382 67.9036C203.447 67.514 203.48 67.0486 203.415 66.6482C203.35 66.2478 203.188 65.9015 202.787 65.5984C202.398 65.2954 201.77 65.0249 201.023 64.9166C200.536 64.8409 199.984 64.8409 199.173 64.9816C199.151 65.7067 199.14 66.4318 199.064 67.4815C198.999 68.5421 198.87 69.9273 198.794 71.2584C198.718 72.5896 198.675 73.8558 198.751 74.7973C198.826 75.7497 199.01 76.3774 199.248 76.8102C199.476 77.2431 199.757 77.492 200.103 77.6868C200.45 77.8816 200.872 78.0331 201.294 78.1738Z" fill="#FBCB98"/>
<path fill-rule="evenodd" clip-rule="evenodd" d="M157.581 93.8986C157.635 94.6345 157.451 95.7059 157.278 96.6041C157.105 97.5024 156.931 98.2166 156.758 98.801C156.596 99.3854 156.434 99.84 156.347 100.067C156.271 100.294 156.26 100.305 155.795 99.8833C155.33 99.4612 154.388 98.6171 153.371 97.9461C152.354 97.2751 151.261 96.7881 150.427 96.4851C149.594 96.1821 148.999 96.0738 148.209 96.2037C147.419 96.3336 146.423 96.6907 145.406 96.8097C144.388 96.9288 143.339 96.7989 142.819 96.734C142.3 96.6691 142.3 96.6691 141.488 97.037C140.676 97.405 139.064 98.1301 137.441 98.5521C135.817 98.9742 134.172 99.0824 132.603 98.7902C131.034 98.498 129.551 97.8054 128.804 97.4591C128.058 97.1128 128.058 97.1128 127.538 97.3292C127.019 97.5457 125.969 97.9677 124.616 98.1625C123.264 98.3573 121.608 98.3032 120.147 98.0327C118.697 97.7621 117.441 97.2751 116.554 96.6366C115.666 96.0089 115.147 95.2297 111.532 94.5696C107.928 93.9094 101.23 93.3683 97.8747 93.1086C94.5198 92.8488 94.5198 92.8596 94.5631 92.7947C94.6064 92.7298 94.6929 92.5891 94.8877 92.4592C95.0825 92.3185 95.3964 92.1887 95.8076 92.1129C96.208 92.0372 96.7059 92.0263 97.5175 92.0696C98.3184 92.1129 99.4331 92.2103 100.775 92.351C102.117 92.4809 103.686 92.6432 105.504 92.8272C107.322 93.0112 109.379 93.2168 111.381 93.4008C113.383 93.5847 115.342 93.7579 120.006 93.509C124.67 93.2601 132.03 92.5999 137.484 92.4376C142.927 92.2752 146.466 92.6107 149.194 92.6324C151.921 92.654 153.847 92.3726 155.005 92.2752C156.163 92.1778 156.553 92.2753 156.888 92.5242C157.234 92.7622 157.527 93.1627 157.581 93.8986Z" fill="#010202"/>
<path fill-rule="evenodd" clip-rule="evenodd" d="M166.648 41.4434C166.573 40.2638 166.021 38.792 165.696 37.6881C165.371 36.5842 165.274 35.8267 165.685 34.9826C166.096 34.1384 167.027 33.1861 167.59 32.0173C168.153 30.8377 168.347 29.4416 168.304 27.7642C168.25 26.0975 167.958 24.1495 167.341 22.7859C166.724 21.4115 165.772 20.6215 165.415 19.6259C165.058 18.6302 165.285 17.4398 165.036 16.1519C164.787 14.8641 164.051 13.4789 163.185 12.4291C162.319 11.3794 161.324 10.6543 160.133 10.0699C158.943 9.47465 157.558 8.99847 156.421 8.73874C155.285 8.479 154.408 8.42489 153.792 7.98118C153.175 7.53747 152.818 6.68252 152.331 5.96825C151.854 5.25399 151.248 4.65877 150.502 4.09601C149.755 3.53326 148.857 2.99215 147.839 2.7216C146.833 2.45104 145.707 2.45104 144.56 2.55926C143.424 2.66748 142.266 2.87311 141.379 2.90557C140.502 2.93804 139.896 2.78653 139.214 2.49433C138.532 2.20213 137.764 1.75842 136.714 1.54198C135.675 1.32553 134.355 1.32553 133.175 1.52033C132.007 1.71513 130.978 2.10473 130.069 2.65666C129.16 3.19777 128.381 3.90121 127.472 4.16095C126.563 4.40986 125.513 4.21506 124.247 4.21506C122.97 4.21506 121.477 4.40986 120.2 4.79946C118.922 5.17823 117.862 5.75181 116.78 6.88814C115.708 8.02447 114.615 9.71273 113.555 10.7408C112.505 11.769 111.488 12.1261 110.719 12.4183C109.94 12.7105 109.41 12.9377 109.377 13.3273C109.356 13.7061 109.843 14.2472 110.741 14.8641C111.639 15.481 112.938 16.1844 114.334 16.8662C115.73 17.548 117.213 18.1973 118.284 18.6627C119.355 19.128 120.005 19.4094 119.853 20.0696C119.702 20.7297 118.76 21.7687 117.819 23.1323C116.877 24.485 115.946 26.1516 115.2 27.6451C114.453 29.1494 113.879 30.4805 113.349 31.8441C112.819 33.2077 112.332 34.593 111.78 36.3353C111.239 38.0777 110.633 40.188 110.146 42.2659C109.67 44.3546 109.302 46.4216 108.999 48.0991C108.685 49.7657 108.425 51.0427 107.722 53.521C107.007 55.9993 105.849 59.6896 104.691 62.7956C103.523 65.9016 102.354 68.434 101.261 70.3711C100.168 72.3083 99.1612 73.6611 98.9014 74.6134C98.6525 75.5658 99.1503 76.1177 99.7672 76.7129C100.373 77.2973 101.098 77.9142 101.726 78.4661C102.354 79.0072 102.895 79.4834 103.252 80.1436C103.609 80.8037 103.793 81.6479 104.064 82.4379C104.334 83.2279 104.691 83.9638 105.341 84.7322C105.99 85.5006 106.942 86.3014 107.797 86.994C108.652 87.6975 109.421 88.3035 110.362 88.5308C111.304 88.7689 112.408 88.639 113.122 88.5524C113.836 88.4658 114.161 88.4117 114.507 88.8663C114.853 89.31 115.21 90.2623 115.719 91.1606C116.228 92.0588 116.877 92.9029 117.559 93.628C118.241 94.3531 118.933 94.9592 119.832 95.3488C120.73 95.7384 121.823 95.9223 122.689 95.9115C123.554 95.9007 124.193 95.7059 125.015 95.4786C125.838 95.2514 126.855 94.9916 127.624 94.7427C128.403 94.4938 128.933 94.2449 129.463 94.299C129.994 94.3639 130.513 94.7319 131.108 95.0566C131.703 95.3704 132.374 95.6301 133.208 95.8033C134.041 95.9764 135.037 96.0522 136.227 95.879C137.418 95.7059 138.803 95.2622 139.853 94.7752C140.902 94.2882 141.617 93.7471 142.342 93.4765C143.056 93.206 143.781 93.206 144.636 93.1519C145.502 93.0977 146.508 92.9787 147.785 92.3618C149.062 91.745 150.588 90.6195 151.562 89.7861C152.536 88.9528 152.937 88.4117 153.618 87.784C154.3 87.1564 155.242 86.4421 156.259 85.5222C157.276 84.6023 158.369 83.4768 158.954 82.2972C159.538 81.1176 159.614 79.8838 159.917 78.3579C160.22 76.8428 160.761 75.0463 160.869 73.4987C160.978 71.9512 160.664 70.6742 160.923 68.921C161.183 67.1678 162.038 64.9492 162.666 63.1852C163.293 61.4212 163.705 60.09 163.954 58.813C164.203 57.536 164.3 56.2915 164.235 55.2742C164.17 54.2569 163.943 53.456 163.586 52.6227C163.239 51.7894 162.763 50.9237 162.817 50.2094C162.871 49.4951 163.467 48.9215 164.062 47.98C164.668 47.0385 165.285 45.7398 165.793 44.636C166.313 43.5213 166.713 42.623 166.648 41.4434Z" fill="white"/>
<path fill-rule="evenodd" clip-rule="evenodd" d="M126.81 91.4204C125.804 92.3186 124.516 92.8056 123.163 92.6757C120.371 92.4052 118.347 89.6239 118.639 86.453C118.769 85.0461 119.364 83.7691 120.209 82.8384C119.851 83.5526 119.613 84.3643 119.538 85.2192C119.213 88.5849 121.377 91.5502 124.343 91.8316C125.208 91.9182 126.042 91.7667 126.81 91.4204ZM148.292 81.951C149.158 82.6327 149.721 83.5959 149.807 84.7106C149.98 86.9941 148.022 89.007 145.435 89.2018C144.288 89.2884 143.184 88.9962 142.318 88.4443C142.946 88.6282 143.617 88.704 144.32 88.6499C147.069 88.4443 149.147 86.3015 148.963 83.8773C148.909 83.1739 148.671 82.5137 148.292 81.951ZM132.784 52.6336C131.778 53.5319 130.49 54.0189 129.137 53.889C126.345 53.6184 124.321 50.8371 124.613 47.6662C124.743 46.2593 125.338 44.9823 126.182 44.0516C125.825 44.7659 125.587 45.5775 125.511 46.4325C125.187 49.7982 127.351 52.7635 130.317 53.0449C131.171 53.1314 132.016 52.9799 132.784 52.6336ZM131.637 36.0865C130.63 36.9847 129.343 37.4717 127.99 37.3419C125.198 37.0713 123.174 34.29 123.466 31.1191C123.596 29.7122 124.191 28.4352 125.035 27.5045C124.678 28.2187 124.44 29.0304 124.364 29.8854C124.04 33.2511 126.204 36.2163 129.169 36.4977C130.024 36.5843 130.868 36.4328 131.637 36.0865ZM150.846 13.7062C151.853 12.8079 153.141 12.3209 154.493 12.4508C157.285 12.7214 159.309 15.5027 159.017 18.6736C158.887 20.0805 158.292 21.3575 157.448 22.2882C157.805 21.5739 158.043 20.7622 158.119 19.9073C158.443 16.5416 156.279 13.5763 153.314 13.2949C152.459 13.2084 151.615 13.3707 150.846 13.7062ZM121.064 19.2147C120.252 19.1497 118.629 19.0199 117.113 18.9766C115.609 18.9333 114.213 18.9874 113.553 19.0091C112.893 19.0307 112.958 19.0307 111.681 21.4657C110.404 23.8899 107.796 28.7598 104.257 36.4328C100.718 44.1165 96.2482 54.6141 95.047 61.4321C93.8457 68.25 95.9128 71.3777 97.4603 73.5096C99.0079 75.6416 100.058 76.7671 100.934 77.7086C101.811 78.6393 102.525 79.3861 102.882 79.754C103.239 80.122 103.239 80.122 103.12 80.4142C103.001 80.7064 102.763 81.28 103.11 82.0483C103.456 82.8167 104.397 83.7691 105.274 84.6132C106.151 85.4682 106.973 86.2257 107.806 86.8534C108.64 87.4919 109.495 88.0006 110.512 88.2495C111.529 88.4984 112.698 88.4875 113.282 88.4767C113.867 88.4659 113.867 88.4659 114.072 88.7256C114.278 88.9745 114.7 89.4724 114.906 89.7321C115.111 89.981 115.111 89.981 115.025 89.2126C114.938 88.4443 114.754 86.9075 114.668 86.1391C114.581 85.3708 114.581 85.3708 113.683 85.2842C112.785 85.1976 110.988 85.0353 109.7 84.5807C108.412 84.1262 107.633 83.3687 107.006 82.3189C106.389 81.2583 105.934 79.8839 105.685 78.7367C105.436 77.5788 105.404 76.6372 105.404 76.1611C105.404 75.6849 105.436 75.6849 105.058 75.5767C104.679 75.4576 103.9 75.2304 103.51 75.1221C103.12 75.0031 103.12 75.0031 103.477 73.9209C103.835 72.8278 104.549 70.6417 105.739 69.0942C106.93 67.5466 108.596 66.6267 110.631 66.486C112.666 66.3345 115.079 66.9622 118.326 67.828C121.572 68.6938 125.652 69.7976 130.706 70.7608C135.76 71.724 141.799 72.5356 146.409 72.817C151.019 73.0984 154.223 72.8278 156.474 72.2434C158.725 71.659 160.034 70.7392 160.175 69.8517C160.316 68.9643 159.277 68.1202 158.378 67.0921C157.48 66.064 156.723 64.8627 155.911 63.0987C155.099 61.3347 154.244 59.0187 153.811 57.8607C153.379 56.7028 153.379 56.7028 153.314 57.5469C153.249 58.391 153.119 60.0685 153.335 61.1507C153.552 62.2329 154.104 62.7091 154.158 63.7588C154.212 64.8086 153.747 66.4427 148.26 66.7349C142.762 67.0271 132.232 65.9882 125.252 64.3865C118.271 62.7848 114.852 60.6312 112.958 58.7265C111.064 56.8218 110.707 55.1552 110.707 53.1314C110.707 51.1077 111.064 48.7268 111.648 45.5667C112.233 42.4066 113.055 38.4565 114.289 34.8527C115.523 31.249 117.189 27.9915 118.52 25.4483C119.851 22.9159 120.847 21.0977 121.345 20.1995C121.875 19.2796 121.875 19.2796 121.064 19.2147Z" fill="#C6C5C6"/>
<path fill-rule="evenodd" clip-rule="evenodd" d="M152.278 90.1001L150.395 91.3447C153.208 91.9399 156.055 92.9463 158.825 94.3749C168.165 99.1799 174.225 107.426 174.809 115.283C174.517 116.008 174.506 116.679 174.831 117.156C175.664 118.389 178.392 117.989 180.913 116.279C183.446 114.569 184.82 112.177 183.976 110.954C183.142 109.721 180.415 110.121 177.894 111.831C177.374 112.177 176.909 112.556 176.498 112.957C175.47 105.446 169.55 97.7081 160.643 93.1303C157.894 91.7018 155.07 90.7061 152.278 90.1001Z" fill="#1A1A18"/>
<path fill-rule="evenodd" clip-rule="evenodd" d="M153.48 57.0707L153.416 56.6919C153.34 56.2915 153.524 55.8586 153.816 55.7396C154.108 55.6205 154.389 55.8586 154.487 56.2591L154.584 56.6378C155.418 60.1659 157.647 64.4298 160.948 68.3691C164.584 72.7088 168.632 75.62 171.9 76.529C172.668 75.9122 174.064 75.6741 175.558 76.0204C177.646 76.4966 179.129 77.9035 178.88 79.1697C178.631 80.4358 176.727 81.0744 174.638 80.5982C172.701 80.1545 171.283 78.9099 171.283 77.7303C167.961 76.9186 163.729 73.9534 159.974 69.4621C156.489 65.274 154.184 60.707 153.48 57.0707Z" fill="#1A1A18"/>
<path fill-rule="evenodd" clip-rule="evenodd" d="M105.237 11.1739C105.952 11.2821 107.337 12.2886 109.263 13.4033C111.19 14.518 113.646 15.7409 115.648 16.7906C117.65 17.8404 119.176 18.7278 119.501 19.5719C119.826 20.4161 118.949 21.2386 118.029 22.3641C117.109 23.5004 116.146 24.9506 115.205 26.996C114.263 29.0414 113.354 31.6711 112.358 35.1451C111.363 38.619 110.281 42.9154 109.458 46.2378C108.636 49.5602 108.084 51.8978 107.467 54.1272C106.85 56.3566 106.168 58.4669 105.573 60.1985C104.978 61.93 104.48 63.2611 103.138 65.7827C101.796 68.2935 99.6099 71.9838 97.9974 74.4837C96.3849 76.9945 95.3459 78.3364 93.2897 80.4468C91.2443 82.5679 88.1925 85.4683 84.8376 88.4011C81.4827 91.3339 77.814 94.2992 74.037 97.0264C70.2601 99.7536 66.3857 102.232 62.3166 104.342C58.2475 106.453 53.9943 108.195 49.5356 109.656C45.0877 111.117 40.4341 112.286 35.8672 113.195C31.3002 114.104 26.8198 114.731 23.4649 115.099C20.11 115.467 17.8915 115.565 15.4132 115.749C12.9241 115.933 10.1753 116.192 7.76192 116.214C5.34857 116.236 3.28153 116.03 2.28589 115.63C1.29025 115.229 1.37682 114.645 1.49587 113.509C1.61491 112.372 1.77724 110.695 2.16684 108.487C2.54562 106.279 3.15166 103.541 3.44386 100.36C3.73606 97.1779 3.72524 93.5633 3.76853 90.5547C3.82264 87.557 3.93086 85.1761 4.07155 83.7908C4.21224 82.4056 4.37457 82.016 5.64077 81.7346C6.91779 81.4532 9.28785 81.2909 14.4825 81.1827C19.6663 81.0636 27.6531 80.9987 33.075 80.9338C38.4861 80.8688 41.3215 80.8039 44.5682 80.3494C47.8149 79.8948 51.4619 79.0399 54.7735 78.0334C58.0851 77.027 61.0504 75.8473 64.2538 74.2132C67.4571 72.579 70.8986 70.4904 74.2427 68.2502C77.5867 65.9991 80.8334 63.5858 83.1926 61.5837C85.5518 59.5816 87.0453 58.0015 88.4955 56.2808C89.9457 54.5601 91.3634 52.6987 92.543 50.8805C93.7226 49.0516 94.675 47.2659 95.5624 45.6101C96.4498 43.9652 97.2831 42.4609 98.2246 40.0475C99.1662 37.6342 100.227 34.3118 101.049 31.6603C101.872 29.0089 102.456 27.0392 102.889 25.2969C103.322 23.5545 103.603 22.0394 103.831 19.9615C104.058 17.8945 104.242 15.2647 104.35 13.5548C104.469 11.8665 104.512 11.0765 105.237 11.1739Z" fill="#EC684A"/>
<path fill-rule="evenodd" clip-rule="evenodd" d="M104.192 15.8165C104.409 13.9226 104.571 12.6239 104.658 11.9854C104.744 11.3361 104.744 11.3361 105.047 12.3534C105.35 13.3707 105.956 15.4161 105.88 18.3922C105.816 21.3683 105.069 25.2643 104.365 28.4243C103.662 31.5844 103.002 34.0086 102.039 36.7574C101.065 39.4954 99.7984 42.5581 98.9759 44.4953C98.1642 46.4325 97.8071 47.255 97.4391 48.2722C97.0712 49.2895 96.6708 50.4908 96.9197 51.5189C97.1686 52.547 98.0452 53.3911 99.6577 54.6249C101.27 55.8586 103.608 57.4711 104.777 58.2828C105.945 59.0944 105.945 59.0944 105.74 59.7005C105.534 60.3173 105.112 61.5403 104.16 61.8108C103.197 62.0814 101.703 61.3887 100.285 60.5663C98.8677 59.7438 97.5257 58.8022 96.2379 58.1529C94.95 57.5036 93.7055 57.1464 92.3202 57.8932C90.935 58.6399 89.3982 60.5013 87.1039 62.6658C84.8096 64.8302 81.7361 67.3085 78.5111 69.592C75.2861 71.8755 71.8879 73.9641 69.3122 75.6416C66.7366 77.319 64.9725 78.596 64.1934 80.1761C63.4142 81.7561 63.609 83.65 64.3449 85.4898C65.0808 87.3295 66.347 89.126 67.4941 90.6303C68.6304 92.1346 69.6477 93.3359 70.5568 94.4722C71.4767 95.5977 72.2884 96.6583 71.8879 97.9137C71.4767 99.1799 69.8534 100.652 67.8945 102.026C65.9357 103.411 63.6522 104.71 61.0874 105.825C58.5117 106.95 55.6546 107.892 53.7066 108.736C51.7587 109.58 50.7305 110.316 49.118 110.359C47.5163 110.402 45.3411 109.753 43.2091 108.292C41.0771 106.831 38.9885 104.548 37.0838 102.264C35.179 99.9807 33.4475 97.6972 30.0926 95.6518C26.7377 93.6064 21.7487 91.7883 17.2467 91.3013C12.7446 90.8143 8.74042 91.6476 6.64092 93.6497C4.53059 95.6626 4.34661 98.8335 4.16263 99.8508C3.96784 100.868 3.76221 99.721 3.69728 97.8271C3.63235 95.9224 3.68646 93.2601 3.75139 90.284C3.81632 87.3079 3.87044 84.018 3.9029 82.3838C3.93537 80.7388 3.93537 80.7388 5.54788 80.9228C7.16038 81.1068 10.3854 81.4747 15.1147 81.5613C19.844 81.6479 26.0776 81.4639 31.2398 81.215C36.402 80.9769 40.4711 80.6739 44.5511 80.241C48.631 79.8081 52.7218 79.2454 56.8451 77.7519C60.9792 76.2584 65.1457 73.8343 69.1607 71.3019C73.1758 68.7695 77.0393 66.1072 80.4916 63.2718C83.9439 60.4364 86.9849 57.417 89.4199 54.4517C91.8549 51.4864 93.6946 48.5644 95.4911 44.9065C97.2876 41.2486 99.0408 36.844 100.361 33.0238C101.681 29.1927 102.558 25.9352 103.132 23.0674C103.716 20.1887 103.976 17.6995 104.192 15.8165Z" fill="#B94217"/>
<path fill-rule="evenodd" clip-rule="evenodd" d="M102.422 27.7101L101.664 29.9286C104.651 32.2338 107.93 34.4848 111.469 36.6167L112.27 34.474C108.709 32.3095 105.409 30.0369 102.422 27.7101Z" fill="#F9C188"/>
<path fill-rule="evenodd" clip-rule="evenodd" d="M104.26 16.5741L103.816 18.9983C107.355 21.5631 111.262 24.0306 115.472 26.3357L116.597 24.3877C112.106 21.9419 107.972 19.3013 104.26 16.5741Z" fill="#F9C188"/>
<path fill-rule="evenodd" clip-rule="evenodd" d="M99.0521 38.121L98.2188 40.2746C101.444 42.9044 105.058 45.4801 109.008 47.9151L109.712 45.7073C105.816 43.3048 102.234 40.7399 99.0521 38.121Z" fill="#F9C188"/>
<path fill-rule="evenodd" clip-rule="evenodd" d="M87.5636 57.5359L85.832 58.8778C90.0743 62.8388 95.2582 66.7564 101.156 70.3602L102.249 68.4014C96.6434 64.9924 91.6868 61.2912 87.5636 57.5359Z" fill="#F9C188"/>
<path fill-rule="evenodd" clip-rule="evenodd" d="M79.6835 64.7437L77.9844 66.0964C82.4215 70.6959 88.0057 75.2953 94.4666 79.5268L95.6462 77.6112C89.4343 73.5529 84.034 69.1591 79.6835 64.7437Z" fill="#F9C188"/>
<path fill-rule="evenodd" clip-rule="evenodd" d="M69.0328 72.0594L66.8359 73.3257C71.5977 78.8666 77.604 84.4292 84.5519 89.4832L86.3592 87.6434C79.6602 82.7626 73.7838 77.4056 69.0328 72.0594Z" fill="#F9C188"/>
<path fill-rule="evenodd" clip-rule="evenodd" d="M51.6012 79.2561L49.1445 79.7106C53.2894 85.0243 58.4733 90.4246 64.5012 95.5002C66.2544 96.972 68.0184 98.3789 69.7933 99.6992L72.1525 98.6495C70.0855 97.1344 68.0076 95.5002 65.9622 93.7795C60.4104 89.1151 55.5729 84.1694 51.6012 79.2561Z" fill="#ED6A38"/>
<path fill-rule="evenodd" clip-rule="evenodd" d="M34.5458 80.7821L32.3164 81.2583C34.9462 86.756 38.3335 92.4701 42.4135 98.1084C45.3788 102.199 48.5064 105.965 51.6773 109.331L53.8742 108.4C50.5626 104.937 47.316 101.041 44.2316 96.7881C40.3681 91.442 37.1215 86.02 34.5458 80.7821Z" fill="#ED6A38"/>
<path fill-rule="evenodd" clip-rule="evenodd" d="M29.4038 114.764L27.1745 115.327C24.2525 110.208 21.5794 104.396 19.3284 98.1085C17.3154 92.4918 15.8112 86.9508 14.8047 81.6912L17.0665 81.6696C18.073 86.7127 19.534 91.9939 21.4495 97.3509C23.7222 103.714 26.4385 109.591 29.4038 114.764Z" fill="#F9C188"/>
<path fill-rule="evenodd" clip-rule="evenodd" d="M105.667 20.3078C105.743 19.5935 105.84 19.0199 105.883 18.3814C105.894 18.1325 105.894 17.9702 105.883 17.7429C105.331 17.3533 104.79 16.9637 104.26 16.5741L103.816 18.9983C104.422 19.4312 105.039 19.8749 105.667 20.3078ZM104.238 29.0954C104.054 29.9503 103.827 30.6429 103.632 31.4113C102.961 30.9243 102.301 30.4265 101.663 29.9287L102.42 27.7101C103.016 28.1755 103.622 28.63 104.238 29.0954ZM100.104 41.779C100.397 41.0755 100.689 40.4262 100.981 39.6578C100.321 39.1492 99.6823 38.6297 99.0546 38.1211L98.2213 40.2747C98.8381 40.7833 99.4658 41.2812 100.104 41.779ZM88.5246 61.2806C89.1198 60.6854 89.5635 60.1984 90.0613 59.7114C89.1956 58.9863 88.3622 58.2612 87.5614 57.5361L85.8299 58.8781C86.6848 59.6897 87.5939 60.4906 88.5246 61.2806ZM80.2564 68.3691C80.8949 67.8929 81.3819 67.4817 81.9988 67.0055C81.198 66.248 80.4188 65.5012 79.672 64.7437L77.9729 66.0965C78.7088 66.854 79.4772 67.6007 80.2564 68.3691ZM69.0663 75.8256C69.1745 75.7499 69.1961 75.7282 69.3152 75.6525C69.8996 75.2737 70.5706 74.8624 71.2307 74.4404C70.4732 73.6503 69.7481 72.8495 69.0446 72.0595L66.8477 73.3257C67.5512 74.159 68.2979 74.9923 69.0663 75.8256ZM17.1306 91.3446C16.1782 88.0547 15.399 84.8188 14.793 81.6912L17.0548 81.6696C17.7041 84.9054 18.5374 88.2495 19.5547 91.6368C18.7106 91.4637 17.9639 91.4312 17.1306 91.3446Z" fill="#ED6A38"/>
<path fill-rule="evenodd" clip-rule="evenodd" d="M149.076 91.7234L146.738 92.8381C149.833 93.9528 152.907 95.5436 155.84 97.5998C165.688 104.526 171.272 114.84 170.699 123.844C170.255 124.623 170.136 125.38 170.428 125.976C171.175 127.502 174.335 127.491 177.473 125.943C180.612 124.396 182.549 121.906 181.791 120.381C181.034 118.855 177.885 118.865 174.746 120.413C174.108 120.727 173.512 121.084 172.982 121.463C172.993 112.773 167.484 103.054 158.102 96.4635C155.201 94.4181 152.149 92.8489 149.076 91.7234Z" fill="#1A1A18"/>
<path fill-rule="evenodd" clip-rule="evenodd" d="M107.301 51.454C106.23 50.9453 105.202 50.3934 104.239 49.8198C102.767 48.9324 101.122 47.8069 99.6392 46.584C98.86 45.9455 98.1349 45.2745 97.4315 44.5927C98.8059 41.8006 99.9963 38.8245 101.003 35.9133C102.821 30.6321 104.109 25.0911 104.888 19.561C105.223 17.2017 105.44 14.8749 105.57 12.5265C106.5 13.2408 107.464 13.9118 108.513 14.5395C111.208 16.1736 114.152 17.548 116.998 18.9008C117.68 19.2255 118.362 19.5501 119.054 19.864C116.933 22.3423 115.212 24.8314 113.795 27.8291C111.598 32.4718 110.212 37.9695 109.141 43.0018C108.535 45.8481 108.005 48.6294 107.377 51.3999L107.301 51.454ZM92.897 52.2981C95.6242 54.9062 100.353 57.8391 101.966 58.8239C102.886 59.3758 103.827 59.8953 104.78 60.3823C102.366 66.8972 98.86 73.0334 94.3363 78.3471C88.3625 85.3707 80.3649 91.745 72.7569 96.9613C65.3112 102.059 57.595 106.355 49.0671 109.331C40.8314 112.199 31.9031 113.898 23.2453 114.688C16.6871 115.283 10.2046 115.327 3.62467 115.164C3.3 115.153 2.68314 115.164 2.10956 115.143C2.83465 112.047 3.3974 108.996 3.77618 105.825C4.29565 101.463 4.57702 96.918 4.70689 92.5134C4.75018 91.0524 4.6636 89.7321 4.65278 88.3035C4.64196 86.388 4.71771 84.44 4.78264 82.5245C5.22635 82.5137 5.735 82.5245 6.01637 82.5245C11.8387 82.4704 17.6611 82.4163 23.4834 82.3622C33.0069 82.2756 43.169 82.1349 52.4761 79.9055C61.1987 77.8168 68.8825 73.8018 76.155 68.6504C82.0748 64.4514 87.4642 59.7221 91.7931 53.8673C92.1719 53.337 92.5398 52.8284 92.897 52.2981ZM96.0029 43.175C95.8514 43.0235 95.6999 42.872 95.5484 42.7205C95.267 42.5365 95.0398 42.3958 94.1523 43.5971C93.2757 44.7983 91.7931 47.4065 91.0355 48.6943C90.7 49.2679 90.9706 50.0363 91.6091 50.8912C91.1979 51.4973 90.7217 52.1682 90.2888 52.7526C86.3279 58.1204 81.3389 62.6874 75.0728 67.1353C68.8067 71.5724 61.2529 75.8905 52.0323 78.0982C42.8118 80.3059 31.9031 80.425 23.4509 80.5007C14.9988 80.5873 8.99248 80.6306 5.98391 80.6631C2.98616 80.6847 2.98616 80.6847 2.93205 82.2215C2.87794 83.7582 2.78054 86.8317 2.79136 88.3035C2.80218 89.7754 2.92123 89.6347 2.84547 92.4484C2.75889 95.2622 2.47752 101.02 1.92558 105.587C1.38448 110.154 0.572811 113.53 0.172389 115.218C-0.228032 116.907 -0.228032 116.907 3.55974 117.004C7.3475 117.101 14.9339 117.296 23.386 116.528C31.8381 115.759 41.156 114.039 49.6515 111.073C58.1469 108.119 65.8415 103.931 73.785 98.4872C81.7285 93.0437 89.9425 86.3447 95.7215 79.5484C96.6847 78.4229 97.5505 77.2433 98.3838 76.1178C99.4119 77.9792 100.808 79.4943 102.182 80.2843C102.983 86.0201 107.388 90.1541 112.453 89.6671C112.886 89.6239 113.394 89.5481 113.827 89.4182C115.277 94.0501 119.173 97.1777 123.664 96.7449C125.331 96.5933 126.846 95.9548 128.145 94.97C130.169 96.615 132.777 97.5241 135.515 97.3293C138.047 97.1561 140.363 96.0522 142.095 94.364C143.036 94.5696 144.043 94.6562 145.06 94.5804C148.75 94.3315 151.78 92.1995 153.523 89.126C157.787 87.362 161.109 82.9466 161.986 77.3948C162.354 74.7866 162.105 72.1244 161.358 69.7976C161.899 69.6244 162.311 69.3972 162.57 69.1374C163.674 67.9903 164.107 64.3107 163.934 62.7307C163.923 62.5792 163.901 62.4493 163.88 62.3303C164.518 61.1939 165.092 59.9061 165.308 58.4884C165.741 55.2958 164.875 52.2765 163.144 50.296C165.525 49.1272 167.332 46.5515 167.841 43.3698C168.274 40.5019 167.484 37.7855 165.893 35.9566C167.408 34.2467 168.717 31.8766 169.15 29.2793C169.724 25.34 168.501 21.628 166.185 19.2688C166.834 16.2818 165.968 13.1975 163.295 10.8491C160.979 8.82534 157.798 7.69983 154.475 7.50503C153.025 4.33413 150.136 1.98572 146.597 1.46625C144.497 1.15241 142.473 1.50954 140.666 2.39696C139.367 1.18487 137.701 0.362386 135.894 0.0918312C132.636 -0.384345 129.53 1.02254 127.366 3.5874C123.394 2.05065 118.47 3.38178 115.147 7.16955C114.357 8.11108 113.697 9.13919 113.199 10.1998C111.598 10.5677 109.964 11.3036 108.567 12.3858C106.565 11.0764 105.31 9.92921 104.639 9.31234C103.871 8.6089 103.871 8.6089 103.827 10.1781C103.773 11.7473 103.676 14.8858 103.059 19.3012C102.442 23.7059 101.295 29.3875 99.2604 35.3073C98.3513 37.9262 97.2799 40.5452 96.0029 43.175ZM106.49 61.1507C104.942 65.3605 102.778 69.9275 99.5742 74.581C100.418 76.3667 101.869 77.8818 104.022 78.7908C104.098 79.1588 104.098 79.4835 104.098 79.8622C104.823 84.44 108.286 87.73 112.344 87.3512C112.702 87.3187 113.07 87.243 113.427 87.1456C114 87.0049 114.509 86.7884 114.942 86.5287C115.018 87.2971 115.158 88.0222 115.375 88.7148C116.673 92.6432 119.855 95.1648 123.545 94.8185C124.92 94.6886 126.218 94.1584 127.301 93.3359C127.658 93.0653 128.026 92.7406 128.318 92.4052C128.61 92.7406 128.967 93.0437 129.335 93.3142C131.002 94.6778 133.091 95.4137 135.407 95.2622C137.506 95.1215 139.313 94.2125 140.753 92.838C141.045 92.5567 141.326 92.2645 141.543 91.929C141.835 92.0264 142.192 92.1346 142.484 92.1995C143.209 92.3619 144.075 92.4268 144.865 92.3727C147.83 92.1671 150.363 90.4463 151.737 87.9681C151.878 87.6975 152.029 87.4378 152.17 87.1456C152.387 87.059 152.679 86.9616 152.96 86.8534C156.499 85.3816 159.324 81.702 159.973 77.0809C160.341 74.6351 160.07 72.2434 159.291 70.198C150.612 71.2694 128.913 68.0227 125.515 67.1894C119.119 65.631 112.518 63.932 106.49 61.1507ZM109.109 52.2656C114.65 54.6249 121.165 56.259 126.489 57.5685C141.575 61.2805 155.125 62.5575 162.235 61.3563C162.657 60.4256 163.09 59.2784 163.241 58.1745C163.75 54.9604 162.884 51.9301 161.142 49.9497C163.458 48.7809 165.33 46.2377 165.839 43.0451C166.271 40.069 165.406 37.2877 163.739 35.4696C164.172 35.1449 164.529 34.777 164.973 34.3657C166.206 32.9805 167.072 31.1299 167.429 29.0087C167.862 25.8054 166.921 22.786 165.049 20.8813C164.691 20.535 164.323 20.2211 163.891 19.9506C164.031 19.6692 164.107 19.3986 164.183 19.1172C164.756 16.574 163.966 13.9442 161.65 11.9421C159.702 10.2106 157.018 9.25823 154.129 9.08508C153.837 9.06343 153.48 9.06343 153.187 9.06343C153.047 8.82534 152.971 8.58725 152.83 8.35999C151.672 5.73019 149.291 3.7822 146.326 3.33849C144.595 3.08958 142.852 3.38178 141.413 4.11769C141.056 4.30167 140.688 4.50729 140.331 4.73455C140.114 4.44235 139.822 4.16098 139.541 3.90124C138.458 2.9056 137.16 2.2238 135.634 1.99654C132.961 1.59612 130.353 2.76491 128.545 4.88606C128.253 5.23237 128.037 5.61115 127.755 6.00075C127.398 5.75184 126.965 5.53539 126.522 5.36224C123.264 4.09604 119.217 5.17826 116.543 8.29505C115.818 9.06343 115.31 9.91839 114.877 10.7842C114.736 11.1088 114.585 11.4335 114.52 11.769C114.163 11.8123 113.795 11.8664 113.437 11.953C112.323 12.2019 111.165 12.6997 110.18 13.349C112.626 14.7667 115.743 16.2277 117.799 17.2017C120.061 18.2731 121.067 18.7385 121.565 18.9766C122.063 19.2147 122.063 19.2146 120.894 20.5458C119.725 21.8769 117.377 24.55 115.472 28.5975C113.557 32.645 112.085 38.0777 110.948 43.3698C110.321 46.3134 109.79 49.2462 109.109 52.2656Z" fill="#1A1A18"/>
<path fill-rule="evenodd" clip-rule="evenodd" d="M160.635 33.121C160.96 31.6925 159.542 30.8051 158.428 31.66C158.157 31.8657 157.908 32.2553 157.573 32.5366C156.22 33.6838 153.579 33.2834 152.497 31.4977C152.237 31.0756 151.848 29.5822 151.285 29.4631C149.478 29.0627 149.023 30.6211 149.878 32.5258C150.733 34.4197 152.216 35.253 154.304 35.8158C157.237 36.595 160.354 34.3656 160.635 33.121Z" fill="#020203"/>
<path fill-rule="evenodd" clip-rule="evenodd" d="M147.828 39.4413C147.092 42.7097 142.828 41.5084 143.477 38.6189C143.964 36.4652 146.594 36.5518 147.449 37.8938C147.687 38.2834 147.947 38.8678 147.828 39.4413Z" fill="#F9C188"/>
<path fill-rule="evenodd" clip-rule="evenodd" d="M160.253 39.0085C163.391 39.1275 164.268 42.2443 162.211 43.1858C162.666 43.7702 163.142 44.1165 163.088 45.0256C162.926 47.4389 158.921 47.8285 158.997 46.6814C159.084 45.4368 161.227 46.7355 161.356 44.8633C161.443 43.5321 159.159 44.2464 159.235 43.0668C159.246 42.8936 159.506 42.6988 159.657 42.6231C160.069 42.4391 160.047 42.5798 160.566 42.4824C161.865 42.2659 161.962 40.7292 160.707 40.4045C160.707 40.4045 158.651 40.134 159.711 39.2357C159.809 39.16 160.144 38.9976 160.253 39.0085Z" fill="#020203"/>
<path fill-rule="evenodd" clip-rule="evenodd" d="M110.471 137.566C110.471 138.432 111.185 139.146 112.051 139.146C112.917 139.146 113.631 138.432 113.631 137.566V132.047C113.631 130.737 114.692 129.688 115.99 129.688C117.3 129.688 118.349 130.748 118.349 132.047V137.566C118.349 138.432 119.064 139.146 119.93 139.146C120.795 139.146 121.51 138.432 121.51 137.566V132.047C121.51 128.995 119.042 126.528 115.99 126.528C114.41 126.528 113.036 127.166 112.051 128.173C111.044 127.166 109.692 126.528 108.112 126.528C107.224 126.528 106.413 126.744 105.644 127.123C105.32 126.657 104.778 126.333 104.162 126.333C103.177 126.333 102.387 127.123 102.387 128.108C102.387 128.724 102.679 129.266 103.155 129.59C102.787 130.359 102.592 131.17 102.592 132.058V137.577C102.592 138.443 103.307 139.157 104.172 139.157C105.038 139.157 105.752 138.443 105.752 137.577V132.058C105.752 130.748 106.813 129.698 108.112 129.698C109.421 129.698 110.471 130.759 110.471 132.058V137.566Z" fill="#A3CCEE"/>
</svg>
