<svg width="205" height="139" viewBox="0 0 205 139" fill="none" xmlns="http://www.w3.org/2000/svg">
<mask id="path-1-inside-1" fill="white">
<path fill-rule="evenodd" clip-rule="evenodd" d="M22.5168 129.898C23.3206 131.288 25.2174 131.893 26.7252 131.024C28.1171 130.222 28.7231 128.33 27.8523 126.825L22.5604 117.679C21.2876 115.479 22.0227 112.74 24.2265 111.471C26.4303 110.201 29.175 110.935 30.4477 113.135L35.7397 122.281C36.5435 123.67 38.4403 124.275 39.9481 123.407C41.34 122.605 41.946 120.712 41.0752 119.207L35.7833 110.061C32.8359 104.968 26.4317 103.254 21.3281 106.194C18.6603 107.731 17.0594 110.043 16.3243 112.782C13.7627 112.096 10.773 112.275 8.10517 113.812C6.5973 114.68 5.52237 115.763 4.58141 117.077C3.53255 116.6 2.45266 116.605 1.40875 117.206C-0.215118 118.142 -0.75416 120.15 0.183652 121.771C0.786532 122.813 1.7864 123.472 2.86628 123.467C3.02318 125.075 3.47904 126.665 4.28288 128.054L9.57482 137.2C10.3787 138.589 12.2754 139.194 13.7833 138.325C15.1752 137.524 15.7812 135.631 14.9104 134.126L9.61845 124.98C8.34571 122.78 9.08076 120.042 11.2846 118.772C13.4884 117.502 16.2331 118.237 17.5058 120.436L22.8647 129.698L22.5168 129.898ZM38.028 110.466C41.3773 116.255 48.8794 118.261 54.6789 114.92C60.4785 111.579 62.4876 104.093 59.1383 98.3049C55.7889 92.5164 48.2869 90.5095 42.4874 93.8505C36.6879 97.1915 34.6787 104.678 38.028 110.466ZM43.2476 107.459C41.5729 104.565 42.553 100.913 45.4528 99.2427C48.3525 97.5722 52.0121 98.5512 53.6867 101.445C55.3614 104.34 54.3813 107.991 51.4816 109.662C48.5818 111.332 44.9223 110.353 43.2476 107.459ZM56.439 89.3635C57.1089 90.5212 58.4077 91.1622 59.7196 91.0239C59.6625 93.0634 60.2033 95.0672 61.3421 97.0353L65.8972 104.908C66.7011 106.297 68.5978 106.902 70.1057 106.033C71.4975 105.232 72.1036 103.339 71.2327 101.834L66.6776 93.9616C65.003 91.0674 65.9831 87.4156 68.8828 85.7451C71.7826 84.0746 75.4421 85.0536 77.1168 87.9478L81.6719 95.8201C82.4757 97.2094 84.3725 97.8146 85.8804 96.9459C87.2723 96.1441 87.8783 94.2514 87.0075 92.7464L82.4524 84.8741C79.103 79.0856 71.601 77.0787 65.8014 80.4197C63.8296 81.5557 62.5407 83.07 61.3857 84.8158C60.3189 84.0412 58.873 83.948 57.7131 84.6162C56.0403 85.7342 55.5012 87.7427 56.439 89.3635ZM83.9603 84.0054C87.3096 89.7939 94.8116 91.8008 100.611 88.4598C106.411 85.1188 108.42 77.6327 105.07 71.8442C101.721 66.0557 94.2191 64.0489 88.4196 67.3899C82.6201 70.7308 80.6109 78.217 83.9603 84.0054ZM89.1798 80.9985C87.5052 78.1043 88.4852 74.4525 91.385 72.782C94.2848 71.1115 97.9443 72.0905 99.619 74.9847C101.294 77.879 100.314 81.5307 97.4138 83.2012C94.581 84.9875 90.8545 83.8927 89.1798 80.9985ZM112.328 74.7641C110.936 75.5659 110.33 77.4586 111.2 78.9636C112.004 80.3529 113.901 80.9581 115.409 80.0895L124.572 74.8107C128.168 72.7393 129.509 68.1077 127.365 64.4031C125.289 60.8142 120.647 59.4748 116.936 61.613L111.716 64.6199C110.904 65.0876 110.105 64.7761 109.703 64.0815C109.234 63.2711 109.546 62.4739 110.242 62.073L118.13 57.5292C119.522 56.7274 120.128 54.8347 119.257 53.3297C118.453 51.9404 116.556 51.3352 115.048 52.2038L107.161 56.7476C103.565 58.819 102.224 63.4505 104.368 67.1552C106.444 70.744 111.086 72.0835 114.798 69.9453L120.017 66.9384C120.829 66.4707 121.628 66.7822 122.03 67.4768C122.499 68.2872 122.187 69.0844 121.491 69.4853L112.328 74.7641ZM143.084 39.449C142.28 38.0598 140.383 37.4545 138.875 38.3232C137.484 39.125 136.878 41.0177 137.748 42.5227L142.303 50.395C143.978 53.2892 142.998 56.941 140.098 58.6115C137.199 60.282 133.539 59.303 131.864 56.4088L127.309 48.5365C126.505 47.1473 124.609 46.542 123.101 47.4107C121.709 48.2125 121.103 50.1052 121.974 51.6102L126.529 59.4825C129.878 65.271 137.38 67.2779 143.18 63.9369C145.036 62.8678 146.507 61.4024 147.595 59.5408C148.662 60.3154 150.108 60.4087 151.268 59.7405C152.892 58.805 153.431 56.7965 152.493 55.1758C151.823 54.0181 150.524 53.377 149.213 53.5153C149.087 51.4268 148.729 49.472 147.59 47.5039L142.968 39.5158L143.084 39.449ZM155.94 49.6398C154.548 50.4416 153.942 52.3344 154.813 53.8394C155.617 55.2286 157.513 55.8338 159.021 54.9652L168.185 49.6864C171.78 47.615 173.121 42.9834 170.978 39.2788C168.901 35.6899 164.26 34.3505 160.548 36.4887L155.329 39.4956C154.517 39.9634 153.718 39.6518 153.316 38.9572C152.847 38.1468 153.159 37.3496 153.855 36.9487L161.742 32.4049C163.134 31.6031 163.74 29.7104 162.869 28.2054C162.065 26.8161 160.169 26.2109 158.661 27.0795L150.773 31.6233C147.178 33.6947 145.837 38.3263 147.98 42.0309C150.057 45.6197 154.698 46.9592 158.41 44.821L163.63 41.8141C164.441 41.3464 165.24 41.6579 165.642 42.3525C166.111 43.1629 165.799 43.9601 165.103 44.361L155.94 49.6398ZM191.947 21.7961C188.598 16.0076 181.096 14.0007 175.296 17.3417C173.325 18.4776 171.853 19.943 170.881 21.7378L166.996 15.0232C166.192 13.634 164.295 13.0287 162.787 13.8974C161.395 14.6992 160.789 16.5919 161.66 18.0969L175.325 41.7138C176.129 43.1031 178.026 43.7083 179.534 42.8397C180.926 42.0378 181.532 40.1451 180.661 38.6401L176.106 30.7678C174.431 27.8736 175.411 24.2218 178.311 22.5513C181.211 20.8808 184.87 21.8598 186.545 24.754L191.1 32.6263C191.904 34.0156 193.801 34.6208 195.308 33.7522C196.7 32.9503 197.306 31.0576 196.435 29.5526L191.947 21.7961ZM195.28 9.38002C194.476 7.99079 192.579 7.38556 191.071 8.25422C189.679 9.05606 189.073 10.9487 189.944 12.4537L199.054 28.1984C199.858 29.5876 201.755 30.1929 203.263 29.3242C204.655 28.5223 205.261 26.6296 204.39 25.1246L195.28 9.38002ZM185.76 5.75702C186.698 7.37779 188.71 7.91622 190.334 6.98075C191.958 6.04527 192.497 4.03679 191.559 2.41602C190.622 0.79525 188.609 0.256811 186.985 1.19229C185.361 2.12776 184.822 4.13625 185.76 5.75702Z"/>
</mask>
<path fill-rule="evenodd" clip-rule="evenodd" d="M22.5168 129.898C23.3206 131.288 25.2174 131.893 26.7252 131.024C28.1171 130.222 28.7231 128.33 27.8523 126.825L22.5604 117.679C21.2876 115.479 22.0227 112.74 24.2265 111.471C26.4303 110.201 29.175 110.935 30.4477 113.135L35.7397 122.281C36.5435 123.67 38.4403 124.275 39.9481 123.407C41.34 122.605 41.946 120.712 41.0752 119.207L35.7833 110.061C32.8359 104.968 26.4317 103.254 21.3281 106.194C18.6603 107.731 17.0594 110.043 16.3243 112.782C13.7627 112.096 10.773 112.275 8.10517 113.812C6.5973 114.68 5.52237 115.763 4.58141 117.077C3.53255 116.6 2.45266 116.605 1.40875 117.206C-0.215118 118.142 -0.75416 120.15 0.183652 121.771C0.786532 122.813 1.7864 123.472 2.86628 123.467C3.02318 125.075 3.47904 126.665 4.28288 128.054L9.57482 137.2C10.3787 138.589 12.2754 139.194 13.7833 138.325C15.1752 137.524 15.7812 135.631 14.9104 134.126L9.61845 124.98C8.34571 122.78 9.08076 120.042 11.2846 118.772C13.4884 117.502 16.2331 118.237 17.5058 120.436L22.8647 129.698L22.5168 129.898ZM38.028 110.466C41.3773 116.255 48.8794 118.261 54.6789 114.92C60.4785 111.579 62.4876 104.093 59.1383 98.3049C55.7889 92.5164 48.2869 90.5095 42.4874 93.8505C36.6879 97.1915 34.6787 104.678 38.028 110.466ZM43.2476 107.459C41.5729 104.565 42.553 100.913 45.4528 99.2427C48.3525 97.5722 52.0121 98.5512 53.6867 101.445C55.3614 104.34 54.3813 107.991 51.4816 109.662C48.5818 111.332 44.9223 110.353 43.2476 107.459ZM56.439 89.3635C57.1089 90.5212 58.4077 91.1622 59.7196 91.0239C59.6625 93.0634 60.2033 95.0672 61.3421 97.0353L65.8972 104.908C66.7011 106.297 68.5978 106.902 70.1057 106.033C71.4975 105.232 72.1036 103.339 71.2327 101.834L66.6776 93.9616C65.003 91.0674 65.9831 87.4156 68.8828 85.7451C71.7826 84.0746 75.4421 85.0536 77.1168 87.9478L81.6719 95.8201C82.4757 97.2094 84.3725 97.8146 85.8804 96.9459C87.2723 96.1441 87.8783 94.2514 87.0075 92.7464L82.4524 84.8741C79.103 79.0856 71.601 77.0787 65.8014 80.4197C63.8296 81.5557 62.5407 83.07 61.3857 84.8158C60.3189 84.0412 58.873 83.948 57.7131 84.6162C56.0403 85.7342 55.5012 87.7427 56.439 89.3635ZM83.9603 84.0054C87.3096 89.7939 94.8116 91.8008 100.611 88.4598C106.411 85.1188 108.42 77.6327 105.07 71.8442C101.721 66.0557 94.2191 64.0489 88.4196 67.3899C82.6201 70.7308 80.6109 78.217 83.9603 84.0054ZM89.1798 80.9985C87.5052 78.1043 88.4852 74.4525 91.385 72.782C94.2848 71.1115 97.9443 72.0905 99.619 74.9847C101.294 77.879 100.314 81.5307 97.4138 83.2012C94.581 84.9875 90.8545 83.8927 89.1798 80.9985ZM112.328 74.7641C110.936 75.5659 110.33 77.4586 111.2 78.9636C112.004 80.3529 113.901 80.9581 115.409 80.0895L124.572 74.8107C128.168 72.7393 129.509 68.1077 127.365 64.4031C125.289 60.8142 120.647 59.4748 116.936 61.613L111.716 64.6199C110.904 65.0876 110.105 64.7761 109.703 64.0815C109.234 63.2711 109.546 62.4739 110.242 62.073L118.13 57.5292C119.522 56.7274 120.128 54.8347 119.257 53.3297C118.453 51.9404 116.556 51.3352 115.048 52.2038L107.161 56.7476C103.565 58.819 102.224 63.4505 104.368 67.1552C106.444 70.744 111.086 72.0835 114.798 69.9453L120.017 66.9384C120.829 66.4707 121.628 66.7822 122.03 67.4768C122.499 68.2872 122.187 69.0844 121.491 69.4853L112.328 74.7641ZM143.084 39.449C142.28 38.0598 140.383 37.4545 138.875 38.3232C137.484 39.125 136.878 41.0177 137.748 42.5227L142.303 50.395C143.978 53.2892 142.998 56.941 140.098 58.6115C137.199 60.282 133.539 59.303 131.864 56.4088L127.309 48.5365C126.505 47.1473 124.609 46.542 123.101 47.4107C121.709 48.2125 121.103 50.1052 121.974 51.6102L126.529 59.4825C129.878 65.271 137.38 67.2779 143.18 63.9369C145.036 62.8678 146.507 61.4024 147.595 59.5408C148.662 60.3154 150.108 60.4087 151.268 59.7405C152.892 58.805 153.431 56.7965 152.493 55.1758C151.823 54.0181 150.524 53.377 149.213 53.5153C149.087 51.4268 148.729 49.472 147.59 47.5039L142.968 39.5158L143.084 39.449ZM155.94 49.6398C154.548 50.4416 153.942 52.3344 154.813 53.8394C155.617 55.2286 157.513 55.8338 159.021 54.9652L168.185 49.6864C171.78 47.615 173.121 42.9834 170.978 39.2788C168.901 35.6899 164.26 34.3505 160.548 36.4887L155.329 39.4956C154.517 39.9634 153.718 39.6518 153.316 38.9572C152.847 38.1468 153.159 37.3496 153.855 36.9487L161.742 32.4049C163.134 31.6031 163.74 29.7104 162.869 28.2054C162.065 26.8161 160.169 26.2109 158.661 27.0795L150.773 31.6233C147.178 33.6947 145.837 38.3263 147.98 42.0309C150.057 45.6197 154.698 46.9592 158.41 44.821L163.63 41.8141C164.441 41.3464 165.24 41.6579 165.642 42.3525C166.111 43.1629 165.799 43.9601 165.103 44.361L155.94 49.6398ZM191.947 21.7961C188.598 16.0076 181.096 14.0007 175.296 17.3417C173.325 18.4776 171.853 19.943 170.881 21.7378L166.996 15.0232C166.192 13.634 164.295 13.0287 162.787 13.8974C161.395 14.6992 160.789 16.5919 161.66 18.0969L175.325 41.7138C176.129 43.1031 178.026 43.7083 179.534 42.8397C180.926 42.0378 181.532 40.1451 180.661 38.6401L176.106 30.7678C174.431 27.8736 175.411 24.2218 178.311 22.5513C181.211 20.8808 184.87 21.8598 186.545 24.754L191.1 32.6263C191.904 34.0156 193.801 34.6208 195.308 33.7522C196.7 32.9503 197.306 31.0576 196.435 29.5526L191.947 21.7961ZM195.28 9.38002C194.476 7.99079 192.579 7.38556 191.071 8.25422C189.679 9.05606 189.073 10.9487 189.944 12.4537L199.054 28.1984C199.858 29.5876 201.755 30.1929 203.263 29.3242C204.655 28.5223 205.261 26.6296 204.39 25.1246L195.28 9.38002ZM185.76 5.75702C186.698 7.37779 188.71 7.91622 190.334 6.98075C191.958 6.04527 192.497 4.03679 191.559 2.41602C190.622 0.79525 188.609 0.256811 186.985 1.19229C185.361 2.12776 184.822 4.13625 185.76 5.75702Z" stroke="white" stroke-opacity="0.25" stroke-width="2" mask="url(#path-1-inside-1)"/>
</svg>
