<svg width="42" height="53" viewBox="0 0 42 53" fill="none" xmlns="http://www.w3.org/2000/svg">
<path fill-rule="evenodd" clip-rule="evenodd" d="M41.5726 24.5634L35.0635 17.7218L0.570312 18.672L7.88705 25.7987L41.5726 24.5634Z" fill="#ECECED"/>
<path fill-rule="evenodd" clip-rule="evenodd" d="M6.79463 18.767C6.69961 19.052 6.84214 19.5272 6.93716 19.9548C7.03219 20.4299 7.03219 20.8575 7.0797 21.2851C7.0797 21.7127 7.0797 22.1403 7.03219 22.4253C6.98468 22.7104 6.84214 22.8529 6.69961 23.0905C6.55707 23.3281 6.46205 23.5656 6.41454 23.8507C6.36703 24.0882 6.36703 24.3258 6.41454 24.6109C6.46205 24.8959 6.50956 25.2285 6.84214 25.4186C7.17472 25.6086 7.83988 25.6561 8.45753 25.6086C9.07517 25.5136 9.69282 25.3235 10.0254 24.5158C10.358 23.7081 10.358 22.2828 10.263 21.3801C10.1679 20.4774 9.97789 20.0973 9.64531 19.7647C9.31273 19.4321 8.74259 19.0996 8.3625 18.862C7.98241 18.6244 7.69734 18.4819 7.41228 18.4344C7.17472 18.3869 6.88965 18.4819 6.79463 18.767Z" fill="#C5C6C6"/>
<path fill-rule="evenodd" clip-rule="evenodd" d="M7.50696 25.2761L0.570312 18.672V44.9933L7.50696 51.9774V25.2761Z" fill="#ECECED"/>
<path fill-rule="evenodd" clip-rule="evenodd" d="M9.50249 9.02718C8.21969 8.83713 7.79208 8.55206 7.45951 8.40952C7.17444 8.26699 6.98439 8.31451 6.79435 8.50455C6.6043 8.74211 6.41426 9.12219 6.31923 9.59731C6.22421 10.0724 6.12919 10.6426 6.1767 11.3077C6.1767 11.9729 6.27172 12.7806 6.55679 13.8733C6.84186 15.0136 7.41199 16.4865 7.69706 17.8168C7.98213 19.1471 8.02964 20.3824 7.93462 21.3326C7.88711 22.3303 7.69706 23.0905 7.74457 23.7082C7.79208 24.3258 7.98213 24.8484 8.50475 25.1335C8.97987 25.4661 9.78756 25.6086 11.4505 25.6086C13.1134 25.6086 15.7265 25.4661 18.3871 25.3236C21.0477 25.181 23.7559 25.086 26.5115 24.991C29.2672 24.8959 32.0704 24.8009 33.9233 24.7059C35.7762 24.6584 36.679 24.6109 37.2491 24.5159C37.7717 24.4208 37.9618 24.2308 38.0568 23.9932C38.1518 23.7557 38.1043 23.5181 38.0568 23.2331C38.0093 22.948 37.8667 22.5679 37.8667 21.7127C37.8192 20.8575 37.9143 19.5272 38.0568 18.4344C38.2468 17.2941 38.5319 16.3914 38.8645 15.5362C39.1971 14.681 39.5296 13.9684 39.6722 13.2557C39.8147 12.543 39.7672 11.8779 39.7197 11.3077C39.6722 10.7376 39.6247 10.215 39.5296 9.69233C39.4346 9.16971 39.3396 8.64708 39.1495 8.36201C38.9595 8.07694 38.7219 8.07695 38.4844 8.21948C38.2468 8.36201 38.0568 8.59958 37.2491 8.78962C36.4414 8.97967 35.0636 9.02717 31.2627 9.07468C27.4618 9.12219 21.2853 9.16971 17.1043 9.16971C12.9708 9.26473 10.8328 9.21722 9.50249 9.02718Z" fill="#ED694A"/>
<path fill-rule="evenodd" clip-rule="evenodd" d="M39.1966 27.7466C39.1966 27.509 39.054 27.3665 38.8165 27.3665H37.3436C37.1061 27.3665 36.916 27.1764 36.916 26.9389C36.916 26.7013 37.1061 26.5113 37.3436 26.5113C38.1038 26.5113 38.864 26.4637 39.6242 26.4637C39.8617 26.4637 40.0518 26.6538 40.0518 26.8913L40.0993 29.0769C40.0993 29.3144 39.9092 29.5045 39.6717 29.5045C39.4341 29.5045 39.2441 29.3144 39.2441 29.0769L39.1966 27.7466Z" fill="white"/>
<path fill-rule="evenodd" clip-rule="evenodd" d="M37.6283 9.88236C37.5808 9.50227 37.5808 9.26471 37.6758 9.12217C37.7233 8.97964 37.8659 8.93213 38.0084 9.12217C38.1509 9.31222 38.2935 9.69231 38.3885 10.1199C38.4835 10.5475 38.531 11.0226 38.531 11.5453C38.4835 12.0204 38.3885 12.543 38.1985 13.0181C38.0084 13.4932 37.7233 13.9208 37.5808 14.2534C37.4383 14.586 37.4383 14.7285 37.5808 15.1561C37.7233 15.5362 38.0084 16.1539 38.1509 16.819C38.2935 17.4367 38.246 18.1018 38.1509 18.9095C38.0559 19.7172 37.9134 20.7149 37.9134 21.5226C37.9134 22.3303 38.0559 22.948 37.9609 23.4231C37.8659 23.8982 37.4858 24.2308 37.2482 24.2308C36.9632 24.2308 36.8206 23.8982 36.5831 23.4706C36.3455 23.043 36.108 22.5204 35.8704 22.1878C35.6328 21.8552 35.4903 21.6652 35.4428 21.5226C35.3953 21.3326 35.5378 21.1901 35.7279 20.905C35.9654 20.6199 36.298 20.2873 36.5831 19.8122C36.9157 19.3371 37.2007 18.7195 37.2957 18.1018C37.3908 17.4842 37.2957 16.819 37.1057 16.2964C36.9157 15.7738 36.6781 15.3937 36.4881 15.0611C36.298 14.7285 36.2505 14.5385 36.393 14.2534C36.5356 13.9683 36.9632 13.6833 37.2007 13.2081C37.4858 12.733 37.6283 12.1154 37.6758 11.4977C37.7709 10.8326 37.6758 10.2624 37.6283 9.88236Z" fill="#B94107"/>
<path fill-rule="evenodd" clip-rule="evenodd" d="M39.7194 9.83484V10.5475C39.4344 10.6425 39.1018 10.6901 38.7692 10.6901C38.3891 10.6901 38.0566 10.69 37.7715 10.6425V9.97738C38.0566 10.0249 38.3891 10.0249 38.7692 10.0249C39.1018 9.97737 39.4344 9.92986 39.7194 9.83484Z" fill="#FAC18A"/>
<path fill-rule="evenodd" clip-rule="evenodd" d="M39.8138 11.7828V12.4955C39.4812 12.5905 39.1011 12.638 38.721 12.638C38.3409 12.638 37.9608 12.5905 37.6758 12.4955L37.8183 11.8304C38.1034 11.8779 38.436 11.9254 38.7685 11.9254C39.1486 11.8779 39.5287 11.8303 39.8138 11.7828Z" fill="#FAC18A"/>
<path fill-rule="evenodd" clip-rule="evenodd" d="M39.5297 13.7308L39.4347 14.4435C39.1496 14.491 38.8171 14.5385 38.4845 14.5385C37.7243 14.5385 37.0591 14.3484 36.7266 14.1109L36.9641 13.5883C37.2967 13.7308 37.8668 13.8733 38.437 13.8733C38.8646 13.8258 39.2447 13.7783 39.5297 13.7308Z" fill="#FAC18A"/>
<path fill-rule="evenodd" clip-rule="evenodd" d="M38.9116 15.7738L38.8166 16.4864C38.7215 16.4864 38.579 16.4864 38.484 16.4864C38.0089 16.4864 37.5813 16.4389 37.2487 16.3439L37.2012 15.6312C37.5338 15.7262 38.0089 15.8213 38.484 15.8213C38.6265 15.7738 38.769 15.7738 38.9116 15.7738Z" fill="#FAC18A"/>
<path fill-rule="evenodd" clip-rule="evenodd" d="M35.4908 21L35.1582 21.6177C35.4908 21.7602 35.9659 21.8077 36.4885 21.8077C36.9161 21.8077 37.3437 21.7602 37.6288 21.6652L37.6763 20.9525C37.3437 21.0475 36.9161 21.1426 36.441 21.1426C36.1559 21.0951 35.7758 21.0951 35.4908 21Z" fill="#ED6C35"/>
<path fill-rule="evenodd" clip-rule="evenodd" d="M38.4845 10.6901C38.2469 10.6901 38.0094 10.6901 37.7718 10.6426V9.97742C37.9619 10.0249 38.1519 10.0249 38.3419 10.0249C38.3419 10.0724 38.3895 10.1199 38.3895 10.1675C38.3895 10.3575 38.437 10.5476 38.4845 10.6901ZM38.4845 11.8779C38.437 12.1154 38.437 12.353 38.3419 12.5905C38.1044 12.5905 37.8668 12.543 37.6768 12.4955L37.8193 11.8304C38.0094 11.8304 38.2469 11.8779 38.4845 11.8779ZM37.4867 14.4435C37.1542 14.3485 36.9166 14.2534 36.7266 14.1109L36.9641 13.5883C37.1542 13.6833 37.4392 13.7783 37.7718 13.8258C37.6768 14.0159 37.5818 14.1584 37.5343 14.3009C37.5343 14.3484 37.4867 14.396 37.4867 14.4435ZM38.0569 16.4389C37.7718 16.3914 37.4867 16.3439 37.2967 16.2964L37.2492 15.5837C37.4392 15.6313 37.6293 15.6788 37.8193 15.7263C37.8668 15.9638 37.9619 16.2014 38.0569 16.4389Z" fill="#ED6C35"/>
<path fill-rule="evenodd" clip-rule="evenodd" d="M8.35975 9.88236C8.40726 9.50227 8.40726 9.26471 8.31223 9.12217C8.26472 8.97964 8.12219 8.93213 7.97965 9.12217C7.83712 9.31222 7.69459 9.69231 7.59956 10.1199C7.50454 10.5475 7.45703 11.0226 7.45703 11.5453C7.50454 12.0204 7.59957 12.543 7.78961 13.0181C7.97966 13.4932 8.26472 13.9208 8.40726 14.2534C8.54979 14.586 8.54979 14.7285 8.40726 15.1561C8.26472 15.5362 7.97966 16.1539 7.83712 16.819C7.69459 17.4367 7.7421 18.1018 7.83712 18.9095C7.93214 19.7172 8.07468 20.7149 8.07468 21.5226C8.07468 22.3303 7.93214 22.948 8.02717 23.4231C8.12219 23.8982 8.50228 24.2308 8.73984 24.2308C9.0249 24.2308 9.16744 23.8982 9.40499 23.4706C9.64255 23.043 9.88011 22.5204 10.1177 22.1878C10.3552 21.8552 10.4978 21.6652 10.5453 21.5226C10.5928 21.3326 10.4502 21.1901 10.2602 20.905C10.0226 20.6199 9.69006 20.2873 9.40499 19.8122C9.07241 19.3371 8.78735 18.7195 8.69232 18.1018C8.5973 17.4842 8.69233 16.819 8.88237 16.2964C9.07242 15.7738 9.30997 15.3937 9.50002 15.0611C9.69006 14.7285 9.73757 14.5385 9.59504 14.2534C9.45251 13.9683 9.0249 13.6833 8.78735 13.2081C8.50228 12.733 8.35975 12.1154 8.31223 11.4977C8.26472 10.8326 8.35975 10.2624 8.35975 9.88236Z" fill="#B94107"/>
<path fill-rule="evenodd" clip-rule="evenodd" d="M6.31641 9.83484V10.5475C6.60147 10.6425 6.93405 10.6901 7.26663 10.6901C7.64672 10.6901 7.9793 10.69 8.26437 10.6425V9.97738C7.9793 10.0249 7.64672 10.0249 7.26663 10.0249C6.93405 9.97737 6.60147 9.92986 6.31641 9.83484Z" fill="#FAC18A"/>
<path fill-rule="evenodd" clip-rule="evenodd" d="M6.22266 11.7828V12.4955C6.55524 12.5905 6.88782 12.638 7.31542 12.638C7.69551 12.638 8.0756 12.5905 8.36066 12.4955L8.21813 11.8304C7.93306 11.8779 7.60048 11.9254 7.2679 11.9254C6.88781 11.8779 6.50772 11.8303 6.22266 11.7828Z" fill="#FAC18A"/>
<path fill-rule="evenodd" clip-rule="evenodd" d="M6.50781 13.7308L6.60283 14.4435C6.8879 14.491 7.22048 14.5385 7.55306 14.5385C8.31324 14.5385 8.9784 14.3484 9.31098 14.1109L9.07342 13.5883C8.74084 13.7308 8.17071 13.8733 7.60057 13.8733C7.17297 13.8258 6.79288 13.7783 6.50781 13.7308Z" fill="#FAC18A"/>
<path fill-rule="evenodd" clip-rule="evenodd" d="M7.125 15.7738L7.22002 16.4864C7.31505 16.4864 7.45758 16.4864 7.5526 16.4864C8.02772 16.4864 8.45532 16.4389 8.7879 16.3439L8.83541 15.6312C8.50283 15.7262 8.02772 15.8213 7.5526 15.8213C7.41007 15.7738 7.26753 15.7738 7.125 15.7738Z" fill="#FAC18A"/>
<path fill-rule="evenodd" clip-rule="evenodd" d="M10.5468 21L10.8794 21.6177C10.5468 21.7602 10.0717 21.8077 9.54911 21.8077C9.12151 21.8077 8.69391 21.7602 8.40884 21.6652L8.36133 20.9525C8.69391 21.0475 9.12151 21.1426 9.59662 21.1426C9.88169 21.0951 10.2143 21.0951 10.5468 21Z" fill="#ED6C35"/>
<path fill-rule="evenodd" clip-rule="evenodd" d="M7.55273 10.6901C7.79029 10.6901 8.02785 10.6901 8.2654 10.6426V9.97742C8.07536 10.0249 7.88531 10.0249 7.69527 10.0249C7.69527 10.0724 7.64776 10.1199 7.64776 10.1675C7.60024 10.3575 7.60025 10.5476 7.55273 10.6901ZM7.55273 11.8779C7.60025 12.1154 7.60025 12.353 7.69527 12.5905C7.93282 12.5905 8.17038 12.543 8.36043 12.4955L8.21789 11.8304C8.02785 11.8304 7.79029 11.8779 7.55273 11.8779ZM8.55047 14.4435C8.88305 14.3485 9.12061 14.2534 9.31065 14.1109L9.07309 13.5883C8.88305 13.6833 8.59798 13.7783 8.2654 13.8258C8.36043 14.0159 8.45545 14.1584 8.50296 14.3009C8.50296 14.3484 8.55047 14.396 8.55047 14.4435ZM7.98034 16.4389C8.2654 16.3914 8.55047 16.3439 8.74052 16.2964L8.78803 15.5837C8.59798 15.6313 8.40794 15.6788 8.21789 15.7263C8.17038 15.9638 8.07536 16.2014 7.98034 16.4389Z" fill="#ED6C35"/>
<path fill-rule="evenodd" clip-rule="evenodd" d="M10.8316 27.0814C10.499 26.7489 9.97641 26.4638 9.64383 26.0362C9.31125 25.5611 9.12121 24.9434 9.0737 24.4208C9.0737 23.8982 9.16872 23.4706 9.31125 23.138C9.45379 22.8054 9.59632 22.6154 9.78637 22.3778C9.97641 22.1402 10.214 21.9027 10.404 21.7126C10.5941 21.5226 10.7841 21.4276 10.7366 21.2375C10.6891 21.0475 10.3565 20.8574 9.97641 20.3823C9.59632 19.9072 9.12121 19.147 8.88365 18.4819C8.59858 17.8167 8.55107 17.1991 8.6461 16.5814C8.74112 15.9638 9.02619 15.3936 9.26374 15.0135C9.5013 14.6335 9.64383 14.4909 9.64383 14.3009C9.64383 14.1108 9.45379 13.9208 9.21623 13.6357C8.97868 13.3507 8.69361 12.9706 8.55107 12.6855C8.36103 12.4004 8.31352 12.1629 8.26601 11.7828C8.17098 11.4027 8.12347 10.8801 8.17098 10.4525C8.21849 9.97736 8.45605 9.54975 8.6461 9.16966C8.83614 8.78957 8.93116 8.45699 9.21623 8.12441C9.5013 7.79183 9.97641 7.50676 10.3565 7.17418C10.7366 6.8416 11.0217 6.414 11.1642 6.03391C11.3067 5.65382 11.2592 5.27373 11.4493 4.84613C11.5918 4.46604 11.9719 4.03844 12.3045 3.70586C12.6846 3.37328 13.0646 3.13573 13.5398 2.99319C13.9674 2.85066 14.49 2.80315 15.0601 2.75563C15.6303 2.66061 16.2954 2.5656 16.723 2.37555C17.1506 2.1855 17.3407 1.90043 17.6257 1.61537C17.9108 1.3303 18.3384 1.09274 18.7185 0.902697C19.1461 0.66514 19.5262 0.475098 20.1438 0.475098C20.7615 0.475098 21.5692 0.617623 22.0443 0.807668C22.5194 0.997713 22.7094 1.14025 23.042 1.14025C23.3746 1.14025 23.8022 0.950202 24.3248 0.807668C24.8475 0.665134 25.4176 0.570112 25.9402 0.570112C26.4628 0.570112 26.938 0.617629 27.3656 0.902697C27.7932 1.18776 28.1732 1.61536 28.4108 1.94794C28.6484 2.28052 28.7434 2.47057 28.8859 2.56559C29.0285 2.66062 29.2185 2.66061 29.5986 2.66061C29.9787 2.66061 30.5963 2.6131 31.1665 2.75563C31.7366 2.89817 32.2592 3.18324 32.7343 3.56333C33.1619 3.94342 33.542 4.41853 33.8271 4.89364C34.1122 5.41627 34.2547 5.93889 34.4922 6.22395C34.7298 6.50902 35.0149 6.60405 35.4425 6.84161C35.8701 7.07917 36.3927 7.50676 36.7728 7.93436C37.1529 8.36197 37.3904 8.78957 37.533 9.21718C37.6755 9.64478 37.7705 10.1199 37.7705 10.595C37.818 11.0701 37.7705 11.5452 37.723 11.9253C37.6755 12.3054 37.533 12.5905 37.2954 12.9706C37.0579 13.3031 36.6778 13.7308 36.5827 14.2059C36.5352 14.681 36.7728 15.1561 36.9628 15.6787C37.1529 16.2013 37.2479 16.724 37.2954 17.1991C37.2954 17.6742 37.2479 18.1493 37.1529 18.5769C37.0579 19.0045 36.8678 19.4321 36.5352 19.8597C36.2027 20.2873 35.6325 20.7624 35.5375 21.1425C35.4425 21.5226 35.7751 21.9027 36.0601 22.3303C36.3452 22.7579 36.6303 23.328 37.0103 24.0882C37.3429 24.8484 37.7705 25.8461 37.438 26.6538C37.0579 27.4615 35.9176 28.1267 32.3542 28.5068C28.8384 28.8394 22.8995 28.8869 19.0036 28.7443C15.1076 28.6018 13.3022 28.3167 12.3045 27.9841C11.3067 27.7466 11.1642 27.414 10.8316 27.0814Z" fill="white"/>
<path fill-rule="evenodd" clip-rule="evenodd" d="M32.1165 20.0498C32.4491 20.5249 33.0192 20.8575 33.6844 20.8575C34.7296 20.8575 35.5373 20.0973 35.5373 19.1471C35.5373 18.577 35.2048 18.0543 34.7296 17.7218C34.9197 18.0068 35.0147 18.2919 35.0147 18.6245C35.0147 19.5747 34.1595 20.3349 33.1618 20.3349C32.7817 20.3824 32.4016 20.2399 32.1165 20.0498ZM13.9197 12.0679C13.5871 12.543 13.017 12.8756 12.3518 12.8756C11.3066 12.8756 10.4989 12.1154 10.4989 11.1652C10.4989 10.5951 10.8315 10.0724 11.3066 9.73987C11.1165 10.0249 11.0215 10.31 11.0215 10.6426C11.0215 11.5928 11.8767 12.353 12.8744 12.353C13.2545 12.353 13.6346 12.258 13.9197 12.0679ZM18.6708 22.0453C18.3858 22.4729 17.8631 22.758 17.293 22.758C16.3903 22.758 15.6776 22.0928 15.6776 21.2376C15.6776 20.715 15.9627 20.2874 16.3903 20.0023C16.2477 20.2399 16.1527 20.4774 16.1527 20.81C16.1527 21.6652 16.8654 22.3304 17.7681 22.3304C18.1007 22.3304 18.4333 22.2353 18.6708 22.0453ZM21.2364 19.3371L21.379 19.1471C22.3767 17.8168 24.2296 18.2919 24.0396 20.5249C26.0351 20.3824 26.5577 17.0566 26.2251 16.3439C25.655 15.2037 22.3767 15.1561 21.0939 15.9638C20.5238 16.3439 20.5713 16.819 20.6663 17.6267C20.8088 18.3394 20.9514 18.862 21.2364 19.3371ZM21.2364 19.3371L21.379 19.1471C22.3767 17.8168 24.2296 18.2919 24.0396 20.5249C23.4695 20.6675 22.6618 20.5249 22.2817 20.3349C21.8066 20.0973 21.5215 19.7647 21.2364 19.3371ZM16.0102 13.6833C16.0102 12.543 17.0079 11.5453 18.1482 11.5453C20.1437 11.5453 21.0464 13.9209 19.7161 15.2512C18.4333 16.5815 16.0102 15.7263 16.0102 13.6833ZM27.1278 13.6833C27.1278 15.6788 29.5034 16.5815 30.8337 15.2512C32.164 13.9209 31.2613 11.5453 29.2658 11.5453C28.1256 11.5453 27.1278 12.543 27.1278 13.6833ZM8.83598 17.0091C8.97851 17.2942 9.31109 18.0068 9.59616 18.577C9.92874 19.1471 10.2613 19.5747 10.5464 19.9073C10.879 20.2399 11.164 20.5249 11.4016 20.715C11.6867 20.905 11.8767 20.9525 12.0192 21C12.1143 21.0476 12.1143 21.0475 11.9717 21.1901C11.8292 21.3326 11.4966 21.6177 11.164 21.9503C10.8315 22.3304 10.5464 22.758 10.4039 23.2331C10.2613 23.7082 10.2613 24.1833 10.4989 24.5159C10.7839 24.8485 11.3066 24.991 12.0667 25.1335C12.8269 25.2761 13.8722 25.4186 14.3473 25.4661C14.8699 25.5136 14.8699 25.5136 14.1572 25.6086C13.4921 25.6562 12.1143 25.7987 11.069 25.7512C10.0713 25.7512 9.3586 25.6086 9.07353 25.3236C8.78847 25.086 8.88349 24.7059 8.931 24.3258C9.02602 23.9457 9.12105 23.5181 9.31109 23.0905C9.54865 22.6629 9.88123 22.1878 10.1188 21.8553C10.3563 21.5227 10.4514 21.3801 10.4989 21.2851C10.5464 21.1901 10.5464 21.1901 10.3088 21C10.0713 20.81 9.54865 20.4299 9.16856 19.8598C8.78847 19.2896 8.5034 18.577 8.40838 18.0543C8.31335 17.5317 8.36087 17.1516 8.40838 16.9141C8.64593 16.819 8.64593 16.724 8.83598 17.0091ZM34.4446 21.2376C34.3496 21.2376 34.3496 21.2376 34.4446 21.3801C34.5396 21.5227 34.8247 21.8077 35.0147 22.0928C35.2048 22.3304 35.2998 22.5679 35.3948 22.853C35.4898 23.138 35.5848 23.5181 35.5373 23.8982C35.4898 24.2783 35.2523 24.6109 35.3473 24.8009C35.3948 24.9435 35.7274 24.9435 36.1075 24.896C36.4876 24.8485 36.9627 24.8009 37.0102 24.5159C37.0577 24.2783 36.7726 23.8032 36.4876 23.3756C36.25 22.948 36.0124 22.5679 35.8224 22.2353C35.6324 21.9028 35.3948 21.6177 35.2523 21.4752C35.1097 21.3326 35.0147 21.2851 34.8722 21.2851C34.7772 21.2376 34.5396 21.2376 34.4446 21.2376Z" fill="#B1B2B3"/>
<path fill-rule="evenodd" clip-rule="evenodd" d="M7.74414 51.8348L7.88667 25.7987L41.5722 24.5634L41.6672 50.5045L7.74414 51.8348Z" fill="white"/>
<path fill-rule="evenodd" clip-rule="evenodd" d="M7.26941 51.7398L0.570312 44.9932L3.99113 30.4547L7.26941 51.7398Z" fill="#A9D4E6"/>
<path fill-rule="evenodd" clip-rule="evenodd" d="M25.8 43.0452C25.8 43.5678 26.2276 43.9479 26.7027 43.9479C27.2253 43.9479 27.6054 43.5203 27.6054 43.0452V39.8145C27.6054 39.0543 28.223 38.4366 28.9832 38.4366C29.7434 38.4366 30.361 39.0543 30.361 39.8145V43.0452C30.361 43.5678 30.7886 43.9479 31.2638 43.9479C31.7864 43.9479 32.1665 43.5203 32.1665 43.0452V39.8145C32.1665 38.0565 30.7411 36.5837 28.9357 36.5837C28.033 36.5837 27.2253 36.9638 26.6552 37.5339C26.085 36.9638 25.2773 36.5837 24.3746 36.5837C23.852 36.5837 23.3769 36.7262 22.9493 36.9163C22.7592 36.6312 22.4267 36.4412 22.0941 36.4412C21.5239 36.4412 21.0488 36.9163 21.0488 37.4864C21.0488 37.8665 21.2389 38.1516 21.4764 38.3416C21.2389 38.7692 21.1439 39.2443 21.1439 39.767V42.9977C21.1439 43.5203 21.5715 43.9004 22.0466 43.9004C22.5692 43.9004 22.9493 43.4728 22.9493 42.9977V39.767C22.9493 39.0068 23.5669 38.3891 24.3271 38.3891C25.0873 38.3891 25.7049 39.0068 25.7049 39.767V43.0452H25.8Z" fill="#A9D4E6"/>
<path fill-rule="evenodd" clip-rule="evenodd" d="M24.8965 33.6855C24.8965 33.9706 25.3716 33.8281 25.5616 33.8281C25.6567 33.8281 25.7517 33.8281 25.7992 33.8281C25.9892 33.7806 25.9417 33.4955 25.7517 33.4955C25.6567 33.4955 24.9915 33.4955 24.944 33.543C24.8965 33.5905 24.8965 33.638 24.8965 33.6855Z" fill="#A9D4E6"/>
<path fill-rule="evenodd" clip-rule="evenodd" d="M31.6914 33.4004C31.6914 33.6855 31.9765 33.5905 32.214 33.5905C32.3566 33.5905 32.7367 33.638 32.7367 33.4004C32.7367 33.1154 32.4041 33.2104 32.2615 33.2104C32.024 33.2104 31.6914 33.2104 31.6914 33.4004Z" fill="#A9D4E6"/>
<path fill-rule="evenodd" clip-rule="evenodd" d="M30.7422 45.1357C30.7422 45.3733 31.1223 45.3258 31.2648 45.2783C31.4549 45.2307 31.7874 45.3258 31.7874 45.0882C31.7874 44.8506 31.5024 44.8982 31.2648 44.8982C31.1698 44.8982 30.8372 44.8982 30.7897 44.9457C30.7897 44.9932 30.7422 45.0882 30.7422 45.1357Z" fill="#A9D4E6"/>
<path fill-rule="evenodd" clip-rule="evenodd" d="M24.9925 45.3733C24.9925 45.2307 24.945 45.1832 24.8025 45.1832C24.7074 45.1832 24.6124 45.1832 24.4699 45.1832C24.2323 45.1832 23.9473 45.1357 23.9473 45.3733C23.9473 45.4683 23.9948 45.5633 24.0898 45.5633H24.755C24.8025 45.5633 24.85 45.5633 24.8975 45.5158C24.945 45.4683 24.9925 45.4208 24.9925 45.3733Z" fill="#A9D4E6"/>
<path fill-rule="evenodd" clip-rule="evenodd" d="M29.0312 45.1832C29.0312 45.4683 29.4589 45.3257 29.8389 45.3257C30.124 45.3257 30.0765 44.9932 29.8865 44.9932C29.7914 44.9932 29.6489 44.9932 29.5539 44.9932C29.3638 45.0407 29.0312 44.9456 29.0312 45.1832Z" fill="#A9D4E6"/>
<path fill-rule="evenodd" clip-rule="evenodd" d="M21.572 45.5158C21.572 45.2307 21.3344 45.3257 21.0968 45.3257C20.8593 45.3257 20.5742 45.2782 20.5742 45.5158C20.5742 45.8009 21.0018 45.7059 21.0493 45.7059C21.1444 45.6583 21.572 45.7058 21.572 45.5158Z" fill="#A9D4E6"/>
<path fill-rule="evenodd" clip-rule="evenodd" d="M28.3656 45.2308C28.3656 44.9932 28.128 45.0407 27.8429 45.0407C27.6054 45.0407 27.3203 45.0408 27.3203 45.2308C27.3203 45.5159 27.7004 45.4208 27.7954 45.4208C28.0805 45.3733 28.3656 45.4684 28.3656 45.2308Z" fill="#A9D4E6"/>
<path fill-rule="evenodd" clip-rule="evenodd" d="M28.2695 33.5429C28.2695 33.638 28.317 33.6855 28.4596 33.733H29.1247C29.1722 33.733 29.2198 33.733 29.2673 33.6855C29.3623 33.5904 29.3623 33.4004 29.1722 33.3529C29.1247 33.3529 28.9347 33.3529 28.8397 33.3529C28.6971 33.3529 28.6021 33.3529 28.5071 33.3529C28.3646 33.4004 28.2695 33.4479 28.2695 33.5429Z" fill="#A9D4E6"/>
<path fill-rule="evenodd" clip-rule="evenodd" d="M32.4512 45.0407C32.4512 45.2783 32.6887 45.2308 32.9738 45.2308C33.2114 45.2308 33.4964 45.2308 33.4964 45.0407C33.4964 44.8032 33.2114 44.8507 33.0213 44.8507C32.7837 44.8982 32.4512 44.8032 32.4512 45.0407Z" fill="#A9D4E6"/>
<path fill-rule="evenodd" clip-rule="evenodd" d="M19.8145 33.8756C19.8145 34.1607 20.0995 34.0656 20.2896 34.0656C20.6221 34.0656 20.8122 34.1132 20.8122 33.8281C20.8122 33.638 20.3846 33.7331 20.2896 33.7331C20.0995 33.6856 19.8145 33.6855 19.8145 33.8756Z" fill="#A9D4E6"/>
<path fill-rule="evenodd" clip-rule="evenodd" d="M26.6074 33.5905C26.6074 33.828 26.845 33.7805 27.13 33.7805C27.2251 33.7805 27.5101 33.7805 27.6052 33.733C27.7002 33.6855 27.7002 33.543 27.6052 33.4479C27.5101 33.3529 27.2251 33.4004 27.13 33.4479C26.8925 33.4479 26.6074 33.3529 26.6074 33.5905Z" fill="#A9D4E6"/>
<path fill-rule="evenodd" clip-rule="evenodd" d="M25.6562 45.3258C25.6562 45.3733 25.6562 45.4208 25.7038 45.4683C25.7513 45.5158 25.8938 45.5158 26.0363 45.5158C26.1314 45.5158 26.559 45.5158 26.6065 45.4683C26.749 45.4208 26.7015 45.1357 26.559 45.1357C26.4639 45.1357 26.3689 45.1357 26.2739 45.1357C26.1789 45.1357 26.1314 45.1357 26.0363 45.1357C25.8463 45.1357 25.6562 45.1357 25.6562 45.3258Z" fill="#A9D4E6"/>
<path fill-rule="evenodd" clip-rule="evenodd" d="M23.1875 33.7331C23.1875 34.0182 23.4251 33.9232 23.7101 33.9232C23.8527 33.9232 23.9477 33.9232 24.0427 33.9232C24.2327 33.9232 24.2327 33.8757 24.2327 33.7331C24.2327 33.5431 23.8051 33.6381 23.7101 33.6381C23.4726 33.5431 23.1875 33.5431 23.1875 33.7331Z" fill="#A9D4E6"/>
<path fill-rule="evenodd" clip-rule="evenodd" d="M29.9805 33.448C29.9805 33.733 30.4081 33.5905 30.7882 33.5905C31.1207 33.5905 31.0257 33.2579 30.8832 33.2579C30.7882 33.2579 30.6931 33.2579 30.5981 33.2579C30.5031 33.2579 30.4556 33.2579 30.3606 33.2579C30.1705 33.3054 29.9805 33.3054 29.9805 33.448Z" fill="#A9D4E6"/>
<path fill-rule="evenodd" clip-rule="evenodd" d="M18.8633 45.5633C18.8633 45.7058 19.0058 45.7534 19.0533 45.7534H19.1008H19.766C20.0036 45.7059 19.956 45.4208 19.766 45.4208H19.3859C19.3384 45.4208 19.0058 45.4208 18.9583 45.4683C18.9108 45.4683 18.8633 45.5158 18.8633 45.5633Z" fill="#A9D4E6"/>
<path fill-rule="evenodd" clip-rule="evenodd" d="M34.0664 40.8122V41.5249C34.0664 41.7625 34.399 41.715 34.399 41.5724V40.8598C34.399 40.5747 34.0664 40.6222 34.0664 40.8122Z" fill="#A9D4E6"/>
<path fill-rule="evenodd" clip-rule="evenodd" d="M18.7207 34.5407C18.7207 34.7308 19.0533 34.7783 19.0533 34.5407C19.1008 34.3507 19.0058 34.1606 19.1008 34.0656C19.1483 34.0181 19.1483 34.0181 19.1483 33.923C19.1483 33.6855 18.8632 33.733 18.7207 33.733V34.5407Z" fill="#A9D4E6"/>
<path fill-rule="evenodd" clip-rule="evenodd" d="M34.0664 34.0181V34.7308C34.0664 34.9684 34.399 34.9684 34.399 34.7308V34.0181C34.399 33.7806 34.0664 33.7806 34.0664 34.0181Z" fill="#A9D4E6"/>
<path fill-rule="evenodd" clip-rule="evenodd" d="M34.0664 44.233V44.8981C34.0664 45.1357 34.399 45.0882 34.399 44.9456V44.233C34.399 43.9954 34.0664 43.9954 34.0664 44.233Z" fill="#A9D4E6"/>
<path fill-rule="evenodd" clip-rule="evenodd" d="M34.0664 37.4389V38.1516C34.0664 38.3891 34.399 38.3891 34.399 38.1516V37.4389C34.399 37.2014 34.0664 37.2014 34.0664 37.4389Z" fill="#A9D4E6"/>
<path fill-rule="evenodd" clip-rule="evenodd" d="M18.7207 44.0429V44.7556C18.7207 44.9931 19.0533 44.9931 19.0533 44.7556V44.0429C19.0533 43.8054 18.7207 43.8054 18.7207 44.0429Z" fill="#A9D4E6"/>
<path fill-rule="evenodd" clip-rule="evenodd" d="M18.7207 40.6222V41.3349C18.7207 41.5725 19.0533 41.5724 19.0533 41.2874V40.6222C19.0533 40.3847 18.7207 40.4797 18.7207 40.6222Z" fill="#A9D4E6"/>
<path fill-rule="evenodd" clip-rule="evenodd" d="M18.7207 38.9593V39.672C18.7207 39.862 19.0533 39.862 19.0533 39.6244V38.9593C19.0533 38.7217 18.7207 38.7217 18.7207 38.9593Z" fill="#A9D4E6"/>
<path fill-rule="evenodd" clip-rule="evenodd" d="M34.0664 42.5226V43.1878C34.0664 43.4253 34.399 43.4253 34.399 43.1878V42.4751C34.399 42.3326 34.0664 42.2851 34.0664 42.5226Z" fill="#A9D4E6"/>
<path fill-rule="evenodd" clip-rule="evenodd" d="M22.2363 45.4684C22.2363 45.6584 22.4264 45.6584 22.5214 45.6584C22.6164 45.6584 23.044 45.6584 23.139 45.6109C23.2816 45.5634 23.3291 45.2783 23.044 45.2783H22.5689C22.4264 45.2783 22.2363 45.2783 22.2363 45.4684Z" fill="#A9D4E6"/>
<path fill-rule="evenodd" clip-rule="evenodd" d="M18.7207 37.2014V37.9141C18.7207 38.1517 19.0533 38.1517 19.0533 37.9141V37.2489C19.0533 37.0114 18.7207 37.0589 18.7207 37.2014Z" fill="#A9D4E6"/>
<path fill-rule="evenodd" clip-rule="evenodd" d="M33.4023 33.3054C33.4023 33.543 33.5449 33.543 33.925 33.4955L34.3051 33.448C34.3526 33.448 34.4001 33.3529 34.4001 33.3054V33.2104C34.4001 33.1629 34.3051 33.0679 34.21 33.0679H33.7349C33.7349 33.1629 33.4023 33.1154 33.4023 33.3054Z" fill="#A9D4E6"/>
<path fill-rule="evenodd" clip-rule="evenodd" d="M18.7207 35.5385V36.2512C18.7207 36.3937 19.0533 36.4412 19.0533 36.2037V35.5385C19.0533 35.301 18.7207 35.301 18.7207 35.5385Z" fill="#A9D4E6"/>
<path fill-rule="evenodd" clip-rule="evenodd" d="M34.0664 35.7286V36.3937C34.0664 36.6313 34.399 36.6313 34.399 36.3937V35.681C34.399 35.491 34.0664 35.491 34.0664 35.7286Z" fill="#A9D4E6"/>
<path fill-rule="evenodd" clip-rule="evenodd" d="M34.0664 39.1493V39.8145C34.0664 40.052 34.399 40.052 34.399 39.8145V39.1018C34.399 38.9118 34.0664 38.9118 34.0664 39.1493Z" fill="#A9D4E6"/>
<path fill-rule="evenodd" clip-rule="evenodd" d="M18.7207 42.3326V43.0453C18.7207 43.2353 19.0533 43.2353 19.0533 42.9978V42.3326C19.0533 42.1426 18.7207 42.1426 18.7207 42.3326Z" fill="#A9D4E6"/>
<path fill-rule="evenodd" clip-rule="evenodd" d="M21.4766 33.7806C21.4766 34.0657 21.9517 33.9706 22.1892 33.9706C22.7119 33.9706 22.4743 33.6381 22.3793 33.6381L21.5716 33.6856L21.4766 33.7806Z" fill="#A9D4E6"/>
<path fill-rule="evenodd" clip-rule="evenodd" d="M14.111 25.7511C14.5861 25.8461 16.3441 25.9412 17.3893 26.2262C18.4821 26.5113 18.8622 26.9389 19.2898 27.5566C19.7174 28.1742 20.1925 28.9344 20.4775 29.552C20.7626 30.1697 20.9051 30.5973 20.9527 30.9774C21.0002 31.31 21.0477 31.595 21.0477 31.7376C21.0477 31.8801 21.0477 31.8801 21.0002 32.0226C20.9527 32.1651 20.8576 32.4977 20.9051 32.9253C20.9527 33.3054 21.0952 33.7805 21.3327 34.0656C21.5703 34.3507 21.9029 34.4932 22.0929 34.4932C22.283 34.4932 22.378 34.3507 22.378 33.9231C22.378 33.4955 22.283 32.7353 22.1879 32.1652C22.0454 31.595 21.9029 31.1674 21.6653 30.5973C21.4278 30.0271 21.1902 29.362 20.8576 28.6968C20.5251 28.0317 20.145 27.414 19.7174 26.8914C19.2898 26.3688 18.8622 25.9887 18.0545 25.7511C17.2468 25.5611 16.1065 25.5136 15.5364 25.5136C15.0137 25.5136 15.0613 25.5136 14.7287 25.5611C14.3961 25.6086 13.6359 25.7036 14.111 25.7511ZM23.0907 32.8303C23.2332 32.9728 23.4708 33.0204 23.7083 33.0204C23.8984 33.0204 24.0884 32.9253 24.1834 32.8303C24.2784 32.7353 24.3735 32.4977 24.1359 32.4027C23.8984 32.3077 23.2807 32.3552 23.0907 32.4027C22.8531 32.4502 22.9006 32.6878 23.0907 32.8303ZM29.3622 25.5611C29.5522 25.7986 29.8848 26.1787 30.2174 26.5113C30.5024 26.8914 30.74 27.224 30.9775 27.6991C31.2151 28.1742 31.4527 28.7443 31.6427 29.1719C31.7852 29.6471 31.8803 29.9796 31.7377 30.4547C31.6427 30.8823 31.3576 31.405 31.1676 31.6425C30.9775 31.9276 30.93 31.9276 30.8825 31.9751C30.835 32.0226 30.7875 32.0701 30.7875 32.1652C30.7875 32.2127 30.8825 32.3077 30.9775 32.3552C31.1201 32.4027 31.3101 32.4027 31.4051 32.4027C31.5002 32.4502 31.5477 32.4977 31.5952 32.6403C31.6427 32.7828 31.7852 33.0204 31.9278 33.1629C32.0703 33.3529 32.3079 33.448 32.4979 33.4004C32.7355 33.3529 32.9255 33.1629 33.0205 32.8303C33.1156 32.4977 33.0205 32.0701 32.9255 31.595C32.8305 31.1199 32.688 30.6448 32.5454 30.1222C32.4029 29.5995 32.2603 28.9819 32.0228 28.4593C31.7852 27.8891 31.5002 27.319 31.1676 26.7964C30.835 26.2738 30.4074 25.7511 30.0273 25.4186C29.6472 25.1335 29.3146 25.0385 29.2196 25.0385C29.1246 25.181 29.1721 25.3235 29.3622 25.5611Z" fill="#D9DADA"/>
<path fill-rule="evenodd" clip-rule="evenodd" d="M36.3937 24.5633C36.3937 24.5158 36.3937 24.6108 36.3937 24.5633C36.2511 23.138 35.3484 21.8552 34.3032 21.2375C35.776 20.8575 36.8688 19.2896 36.8688 17.3891C36.8688 16.0588 36.3462 14.871 35.4909 14.1584C35.6335 14.1109 35.7285 14.0633 35.8235 13.9683C35.9186 13.9208 36.0136 13.8258 36.1561 13.7308C37.5814 12.5905 37.819 10.405 36.6787 8.59953C36.1561 7.79184 35.3959 7.1742 34.5407 6.84163C34.3982 6.79411 34.2081 6.74659 34.0656 6.69908C34.0181 6.55655 34.0181 6.41402 33.9706 6.22397C33.8281 5.79637 33.6855 5.41629 33.4005 4.98869C32.4027 3.42081 30.6448 2.66063 29.1244 3.04072C28.9344 3.08823 28.6968 3.13574 28.5068 3.23076C28.4118 3.04072 28.3167 2.85067 28.2217 2.66062C27.5566 1.61537 26.4638 0.902712 25.276 0.902712C24.6109 0.902712 23.9457 1.14026 23.4231 1.47284C23.2805 1.56786 23.138 1.66289 23.043 1.80542C22.9005 1.66289 22.7579 1.56786 22.6154 1.47284C21.9977 1.04524 21.2376 0.807684 20.4774 0.807684C19.1471 0.807684 17.9593 1.52036 17.2466 2.61312C17.1991 2.70814 17.1041 2.80316 17.0566 2.89818C16.914 2.89818 16.7715 2.85068 16.5814 2.85068C15.2986 2.75566 14.0158 2.9932 13.0656 3.61085C11.9253 4.37103 11.4027 5.4638 11.4977 6.65158C11.4977 6.69909 11.4977 6.69909 11.4977 6.7466C10.595 7.07918 9.78733 7.79185 9.26471 8.55204C8.12443 10.31 8.36199 12.543 9.78733 13.6833C9.88235 13.7783 9.97738 13.8258 10.1199 13.9208C10.2149 13.9683 10.3575 14.0633 10.4525 14.1109C9.59729 14.8235 9.07466 16.0113 9.07466 17.3416C9.07466 19.2421 10.1674 20.8099 11.6403 21.19C10.5475 21.8077 9.59728 23.138 9.54977 24.6584C10.1199 24.9434 10.7376 25.181 11.3552 25.371L36.3937 24.5633ZM35.5385 21.2851C35.871 21.1425 36.2036 21 36.5362 20.7624C36.8213 20.4774 37.0588 20.0498 37.2014 19.8597C37.2964 19.6222 37.2964 19.6222 37.2964 19.9548C37.2489 20.2873 37.2014 20.9525 37.2014 21.4276C37.2014 21.9027 37.2014 22.1403 37.2964 22.4253C37.3914 22.7104 37.5339 22.9955 37.629 23.138C37.724 23.2805 37.724 23.2805 37.629 23.328C37.5339 23.3756 37.3914 23.4706 37.2489 23.5656C36.9638 22.5203 36.4412 21.7127 35.5385 21.2851ZM37.914 9.45475C38.0091 9.40724 38.1041 9.40723 38.1991 9.31221C38.2941 9.26469 38.4366 9.16967 38.5317 9.07465C38.6267 8.97963 38.7217 8.8846 38.7692 8.83709C38.8167 8.78958 38.8167 8.78959 38.8643 8.93212C38.9118 9.07465 39.0068 9.31221 39.0543 9.64479C39.1018 9.97737 39.1493 10.405 39.1968 10.7851C39.2443 11.1651 39.2443 11.5452 39.1968 11.9253C39.1968 12.3054 39.1493 12.6855 39.1018 13.0656C39.0543 13.4457 38.9593 13.7783 38.8643 14.1109C38.7692 14.4434 38.6742 14.7285 38.5317 15.1561C38.3891 15.5837 38.1991 16.1063 38.0566 16.4864C37.914 16.8665 37.819 17.1991 37.7715 17.4366C37.7715 16.2489 37.3439 15.2036 36.6787 14.4909C38.1041 13.3507 38.5792 11.3077 37.914 9.45475ZM39.1493 24.4208C39.1018 24.1833 39.0068 23.9932 38.9593 23.8032C38.7692 23.233 38.5792 23.0905 38.4367 23.043C38.4367 23.043 38.3891 22.948 38.3416 22.8529C38.2941 22.7104 38.2466 22.4728 38.1991 22.1878C38.1516 21.9977 38.1516 21.7127 38.1991 21.4276L41.1448 24.3258L39.1493 24.4208ZM7.26923 18.0543C7.22172 17.8167 7.1267 17.5792 7.07919 17.3416C6.84163 16.4864 6.50905 15.6312 6.27149 14.9185C6.03394 14.2059 5.8914 13.6833 5.79638 13.0181C5.70136 12.3529 5.70136 11.6403 5.74887 10.9751C5.79638 10.3099 5.84389 9.78732 5.93891 9.31221C6.03394 8.8846 6.08145 8.55203 6.22398 8.26696C6.36652 7.9819 6.50905 7.79184 6.6991 7.64931C6.88914 7.50678 7.07919 7.50678 7.22172 7.50678C7.41177 7.50678 7.5543 7.55429 7.69683 7.64931C7.83937 7.74433 7.93439 7.93439 8.02941 8.02941C8.12444 8.17194 8.26697 8.26696 8.36199 8.36198C8.4095 8.40949 8.45701 8.45701 8.55204 8.45701C8.59955 8.36198 8.64706 8.31447 8.69457 8.21945C9.21719 7.45927 9.88235 6.84163 10.6425 6.41403C10.9276 4.84615 11.0226 4.08597 12.4955 3.08824C13.6357 2.32805 15.1561 2.04297 16.629 2.18551C17.4842 0.855192 18.9095 0 20.5249 0C21.4751 0 22.3778 0.285059 23.0905 0.807684C23.7557 0.33257 24.5158 0.0950139 25.371 0.0950139C26.8439 0.0950139 28.1742 0.950217 28.9819 2.23302C30.8348 1.80542 32.9729 2.70814 34.1606 4.60859C34.4457 5.0837 34.6833 5.55882 34.8258 6.08144C35.8235 6.46153 36.7262 7.22171 37.3914 8.21945C37.4389 8.31447 37.4864 8.36198 37.5339 8.45701C37.5814 8.4095 37.629 8.40949 37.724 8.36198C37.819 8.26696 37.914 8.17194 38.0566 8.02941C38.1516 7.88687 38.2941 7.74433 38.4367 7.64931C38.5792 7.55429 38.7217 7.50678 38.9118 7.50678C39.1018 7.50678 39.2919 7.50678 39.4344 7.64931C39.6244 7.79184 39.767 7.9819 39.9095 8.26696C40.052 8.55203 40.0995 8.8846 40.1946 9.31221C40.2896 9.73981 40.3371 10.3099 40.3846 10.9751C40.4321 11.6403 40.4321 12.3529 40.3371 13.0181C40.2421 13.6833 40.0995 14.2059 39.862 14.9185C39.6244 15.6312 39.2919 16.4864 39.0543 17.3416C38.8167 18.1968 38.5792 19.0045 38.4842 19.6697C38.4367 20.0498 38.3891 20.3348 38.3416 20.6199L42 24.3733V50.7896L7.31674 52.2149L0 45.0407V18.3394L7.26923 18.0543ZM6.84163 24.5158C6.88914 24.2783 6.98416 23.9932 7.03167 23.8032C7.22172 23.233 7.41177 23.0905 7.5543 23.043C7.5543 23.043 7.60181 22.948 7.64932 22.8529C7.69683 22.7104 7.74434 22.4728 7.79186 22.1878C7.83937 21.9027 7.83937 21.6176 7.79186 21.2375C7.79186 20.8099 7.74434 20.2873 7.60181 19.6222C7.5543 19.3371 7.45928 19.052 7.41176 18.7195L1.33032 18.957L6.84163 24.5158ZM10.405 21.2851C9.54977 21.7127 8.97964 22.5204 8.74208 23.5181C8.59955 23.4231 8.4095 23.3281 8.36199 23.2805C8.26697 23.233 8.26697 23.233 8.36199 23.0905C8.45701 22.948 8.59955 22.6629 8.69457 22.3778C8.78959 22.0927 8.8371 21.8552 8.78959 21.3801C8.78959 20.905 8.69457 20.2398 8.69457 19.9072C8.64706 19.5747 8.64706 19.5746 8.78959 19.7647C8.93213 19.9547 9.16968 20.3824 9.45475 20.6674C9.73982 21 10.0724 21.1425 10.405 21.2851ZM8.07692 9.45475C7.41176 11.3077 7.88688 13.3507 9.31222 14.4909C8.64706 15.2036 8.21946 16.2489 8.21946 17.4366C8.12443 17.1516 8.02941 16.8665 7.93439 16.4864C7.79186 16.1063 7.60181 15.5362 7.45928 15.1561C7.31674 14.7285 7.22172 14.4434 7.1267 14.1109C7.03167 13.7783 6.93665 13.4457 6.88914 13.0656C6.84163 12.6855 6.79412 12.3054 6.79412 11.9253C6.79412 11.5452 6.79412 11.1651 6.79412 10.7851C6.84163 10.405 6.84163 9.97737 6.93665 9.64479C6.98416 9.31221 7.07919 9.02714 7.1267 8.93212C7.17421 8.78959 7.17421 8.78958 7.22172 8.83709C7.26923 8.8846 7.36425 8.97963 7.45928 9.07465C7.5543 9.16967 7.69683 9.26469 7.79186 9.31221C7.83937 9.35972 7.93439 9.40724 8.07692 9.45475ZM7.22172 25.6561L0.807693 19.3371V44.7081L7.22172 50.8846V25.6561ZM19.0995 25.8461L29.7421 25.4186C30.0271 25.7511 30.3597 26.0837 30.6448 26.5113C31.0724 27.129 31.5475 27.9842 31.8326 28.7443C32.0701 29.362 32.2127 29.7896 32.3077 30.3597C32.3077 30.3597 31.1674 31.1674 31.1199 31.2624C30.6923 31.595 30.5498 32.0226 30.7873 32.2127C30.9774 32.3077 31.3575 32.3077 31.7376 32.1176C31.8801 33.0679 32.4027 33.7805 32.9253 33.733C33.448 33.6855 33.7805 32.8778 33.638 31.9751C33.543 31.3575 33.3054 30.8348 32.9729 30.5498C32.8303 29.8371 32.7828 29.4095 32.4977 28.6018C32.2127 27.8416 31.7851 27.0339 31.31 26.3688C31.0724 25.9887 30.7873 25.7036 30.5023 25.4186L41.2873 24.9909V50.2195L7.93439 51.5498V26.2737L18.2919 25.8937C18.767 26.3213 19.2421 26.7489 19.7172 27.414C20.1923 28.0317 20.6674 28.8394 21 29.5995C21.3326 30.3597 21.4751 31.0249 21.6176 31.7375C21.4276 32.0701 21.3326 32.6403 21.4276 33.2104C21.5701 34.1131 22.1403 34.7783 22.6629 34.6833C23.1855 34.5882 23.4706 33.733 23.2805 32.7828C23.6606 32.8303 24.0407 32.7828 24.1833 32.5927C24.3733 32.3552 24.1357 32.0226 23.5656 31.785C23.4706 31.7375 22.1403 31.3099 22.1403 31.3099C21.9977 30.5973 21.9027 30.1697 21.5701 29.4095C21.2376 28.6493 20.7624 27.8416 20.2873 27.224C19.9548 26.6538 19.5271 26.2262 19.0995 25.8461Z" fill="black"/>
<path fill-rule="evenodd" clip-rule="evenodd" d="M11.5442 47.0362C11.5442 47.6539 11.9718 48.129 12.5894 48.0815L16.6754 48.0339C17.3405 48.0339 17.8632 48.5566 17.8632 49.2217C17.8632 49.8869 17.3405 50.4095 16.6754 50.4095C14.5849 50.457 12.3994 50.5996 10.3564 50.5996C9.69123 50.5996 9.1686 50.0769 9.1686 49.4118L9.12109 43.3778C9.12109 42.7127 9.64372 42.1901 10.3089 42.1901C10.974 42.1901 11.4967 42.7127 11.4967 43.3778L11.5442 47.0362Z" fill="white"/>
<path fill-rule="evenodd" clip-rule="evenodd" d="M30.0254 49.8393C30.0254 50.1718 30.453 50.1719 30.6905 50.1244C30.8331 50.1244 30.9756 50.1244 31.1182 50.1244C31.3557 50.0768 31.7358 50.1719 31.7358 49.7918C31.7358 49.6492 31.6408 49.5067 31.4982 49.5067C31.3082 49.5067 30.358 49.5067 30.2154 49.5542C30.1204 49.6017 30.0254 49.6967 30.0254 49.8393Z" fill="#A9D4E6"/>
<path fill-rule="evenodd" clip-rule="evenodd" d="M24.373 50.0768C24.373 50.2194 24.4681 50.3619 24.6581 50.3619C24.8482 50.3619 25.7984 50.3619 25.9409 50.3144C26.131 50.2194 26.1785 49.9818 26.0359 49.8393C26.0359 49.7918 25.9409 49.7443 25.8934 49.7443C25.7034 49.7443 24.7056 49.7443 24.6106 49.7918C24.4681 49.8393 24.373 49.9343 24.373 50.0768Z" fill="#A9D4E6"/>
<path fill-rule="evenodd" clip-rule="evenodd" d="M39.3379 32.1176V33.2103C39.3379 33.6379 39.908 33.5905 39.908 33.2579V32.0701C39.908 31.7375 39.3379 31.7375 39.3379 32.1176Z" fill="#A9D4E6"/>
<path fill-rule="evenodd" clip-rule="evenodd" d="M39.3379 40.6221V41.7149C39.3379 42.1425 39.908 42.095 39.908 41.7624V40.5746C39.908 40.242 39.3379 40.242 39.3379 40.6221Z" fill="#A9D4E6"/>
<path fill-rule="evenodd" clip-rule="evenodd" d="M39.3377 49.1267L38.8151 49.1742C38.7201 49.1742 38.6726 49.1742 38.6251 49.2217C38.435 49.3643 38.4825 49.6018 38.7201 49.6968C38.8626 49.7443 39.7653 49.6493 39.9554 49.6493V49.0792C39.9079 48.7466 39.3377 48.6991 39.3377 49.1267Z" fill="#A9D4E6"/>
<path fill-rule="evenodd" clip-rule="evenodd" d="M39.3379 29.3145V30.4072C39.3379 30.7873 39.908 30.7873 39.908 30.4072V29.2669C39.908 28.8868 39.3379 28.8869 39.3379 29.3145Z" fill="#A9D4E6"/>
<path fill-rule="evenodd" clip-rule="evenodd" d="M39.3379 26.4638V27.5566C39.3379 27.9842 39.908 27.9366 39.908 27.6041V26.4163C39.908 26.2737 39.7655 26.1787 39.623 26.1787H39.5754C39.4804 26.1787 39.3379 26.2737 39.3379 26.4638Z" fill="#A9D4E6"/>
<path fill-rule="evenodd" clip-rule="evenodd" d="M39.3379 34.9682V36.061C39.3379 36.4886 39.908 36.4411 39.908 36.1085V34.9207C39.908 34.5882 39.3379 34.5406 39.3379 34.9682Z" fill="#A9D4E6"/>
<path fill-rule="evenodd" clip-rule="evenodd" d="M39.3379 46.276V47.3688C39.3379 47.7489 39.908 47.7014 39.908 47.4163V46.2285C39.908 45.896 39.3379 45.8959 39.3379 46.276Z" fill="#A9D4E6"/>
<path fill-rule="evenodd" clip-rule="evenodd" d="M39.3379 37.819V38.9117C39.3379 39.2918 39.908 39.2918 39.908 38.9117V37.7715C39.908 37.3914 39.3379 37.3914 39.3379 37.819Z" fill="#A9D4E6"/>
<path fill-rule="evenodd" clip-rule="evenodd" d="M39.3379 43.4729V44.5656C39.3379 44.8507 39.623 44.9457 39.813 44.8032C39.8605 44.7557 39.908 44.7082 39.908 44.6131V43.4254C39.908 43.0928 39.3379 43.0453 39.3379 43.4729Z" fill="#A9D4E6"/>
<path fill-rule="evenodd" clip-rule="evenodd" d="M32.8281 49.6494C32.8281 50.077 33.2557 49.9344 33.3983 49.9344C33.7308 49.9344 33.9209 49.8869 34.206 49.8869C34.301 49.8869 34.3485 49.8869 34.4435 49.8394C34.6336 49.6969 34.5385 49.3643 34.2535 49.3168C34.1584 49.3168 34.0634 49.3168 33.9684 49.3168C33.7784 49.3168 33.0657 49.3168 32.9231 49.4118C32.9231 49.5068 32.8281 49.6018 32.8281 49.6494Z" fill="#A9D4E6"/>
<path fill-rule="evenodd" clip-rule="evenodd" d="M21.5215 50.172C21.5215 50.552 21.8066 50.5046 22.0916 50.457C22.3292 50.457 22.6142 50.457 22.8993 50.4095C22.9943 50.4095 23.0418 50.4095 23.0894 50.3145C23.2794 50.1719 23.1844 49.8394 22.8993 49.7919C22.8043 49.7919 22.7568 49.7919 22.6142 49.7919L21.8066 49.8394C21.664 49.8394 21.664 49.8394 21.569 49.8869C21.569 50.0294 21.5215 50.0769 21.5215 50.172Z" fill="#A9D4E6"/>
<path fill-rule="evenodd" clip-rule="evenodd" d="M27.1738 49.9344C27.1738 50.362 27.5064 50.2195 27.7915 50.2195L28.5992 50.1719C28.6942 50.1719 28.7417 50.1244 28.7892 50.0769C28.9317 49.9344 28.8842 49.6018 28.5992 49.6018C28.4566 49.6018 28.4566 49.6018 28.3141 49.6018L27.5064 49.6493C27.3639 49.6968 27.1738 49.7443 27.1738 49.9344Z" fill="#A9D4E6"/>
<path fill-rule="evenodd" clip-rule="evenodd" d="M37.3898 49.5543C37.3898 49.4117 37.3423 49.2217 37.1522 49.2217L36.1545 49.2692C35.9169 49.2692 35.8694 49.2217 35.7744 49.3642C35.6794 49.4592 35.6794 49.6018 35.7744 49.7443C35.9169 49.8869 36.1545 49.8393 36.392 49.8393C36.4871 49.8393 36.5821 49.8393 36.6771 49.8393C36.7721 49.8393 36.8196 49.8393 36.9147 49.8393C37.0097 49.8393 37.0572 49.8393 37.1522 49.8393C37.2472 49.7918 37.3898 49.6968 37.3898 49.5543Z" fill="#A9D4E6"/>
<path fill-rule="evenodd" clip-rule="evenodd" d="M18.7656 50.267C18.7656 50.5045 18.8606 50.5996 19.0507 50.5996H19.2407C19.3358 50.5996 19.4783 50.5996 19.6208 50.5996H20.1435C20.5235 50.552 20.5235 50.0294 20.1435 50.0294C19.9534 50.0294 19.8109 50.0294 19.6208 50.0294H19.0982C19.0507 50.0294 18.9557 50.0769 18.9082 50.1244C18.8606 50.1244 18.7656 50.2195 18.7656 50.267Z" fill="#A9D4E6"/>
<path fill-rule="evenodd" clip-rule="evenodd" d="M9.59799 37.6289C10.0731 37.6289 9.88306 37.1062 9.88306 36.7737C9.88306 36.3936 9.97808 35.9185 9.55048 35.9185C9.40795 35.9185 9.31293 36.061 9.26541 36.2035V36.7737C9.26541 37.0112 9.2179 37.3913 9.36044 37.5339C9.45546 37.5814 9.50297 37.6289 9.59799 37.6289Z" fill="#A9D4E6"/>
<path fill-rule="evenodd" clip-rule="evenodd" d="M9.50186 30.2646C9.40684 30.2646 9.26431 30.3121 9.2168 30.5497L9.26431 31.69C9.35933 32.0701 9.83444 32.0225 9.83444 31.6425C9.83444 31.4999 9.83444 31.4999 9.83444 31.3574C9.83444 31.2624 9.83444 31.1673 9.83444 31.0723C9.83444 30.9298 9.83444 30.5972 9.83444 30.5022C9.78693 30.3597 9.69191 30.2646 9.54937 30.2646C9.45435 30.2646 9.50186 30.2646 9.50186 30.2646Z" fill="#A9D4E6"/>
<path fill-rule="evenodd" clip-rule="evenodd" d="M9.16992 27.6515V28.2692C9.16992 28.4592 9.16992 28.6492 9.16992 28.8393C9.16992 28.8868 9.16992 28.9343 9.16992 28.9818C9.26494 29.2669 9.74006 29.2194 9.74006 28.8868V28.3167C9.74006 28.2216 9.74006 27.6515 9.69255 27.604C9.64504 27.509 9.55001 27.4615 9.45499 27.4615H9.40748C9.31246 27.4139 9.16992 27.509 9.16992 27.6515Z" fill="#A9D4E6"/>
<path fill-rule="evenodd" clip-rule="evenodd" d="M9.35938 39.0068V39.5769C9.35938 39.7195 9.35938 39.8145 9.35938 39.957C9.35938 40.0995 9.35937 40.1946 9.40689 40.2896C9.59693 40.5747 9.92951 40.4321 9.92951 40.1471V39.5769C9.92951 39.3869 9.92951 39.2444 9.92951 39.0543C9.92951 38.5792 9.35938 38.7217 9.35938 39.0068Z" fill="#A9D4E6"/>
<path fill-rule="evenodd" clip-rule="evenodd" d="M9.26563 33.3529V34.0656C9.26563 34.1606 9.26563 34.2556 9.26563 34.3506C9.26563 34.4932 9.26562 34.5407 9.31314 34.6357C9.45567 34.8732 9.83576 34.7782 9.83576 34.5407V33.4479C9.83576 33.3054 9.83576 33.2579 9.78825 33.1628C9.64571 32.9728 9.26563 33.0678 9.26563 33.3529Z" fill="#A9D4E6"/>
<path fill-rule="evenodd" clip-rule="evenodd" d="M6.41348 36.0136C6.41348 36.2512 6.36597 36.6788 6.55602 36.6788C6.65104 36.6788 6.69855 36.5837 6.69855 36.4887V36.0136C6.69855 35.7285 6.41348 35.7285 6.41348 36.0136Z" fill="#A9D4E6"/>
<path fill-rule="evenodd" clip-rule="evenodd" d="M6.41348 38.8168C6.41348 39.1969 6.36597 39.5294 6.55602 39.5294C6.65104 39.5294 6.69855 39.4344 6.69855 39.3394V38.8643C6.69855 38.5792 6.41348 38.6267 6.41348 38.8168Z" fill="#A9D4E6"/>
<path fill-rule="evenodd" clip-rule="evenodd" d="M6.41348 34.5882C6.41348 34.8258 6.36597 35.2534 6.55602 35.2534C6.65104 35.2534 6.69855 35.1584 6.69855 35.0633V34.5882C6.69855 34.3032 6.41348 34.3507 6.41348 34.5882Z" fill="#A9D4E6"/>
<path fill-rule="evenodd" clip-rule="evenodd" d="M6.41403 37.3914C6.41403 37.914 6.36652 38.104 6.60408 38.104C6.6991 38.104 6.6991 38.009 6.6991 37.914V37.4389C6.6991 37.1538 6.41403 37.2013 6.41403 37.3914Z" fill="#A9D4E6"/>
<path fill-rule="evenodd" clip-rule="evenodd" d="M6.41348 33.353C6.41348 33.543 6.36597 33.8281 6.55602 33.8281C6.65104 33.8281 6.69855 33.7805 6.69855 33.6855V33.1154C6.69855 33.0204 6.41348 32.7828 6.41348 33.353Z" fill="#A9D4E6"/>
<path fill-rule="evenodd" clip-rule="evenodd" d="M5.03516 25.2285C5.03516 25.371 5.2252 25.466 5.36773 25.6086C5.41525 25.6561 5.51027 25.7511 5.55778 25.7511C5.6528 25.7986 5.74783 25.7036 5.74783 25.6086C5.74783 25.5135 5.46276 25.276 5.36773 25.181C5.27271 25.0859 5.27271 25.0859 5.17769 25.0859C5.08267 25.0859 5.03516 25.1334 5.03516 25.2285Z" fill="#A9D4E6"/>
<path fill-rule="evenodd" clip-rule="evenodd" d="M2.99219 23.233C2.99219 23.3755 3.0397 23.3755 3.13472 23.4705C3.22974 23.5655 3.41979 23.7556 3.51481 23.8031C3.60983 23.8506 3.70486 23.8031 3.70486 23.613C3.70486 23.5655 3.51481 23.3755 3.4673 23.328C3.41979 23.2805 3.22974 22.9954 3.08721 23.1379C3.0397 23.1379 2.99219 23.1854 2.99219 23.233Z" fill="#A9D4E6"/>
<path fill-rule="evenodd" clip-rule="evenodd" d="M6.0332 26.1787C6.0332 26.3213 6.12823 26.4163 6.27076 26.5113C6.31827 26.5588 6.36578 26.5588 6.41329 26.6538C6.55583 26.9389 6.69836 26.7013 6.69836 26.6538C6.69836 26.4638 6.69836 26.5113 6.4608 26.3213C6.41329 26.2737 6.27076 26.0837 6.17574 26.0837C6.12823 26.0362 6.0332 26.0837 6.0332 26.1787Z" fill="#A9D4E6"/>
<path fill-rule="evenodd" clip-rule="evenodd" d="M6.41406 40.2421V40.7647C6.41406 40.9072 6.5566 40.9548 6.65162 40.8597C6.74664 40.8122 6.69913 40.3371 6.69913 40.1471C6.69913 40.052 6.41406 40.0045 6.41406 40.2421Z" fill="#A9D4E6"/>
<path fill-rule="evenodd" clip-rule="evenodd" d="M1.99414 22.2353C1.99414 22.3304 2.46925 22.758 2.51676 22.758C2.70681 22.758 2.75432 22.5679 2.42174 22.2828C2.37423 22.2353 2.18419 22.0453 2.13667 22.0453C2.04165 22.0928 1.99414 22.1403 1.99414 22.2353Z" fill="#A9D4E6"/>
<path fill-rule="evenodd" clip-rule="evenodd" d="M1.23438 22.7104V23.328C1.23438 23.4706 1.51944 23.5181 1.51944 23.2805C1.51944 23.0905 1.56695 22.6629 1.47193 22.6154C1.37691 22.5203 1.23438 22.5678 1.23438 22.7104Z" fill="#A9D4E6"/>
<path fill-rule="evenodd" clip-rule="evenodd" d="M1.23438 26.0837C1.23438 26.1312 1.23438 26.1787 1.28189 26.2262C1.37691 26.3212 1.51944 26.2737 1.51944 26.1312V25.5611C1.51944 25.3235 1.23438 25.371 1.23438 25.5136V26.0837Z" fill="#A9D4E6"/>
<path fill-rule="evenodd" clip-rule="evenodd" d="M1.23438 21.1901V21.9027C1.23438 21.9978 1.28189 22.0453 1.42442 22.0453C1.51944 22.0453 1.51944 21.9503 1.51944 21.8077C1.61447 21.8077 1.66198 21.7602 1.66198 21.6652C1.66198 21.5702 1.61447 21.5226 1.51944 21.4751C1.47193 21.3801 1.3294 21.2376 1.23438 21.1901Z" fill="#A9D4E6"/>
<path fill-rule="evenodd" clip-rule="evenodd" d="M1.23438 31.2149V31.8325C1.23438 31.9751 1.51944 32.0226 1.51944 31.785C1.51944 31.595 1.56695 31.1674 1.47193 31.1199C1.37691 31.0248 1.23438 31.0724 1.23438 31.2149Z" fill="#A9D4E6"/>
<path fill-rule="evenodd" clip-rule="evenodd" d="M4.03906 24.2307C4.03906 24.3732 4.1816 24.4207 4.27662 24.5158C4.32413 24.5633 4.46666 24.7533 4.56169 24.7533C4.70422 24.7533 4.79924 24.6108 4.6092 24.4207C4.56169 24.3732 4.51418 24.3257 4.46666 24.2782C4.41915 24.2307 4.27662 24.0406 4.1816 24.0406C4.08657 24.0882 4.03906 24.1357 4.03906 24.2307Z" fill="#A9D4E6"/>
<path fill-rule="evenodd" clip-rule="evenodd" d="M6.41406 41.6199V42.19C6.41406 42.4276 6.69913 42.38 6.69913 42.2375V41.6199C6.69913 41.4773 6.41406 41.4298 6.41406 41.6199Z" fill="#A9D4E6"/>
<path fill-rule="evenodd" clip-rule="evenodd" d="M1.23438 32.5928V33.2104C1.23438 33.3529 1.51944 33.4005 1.51944 33.1629V32.5928C1.51944 32.4502 1.23438 32.4977 1.23438 32.5928Z" fill="#A9D4E6"/>
<path fill-rule="evenodd" clip-rule="evenodd" d="M1.23438 41.0973V41.7149C1.23438 41.8574 1.51944 41.905 1.51944 41.6674V41.0973C1.51944 40.9072 1.23438 41.0022 1.23438 41.0973Z" fill="#A9D4E6"/>
<path fill-rule="evenodd" clip-rule="evenodd" d="M1.23438 24.1357V24.7534C1.23438 24.8959 1.51944 24.9434 1.51944 24.7059V24.1357C1.51944 23.9457 1.23438 23.9932 1.23438 24.1357Z" fill="#A9D4E6"/>
<path fill-rule="evenodd" clip-rule="evenodd" d="M1.23438 39.672V40.2896C1.23438 40.4322 1.51944 40.4797 1.51944 40.2421V39.672C1.51944 39.5295 1.23438 39.577 1.23438 39.672Z" fill="#A9D4E6"/>
<path fill-rule="evenodd" clip-rule="evenodd" d="M1.23438 26.9389V27.5565C1.23438 27.7466 1.51944 27.7466 1.51944 27.5565C1.51944 27.0814 1.56695 26.8439 1.3294 26.8439C1.28189 26.8439 1.23438 26.8914 1.23438 26.9389Z" fill="#A9D4E6"/>
<path fill-rule="evenodd" clip-rule="evenodd" d="M1.23438 36.8688V37.439C1.23438 37.629 1.51944 37.5815 1.51944 37.439C1.51944 37.2489 1.56695 36.8213 1.47193 36.7263C1.42442 36.7263 1.23438 36.7263 1.23438 36.8688Z" fill="#A9D4E6"/>
<path fill-rule="evenodd" clip-rule="evenodd" d="M6.41406 43.0452V43.6153C6.41406 43.8054 6.69913 43.8054 6.69913 43.6153V42.9977C6.69913 42.9027 6.41406 42.8077 6.41406 43.0452Z" fill="#A9D4E6"/>
<path fill-rule="evenodd" clip-rule="evenodd" d="M6.41406 31.6901V32.3077C6.41406 32.4978 6.69913 32.4978 6.69913 32.3077V31.7376C6.69913 31.5475 6.41406 31.5 6.41406 31.6901Z" fill="#A9D4E6"/>
<path fill-rule="evenodd" clip-rule="evenodd" d="M6.41406 44.4231V45.0407C6.41406 45.2307 6.69913 45.2307 6.69913 45.0407V44.4231C6.69913 44.2805 6.41406 44.2805 6.41406 44.4231Z" fill="#A9D4E6"/>
<path fill-rule="evenodd" clip-rule="evenodd" d="M6.41406 27.4615V28.0316C6.41406 28.2217 6.69913 28.2217 6.69913 28.0316V27.414C6.69913 27.2714 6.41406 27.2714 6.41406 27.4615Z" fill="#A9D4E6"/>
<path fill-rule="evenodd" clip-rule="evenodd" d="M1.23438 34.0181V34.6357C1.23438 34.8258 1.51944 34.8258 1.51944 34.6357V34.0656C1.51944 33.8756 1.23438 33.8756 1.23438 34.0181Z" fill="#A9D4E6"/>
<path fill-rule="evenodd" clip-rule="evenodd" d="M6.41406 47.2737V47.8438C6.41406 47.9388 6.46157 47.9863 6.50909 47.9863H6.5566C6.60411 47.9863 6.69913 47.9388 6.69913 47.8438V47.2737C6.69913 47.1311 6.41406 47.0836 6.41406 47.2737Z" fill="#A9D4E6"/>
<path fill-rule="evenodd" clip-rule="evenodd" d="M6.41406 28.8393V29.457C6.41406 29.647 6.69913 29.647 6.69913 29.457V28.8393C6.69913 28.6968 6.41406 28.6968 6.41406 28.8393Z" fill="#A9D4E6"/>
<path fill-rule="evenodd" clip-rule="evenodd" d="M1.23438 29.7896V30.4073C1.23438 30.5498 1.51944 30.5973 1.51944 30.3597V29.7896C1.51944 29.5996 1.23438 29.5996 1.23438 29.7896Z" fill="#A9D4E6"/>
<path fill-rule="evenodd" clip-rule="evenodd" d="M1.23438 38.2941V38.9118C1.23438 39.0543 1.51944 39.1018 1.51944 38.8643V38.2941C1.51944 38.1041 1.23438 38.1041 1.23438 38.2941Z" fill="#A9D4E6"/>
<path fill-rule="evenodd" clip-rule="evenodd" d="M1.23438 35.4909V36.061C1.23438 36.2511 1.51944 36.2036 1.51944 36.061V35.4909C1.51944 35.3009 1.23438 35.3009 1.23438 35.4909Z" fill="#A9D4E6"/>
<path fill-rule="evenodd" clip-rule="evenodd" d="M6.41406 45.8484V46.4186C6.41406 46.6086 6.69913 46.5611 6.69913 46.4186V45.8009C6.69913 45.7059 6.41406 45.6584 6.41406 45.8484Z" fill="#A9D4E6"/>
<path fill-rule="evenodd" clip-rule="evenodd" d="M1.23438 28.4118V28.9819C1.23438 29.172 1.51944 29.1244 1.51944 28.9819V28.3643C1.51944 28.2217 1.23438 28.1742 1.23438 28.4118Z" fill="#A9D4E6"/>
<path fill-rule="evenodd" clip-rule="evenodd" d="M6.41406 30.3122V30.8824C6.41406 31.0724 6.69913 31.0724 6.69913 30.8824V30.3122C6.69913 30.1222 6.41406 30.0747 6.41406 30.3122Z" fill="#A9D4E6"/>
<path fill-rule="evenodd" clip-rule="evenodd" d="M1.23438 42.5226V42.7127C1.23438 42.9027 1.51944 42.9027 1.51944 42.7127C1.51944 42.5226 1.51944 42.4276 1.3294 42.4276C1.28189 42.4276 1.23438 42.4751 1.23438 42.5226Z" fill="#A9D4E6"/>
<path fill-rule="evenodd" clip-rule="evenodd" d="M21.5707 18.9094L21.7607 18.7194C22.806 17.2941 24.8015 17.8167 24.6114 20.1922C26.7494 20.0497 27.3196 16.4388 26.9395 15.7262C26.3693 14.4909 22.806 14.4434 21.4281 15.2986C20.8105 15.6787 20.858 16.2488 21.0005 17.104C21.1431 17.8642 21.2856 18.3868 21.5707 18.9094Z" fill="#000005"/>
<path fill-rule="evenodd" clip-rule="evenodd" d="M16.2969 13.4457C16.2969 15.4887 18.6724 16.2964 20.0028 15.0136C21.3331 13.6833 20.4304 11.3077 18.4349 11.3077C17.2471 11.3077 16.2969 12.3055 16.2969 13.4457Z" fill="#000005"/>
<path fill-rule="evenodd" clip-rule="evenodd" d="M27.3672 13.4457C27.3672 15.4412 29.7428 16.3439 31.0731 15.0136C32.4034 13.6833 31.5007 11.3077 29.5052 11.3077C28.3649 11.3077 27.3672 12.3055 27.3672 13.4457Z" fill="#000005"/>
<path fill-rule="evenodd" clip-rule="evenodd" d="M21.5703 18.9095C21.8554 19.3846 22.188 19.7171 22.6631 20.0022C23.0907 20.2398 23.9459 20.3823 24.5635 20.1923C24.7536 17.8167 22.7581 17.2941 21.7128 18.7194L21.5703 18.9095Z" fill="#E6340D"/>
<path fill-rule="evenodd" clip-rule="evenodd" d="M15.8691 16.629C15.8691 17.1991 16.1542 17.5792 16.7243 17.6267C17.9596 17.7217 17.9596 15.8213 16.7719 15.8213C16.3443 15.7737 15.8691 16.2013 15.8691 16.629Z" fill="#FAC18A"/>
<path fill-rule="evenodd" clip-rule="evenodd" d="M32.1185 16.7715C32.1185 16.2489 31.6434 15.8213 31.2158 15.8213C30.4081 15.8213 30.0281 16.7715 30.5032 17.3417C30.6932 17.5792 31.1208 17.6742 31.4534 17.5792C31.786 17.4842 32.1185 17.1041 32.1185 16.7715Z" fill="#FAC18A"/>
<path fill-rule="evenodd" clip-rule="evenodd" d="M30.4542 12.4955C30.1216 12.638 29.9791 12.8755 30.1691 13.2556C30.2641 13.4932 30.5967 13.6832 30.9293 13.5407C31.5469 13.2556 31.1668 12.1629 30.4542 12.4955Z" fill="white"/>
<path fill-rule="evenodd" clip-rule="evenodd" d="M19.3365 12.4955C18.5763 12.828 19.099 13.8258 19.8116 13.5407C20.4768 13.2556 20.0492 12.1629 19.3365 12.4955Z" fill="white"/>
</svg>
