<svg width="101" height="92" viewBox="0 0 101 92" fill="none" xmlns="http://www.w3.org/2000/svg">
<path fill-rule="evenodd" clip-rule="evenodd" d="M61.1853 84.7533C62.375 86.1737 63.8821 86.7261 64.5166 86.0159C65.2305 85.2268 64.8339 83.4118 63.7234 81.9913C63.3269 81.5178 63.0096 81.2022 62.613 80.8865C64.8339 80.0974 67.2134 77.5722 68.6411 74.1789C69.117 73.0741 69.4343 71.9693 69.593 70.9434C70.6241 70.391 71.4966 69.6808 72.1311 68.7338C72.845 68.8127 73.6382 68.7338 74.352 68.576C77.0488 68.0236 79.1111 66.0507 79.9836 63.6044C82.9184 61.8683 84.9013 58.2383 84.9013 54.0559C84.9013 50.9782 84.0288 48.2952 82.2838 46.3223C82.9184 45.691 83.2356 44.9019 83.5529 44.0338C87.5188 43.6393 88.5499 40.167 87.2015 36.7738C86.9635 36.1424 86.567 35.5111 86.0911 34.9588C85.6151 34.4064 85.0599 33.9329 84.584 33.6172C84.1081 33.3016 83.7908 33.1437 83.4736 32.9859C84.5047 31.8811 85.2186 30.3028 85.2979 28.4878L96.9576 7.18113C97.0369 7.10221 97.1162 7.10223 97.1956 7.10223C97.3542 7.10223 97.5128 7.18113 97.7508 7.18113C97.9887 7.18113 98.306 7.10223 98.6233 7.02331C98.9406 6.86549 99.2578 6.70765 99.5751 6.47091C99.813 6.23417 100.051 5.99743 100.13 5.68177C100.21 5.44503 100.289 5.12937 100.289 4.89263C100.289 4.65589 100.21 4.34023 100.13 4.02458C99.9717 3.70892 99.7337 3.31437 99.4958 2.99871C99.2578 2.68306 99.0199 2.44632 98.7819 2.28849C98.544 2.13066 98.306 2.05176 97.9887 1.97284C97.7508 1.89393 97.4335 1.89393 97.1162 1.97284C96.799 2.05176 96.561 2.13066 96.323 2.28849C96.0851 2.44632 96.0058 2.68306 95.8472 3.07763C95.6885 3.39328 95.6092 3.86677 95.5299 4.26133C95.4506 4.6559 95.3712 5.12939 95.2919 5.52396L84.822 25.4891C84.5047 24.5421 83.9495 23.6741 83.2356 23.0428C84.1874 21.6223 84.7427 19.8073 84.7427 17.9134C84.7427 14.9936 83.4736 12.3894 81.4906 10.8901C81.6493 8.60158 80.6181 6.47092 78.3972 5.05047C76.4936 3.78785 74.0348 3.31437 71.4966 3.55112C70.0689 1.42045 67.6893 0 64.9925 0C63.4062 0 61.9784 0.473468 60.7094 1.34152C59.5989 0.631295 58.3298 0.157813 56.9814 0.157813C54.5226 0.157813 52.381 1.57825 51.0326 3.63001C47.9392 2.91979 44.4492 4.41915 42.4663 7.57569C41.9903 8.36483 41.5938 9.15397 41.3558 10.022C39.6901 10.6533 38.1831 11.837 37.152 13.4942C34.8518 17.0453 35.3277 21.4645 38.1831 23.6741C38.0245 23.8319 37.8658 24.0687 37.7865 24.2265C36.3588 26.4361 36.0415 28.8824 36.5967 31.0131C35.9622 31.2498 35.3277 31.4865 34.5345 31.8022C33.7413 32.1179 32.7895 32.6702 31.7583 33.2226C30.7272 33.854 29.7754 34.5642 28.7443 35.3533C27.7132 36.1425 26.7613 36.9316 25.8095 37.7996C24.7784 38.6677 23.7473 39.6936 22.4782 40.8773C21.1298 42.1399 19.5434 43.6393 18.0364 44.823C16.6087 46.0067 15.3396 46.9536 14.0705 47.7428C12.8807 48.5319 11.6909 49.1632 10.8978 49.6367C10.0253 50.1102 9.47005 50.3469 8.8355 50.5837C8.20096 50.8204 7.56642 51.0572 6.93188 51.2939C6.29734 51.4517 5.6628 51.5306 5.02826 51.5306C4.39371 51.5306 3.67983 51.4517 3.12461 51.3728C2.56939 51.2939 2.1728 51.1361 1.93484 51.0571C1.69689 50.9782 1.53825 50.8993 1.37961 50.8204C1.22097 50.7415 1.14165 50.7415 0.983017 50.6626C0.824387 50.6626 0.586472 50.6626 0.427834 50.7415C0.269196 50.8993 0.110565 51.215 0.0312424 51.5306C-0.0480728 51.9252 0.0312042 52.3198 0.189842 52.8722C0.34848 53.4246 0.745102 54.2137 1.22102 55.0817C1.77624 55.9498 2.41076 56.8179 3.20393 57.607C3.99711 58.3961 4.86962 59.0274 5.82143 59.5798C6.77325 60.1322 7.80437 60.6846 8.91483 61.0003C9.94596 61.3948 11.0564 61.6316 12.0875 61.7894C13.1187 61.9472 13.9912 62.1051 15.1016 62.1051C16.2121 62.184 17.4811 62.1051 18.9882 61.9472C20.4952 61.7894 22.2402 61.4737 24.6197 60.8424C26.9993 60.2111 29.934 59.1852 31.8377 58.5539C33.7413 57.8437 34.6138 57.5281 35.0897 57.2913C35.6449 57.0546 35.8036 56.9757 36.0415 56.8967C36.8347 59.5798 38.659 61.6316 40.8799 62.4996C42.0697 66.6031 45.7976 69.2073 49.4462 68.2603C49.7635 68.1814 50.1601 68.1025 50.4774 67.9447C51.5085 70.0753 53.2535 71.6536 55.2364 72.206C55.3951 74.1789 54.9985 76.4674 54.0467 78.8348C52.9362 81.5967 51.2705 83.8852 49.5255 85.3057C47.8599 86.6472 48.6531 88.3833 49.8428 89.8827C51.0326 91.382 52.5396 91.9344 53.1742 91.2242C53.8087 90.4351 53.3328 88.6201 52.143 87.1996C51.7464 86.7261 51.3499 86.3316 50.8739 86.0948C52.6189 84.6744 54.2846 82.3859 55.3951 79.6239C56.4262 76.9408 56.8228 74.4156 56.5055 72.3638C57.1401 72.4427 57.7746 72.3638 58.4885 72.206C59.6782 71.8904 60.7094 71.259 61.5819 70.391C63.2475 71.4169 65.3098 71.7325 67.2927 71.338C67.3721 71.338 67.4514 71.338 67.5307 71.259C67.3721 71.8114 67.2134 72.3638 66.9755 72.9162C65.5477 76.3095 63.1682 78.9137 60.868 79.7028C59.0437 80.7287 60.0748 83.3328 61.1853 84.7533Z" fill="white"/>
<path fill-rule="evenodd" clip-rule="evenodd" d="M58.3298 61.0003C59.2023 61.237 60.3127 61.4738 61.2646 61.6316C62.2164 61.7894 63.0095 61.7105 63.5648 61.6316C64.1993 61.5527 64.5959 61.3949 64.9925 61.1581C65.3891 60.9214 65.7857 60.5268 66.0236 60.2112C66.2616 59.8955 66.4202 59.5799 66.4995 59.422C66.5789 59.2642 66.5789 59.2642 66.4202 59.422C66.2616 59.5799 65.9443 59.8955 65.5477 60.1323C65.1511 60.369 64.5959 60.5268 64.12 60.6847C63.6441 60.7636 63.1682 60.8425 62.613 60.7636C62.137 60.6847 61.5818 60.6057 61.1852 60.4479C60.7887 60.369 60.5507 60.2112 60.4714 60.2112C60.3921 60.1323 60.3921 60.1323 60.5507 59.9744C60.7093 59.8166 61.1059 59.422 61.3439 58.8696C61.6612 58.3961 61.8198 57.6859 61.9784 57.3703C62.0577 57.0546 62.0577 57.0546 62.0577 57.0546C62.0577 57.0546 62.0577 57.0546 61.9784 57.2125C61.8991 57.3703 61.7405 57.6859 61.4232 58.0805C61.1059 58.3961 60.7093 58.7907 60.1541 59.1064C59.5989 59.422 58.9643 59.7377 58.2505 59.8955C57.6159 60.1323 56.9021 60.2901 56.5848 60.369C56.2675 60.4479 56.2675 60.4479 56.5055 60.5268C56.9021 60.6057 57.4573 60.7636 58.3298 61.0003ZM50.636 17.5977C49.9221 18.2291 49.0496 18.5447 48.0978 18.3869C46.1942 18.1501 44.8458 16.1773 45.163 13.9677C45.3217 13.0207 45.7183 12.1527 46.3528 11.5214C46.1149 11.9949 45.8769 12.5473 45.7976 13.1786C45.4803 15.546 46.908 17.5977 48.9703 17.9134C49.5255 17.9134 50.0808 17.8345 50.636 17.5977ZM52.0637 25.647C51.3498 26.4361 50.3187 26.9096 49.2876 26.9096C47.0667 26.9096 45.2424 24.8578 45.2424 22.3326C45.2424 21.2278 45.639 20.123 46.1942 19.3339C45.9562 19.9652 45.8769 20.5965 45.8769 21.3067C45.8769 23.9898 47.7805 26.1993 50.1601 26.1993C50.8739 26.1204 51.5085 25.9626 52.0637 25.647ZM57.7746 29.0402C60.7093 31.96 63.3268 32.1179 65.627 28.4878C64.9132 28.9613 64.1993 29.4348 63.4855 29.6715C62.7716 29.9083 62.2164 29.9872 61.6612 29.9872C61.1852 29.9872 60.7887 29.9872 60.5507 29.9872C60.3128 29.9872 60.1541 30.0661 59.9955 29.9872C59.8368 29.9872 59.5989 29.9083 59.2023 29.7505C58.885 29.5926 58.3298 29.277 57.7746 29.0402ZM72.9243 28.1722C76.0177 31.1709 78.7938 31.3287 81.1733 27.462C80.5388 27.8565 79.9042 28.2511 79.1904 28.6457C78.4765 28.9613 77.5247 29.277 76.9695 29.3559C76.3349 29.5137 75.9384 29.5137 75.6211 29.4348C75.3038 29.3559 75.0659 29.1981 74.7486 29.0402C74.4313 28.8824 74.1934 28.7246 73.8761 28.5668C73.5588 28.4089 73.2415 28.2511 73.0829 28.1722C72.9243 28.1722 72.9243 28.1722 72.9243 28.1722ZM43.0215 30.2239C43.4181 29.9083 42.8628 29.5137 42.4662 29.1192C42.0696 28.7246 41.8317 28.2511 41.6731 27.6987C41.5144 27.1463 41.4351 26.515 41.4351 26.0415C41.4351 25.4891 41.5144 25.0156 41.6731 24.5421C41.8317 24.0687 42.149 23.5952 42.3869 23.2795C42.6249 22.9639 42.8628 22.7271 43.0215 22.6482C43.1801 22.5693 43.1801 22.5693 43.0215 22.3326C42.8628 22.1747 42.5456 21.7802 42.149 21.2278C41.7524 20.5965 41.3558 19.8073 41.1179 19.0971C40.8799 18.3869 40.8006 17.9134 40.7213 17.2821C40.7213 16.6508 40.8006 15.9405 41.0385 15.0725C41.2765 14.2834 41.6731 13.4153 41.9903 12.7051C42.3076 12.0738 42.5456 11.6003 42.5456 11.2846C42.6249 10.969 42.5456 10.8112 42.2283 10.8112C41.911 10.8112 41.4351 10.969 40.5626 11.4425C39.7694 11.916 38.659 12.784 37.9451 13.8099C37.2313 14.8358 36.8347 16.0195 36.7554 17.2821C36.6761 18.4658 36.9933 19.7284 37.3106 20.7543C37.7072 21.7802 38.1831 22.5693 38.421 23.2795C38.659 23.9898 38.659 24.5421 38.421 25.3313C38.1831 26.1204 37.7072 26.9885 37.4692 27.8565C37.2313 28.6457 37.1519 29.3559 37.2313 29.9083C37.3106 30.4607 37.4692 30.8553 37.9451 31.092C38.421 31.2498 39.2142 31.2498 40.2453 31.0131C41.3558 30.8553 42.6249 30.5396 43.0215 30.2239ZM72.1311 44.5863C72.4484 44.823 72.607 45.1387 72.607 45.3754C72.607 45.6121 72.4484 45.9278 72.2897 46.0856C72.1311 46.2434 71.8138 46.2434 71.4966 46.2434C71.1793 46.1645 70.862 46.0067 70.4654 45.691C70.0688 45.3754 69.5929 44.9808 69.2757 44.6651C68.9584 44.3495 68.7997 44.1128 68.6411 43.9549C68.4825 43.7971 68.3238 43.5604 68.2445 43.4814C68.1652 43.4025 68.1652 43.4025 67.6893 43.7182C67.2134 44.0339 66.2616 44.6652 65.5477 45.1386C64.8339 45.6121 64.2786 45.9278 63.9614 46.0856C63.6441 46.2434 63.4855 46.2434 63.2475 46.0856C63.0096 46.0067 62.7716 45.77 62.5337 45.3754C62.2957 45.0597 61.9784 44.5862 61.7405 43.876C61.5025 43.1658 61.2646 42.1399 61.1852 41.3508C61.0266 40.4827 60.9473 39.8514 60.9473 39.5358C60.9473 39.2201 60.9473 39.2201 60.3921 39.1412C59.9162 39.1412 58.9643 39.0623 57.8539 38.9834C56.7434 38.9834 55.4744 38.9834 54.2053 39.0623C52.9362 39.1412 51.6671 39.299 50.398 39.5358C49.1289 39.7725 47.8599 40.1671 46.6701 40.7195C45.5596 41.1929 44.5285 41.8243 44.0526 42.1399C43.5767 42.4556 43.5767 42.4556 43.5767 43.7971C43.5767 45.1387 43.5767 47.8217 43.894 49.4789C44.1319 51.1361 44.6078 51.8463 44.8458 52.162C45.0837 52.4776 45.0837 52.4776 45.0837 52.8722C45.0837 53.1879 45.0837 53.8981 45.3217 54.5294C45.4803 55.1607 45.7976 55.7131 46.2735 56.2655C46.7494 56.8179 47.3046 57.2914 47.7805 57.607C48.2564 57.9227 48.7324 58.0016 48.9703 58.0805C49.2083 58.1594 49.2083 58.1594 49.2083 58.3172C49.2083 58.4751 49.1289 58.8696 49.2083 59.3431C49.2876 59.8166 49.5255 60.4479 49.8428 61.0792C50.1601 61.7105 50.5567 62.3418 51.1912 62.8153C51.7464 63.3677 52.5396 63.7623 53.2535 64.0779C53.9673 64.3147 54.6812 64.4725 55.3157 64.3936C55.9503 64.3147 56.5055 64.1569 56.8228 64.0779C57.14 63.999 57.14 63.999 57.2194 64.1569C57.378 64.3936 57.6159 64.7882 58.2505 65.1827C58.885 65.5773 59.8368 65.9719 60.7887 66.0508C61.7405 66.2086 62.613 66.1297 63.3268 65.893C64.0407 65.6562 64.5959 65.2617 64.9925 64.946C65.3098 64.6303 65.4684 64.4725 65.5477 64.3936C65.627 64.3147 65.627 64.3147 65.7857 64.4725C65.9443 64.6303 66.3409 65.0249 66.8168 65.2616C67.2927 65.5773 67.8479 65.7351 68.4032 65.893C68.9584 66.0508 69.5136 66.1297 70.0688 66.1297C70.6241 66.1297 71.1 66.0508 71.4966 65.893C71.8931 65.7351 72.0518 65.5773 72.2104 65.4984C72.2897 65.4195 72.2897 65.4195 72.607 65.4984C72.845 65.5773 73.4002 65.7351 73.9554 65.7351C74.5106 65.814 74.9865 65.814 75.5418 65.7351C76.0177 65.6562 76.4936 65.4984 76.8902 65.1827C77.2867 64.8671 77.604 64.3936 77.842 63.7623C78.0799 63.131 78.3179 62.3419 78.3972 61.9473C78.4765 61.5527 78.4765 61.5527 78.6352 61.5527C78.7145 61.5527 78.9524 61.4738 79.349 61.237C79.7456 61.0003 80.3801 60.5268 81.0147 59.9744C81.5699 59.501 82.1251 58.9485 82.6804 58.0805C83.2356 57.2124 83.7115 56.1077 84.0288 55.5553C84.2667 55.0029 84.2667 55.0029 83.7908 56.1866C83.3149 57.3703 82.3631 59.7377 81.2526 61.5527C80.1422 63.3677 78.9524 64.6303 77.604 65.6562C76.3349 66.6032 74.9072 67.3134 74.0347 67.6291C73.1622 67.9447 72.7656 67.8658 72.3691 67.9447C71.9725 68.0236 71.4965 68.3393 70.6241 68.8917C69.7516 69.4441 68.4032 70.2332 67.2134 70.5489C66.1029 70.8645 65.1511 70.6278 64.358 70.391C63.4855 70.1543 62.7716 69.9176 62.0577 70.0754C61.3439 70.1543 60.63 70.5489 59.9162 70.8645C59.123 71.1802 58.2505 71.4169 57.2987 71.4169C56.3469 71.4169 55.395 71.1802 54.4432 70.7067C53.5707 70.1543 52.6982 69.3652 52.143 68.6549C51.5878 67.9447 51.3498 67.3134 51.0326 67.1556C50.636 66.9977 50.1601 67.2345 49.3669 67.3134C48.5737 67.4712 47.5426 67.4712 46.4321 66.9978C45.3217 66.5243 44.2112 65.6562 43.4181 64.6303C42.6249 63.6045 42.3076 62.4997 41.6731 61.7894C41.1178 61.0792 40.2454 60.6846 39.5315 60.0533C38.7383 59.422 38.0244 58.6329 37.6278 57.7648C37.2313 56.8968 37.0726 56.0287 36.9933 55.0029C36.914 53.8981 36.914 52.6354 37.2313 51.4517C37.5485 50.3469 38.1831 49.3211 38.659 48.6108C39.1349 47.9006 39.6108 47.5061 39.9281 47.2693C40.3247 46.9537 40.6419 46.7169 40.6419 46.5591C40.6419 46.4013 40.404 46.1645 40.0867 45.77C39.6901 45.2965 39.2935 44.5863 38.8176 43.7971C38.421 43.0869 38.0244 42.2978 38.0244 41.7454C38.0244 41.193 38.421 40.7984 39.3728 40.3249C40.3247 39.8514 41.8317 39.3779 43.2594 38.8255C44.6871 38.2731 45.9562 37.6418 47.5426 37.2473C49.0496 36.8527 50.8739 36.6159 53.4914 36.7738C56.1089 36.9316 59.5196 37.4051 61.4232 37.7997C63.3268 38.1942 63.8027 38.5099 63.9614 39.1412C64.12 39.7725 63.882 40.7195 63.8027 41.6664C63.7234 42.6134 63.882 43.5604 63.9614 44.0339C64.0407 44.5862 64.12 44.6651 64.358 44.6651C64.6752 44.6651 65.1511 44.5073 65.865 44.1128C66.5788 43.7182 67.4514 43.1658 68.0859 42.8501C68.7204 42.5345 69.1963 42.5345 69.5929 42.6923C69.9895 42.8501 70.3068 43.2447 70.7827 43.5604C71.2586 44.1128 71.7345 44.3495 72.1311 44.5863Z" fill="#C5C6C6"/>
<path fill-rule="evenodd" clip-rule="evenodd" d="M85.9324 36.8527C85.2186 35.8268 84.0288 34.722 82.7597 34.0118C81.4906 33.3016 80.1422 32.907 78.7938 32.8281C77.4454 32.7492 76.1763 32.907 75.0659 33.2226C73.9554 33.5383 73.0036 33.9329 72.1311 34.1696C71.2586 34.3274 70.4654 34.3274 69.8309 34.2485C69.1963 34.2485 68.7204 34.2485 68.2445 34.4063C67.7686 34.5642 67.2927 34.8798 66.6582 34.722C65.9443 34.6431 65.0718 34.0907 64.12 33.5383C63.1682 32.9859 62.1371 32.4335 60.2334 31.8811C58.3298 31.3287 55.5537 30.8552 52.7776 30.5396C50.0808 30.2239 47.384 30.145 44.6078 30.4606C41.8317 30.7763 38.897 31.4865 36.4381 32.4335C33.9793 33.3805 31.9963 34.5642 29.9341 36.1425C27.8718 37.7207 25.5716 39.7725 23.3507 41.6664C21.1298 43.5604 18.9089 45.2965 16.7673 46.7958C14.6257 48.3741 12.6428 49.7157 10.7391 50.5837C8.83552 51.5307 7.09054 52.0831 5.74213 52.2409C4.39373 52.4776 3.44191 52.3198 2.72804 52.162C2.01418 52.0042 1.45899 51.8463 1.22104 52.0042C1.0624 52.2409 1.14171 52.7933 1.45898 53.4246C1.69694 54.0559 2.17284 54.6872 2.56943 55.3975C2.96601 56.1077 3.44192 56.8179 4.15578 57.3703C4.86964 58.0016 5.74213 58.554 7.24917 59.1853C8.75621 59.8167 10.8185 60.5269 13.0394 60.9214C15.2603 61.316 17.7191 61.3949 20.5745 61.0004C23.43 60.6058 26.682 59.8166 29.2995 58.9486C31.917 58.1595 33.8999 57.3703 35.0897 56.8179C36.2795 56.2655 36.5968 55.9499 36.7554 55.3185C36.914 54.7661 36.8347 53.8981 36.9933 52.8722C37.152 51.8463 37.4692 50.6626 37.8658 49.7946C38.1831 48.9265 38.5797 48.453 39.1349 47.9796C39.6902 47.5061 40.4833 46.8748 40.642 46.4013C40.8006 45.9278 40.2454 45.5332 39.6901 44.9808C39.2142 44.4284 38.7383 43.7971 38.421 43.2447C38.1038 42.6923 37.9451 42.1399 38.0245 41.7454C38.1831 41.3508 38.5797 40.9562 39.6108 40.4038C40.5626 39.8514 42.149 39.2201 43.8147 38.6677C45.4803 38.1153 47.384 37.7207 49.5255 37.4051C51.6671 37.0894 54.2053 36.9316 56.5055 37.0105C58.885 37.0894 61.1059 37.484 62.2957 37.8786C63.5648 38.2731 63.7234 38.5888 63.8027 39.1412C63.882 39.6936 63.8027 40.4827 63.8027 41.6664C63.7234 42.7712 63.7234 44.2706 64.0407 44.9019C64.4373 45.5332 65.1511 45.2176 65.7857 44.9019C66.3409 44.5863 66.7375 44.3495 67.2134 43.9549C67.6893 43.4815 68.4032 42.9291 68.9584 42.6923C69.5136 42.4556 70.0688 42.6134 70.5447 43.008C71.0206 43.4815 71.4966 44.1917 71.8138 44.5863C72.1311 44.9808 72.2897 44.9808 72.5277 44.5863C72.7656 44.1917 73.0829 43.4815 73.1622 42.4556C73.2416 41.4297 73.1622 40.246 73.0036 39.3779C72.845 38.5888 72.6863 38.1942 73.0036 37.9575C73.3209 37.7996 74.1934 37.7207 75.3831 38.0364C76.5729 38.352 78.2386 38.9044 79.5077 39.6147C80.7768 40.3249 81.8079 41.2719 82.4424 41.9032C83.077 42.5345 83.3942 42.7712 83.9495 42.8501C84.5047 42.9291 85.2185 42.8502 85.7738 42.2188C86.329 41.6664 86.6463 40.5616 86.7256 39.5358C86.9635 38.8255 86.6463 37.8786 85.9324 36.8527Z" fill="#ED694A"/>
<path fill-rule="evenodd" clip-rule="evenodd" d="M80.1422 40.0882C81.0147 40.6406 81.8079 41.4297 82.4424 41.9821C82.9977 42.6134 83.3943 43.0869 83.7115 43.2448C84.0288 43.4026 84.3461 43.2447 84.4254 43.0869C84.584 42.9291 84.5047 42.7713 84.5047 42.5345C84.4254 42.2978 84.3461 42.0611 84.1874 41.7454C84.0288 41.4297 83.7115 41.0352 83.3149 40.5617C82.9184 40.0882 82.3631 39.6936 81.8079 39.2201C81.2527 38.8256 80.6974 38.431 80.0629 38.1154C79.4284 37.7997 78.7938 37.4051 78.0007 37.1684C77.2075 36.8527 76.1763 36.616 75.5418 36.4582C74.9073 36.3003 74.59 36.3004 74.5107 36.2214C74.352 36.2214 74.352 36.2214 74.352 36.0636C74.352 35.9058 74.352 35.669 74.2727 35.3534C74.1934 35.0377 74.0348 34.7221 73.9555 34.4064C73.7968 34.1697 73.7175 34.0118 73.3209 34.0118C72.9243 34.0908 72.3691 34.3275 72.0518 34.7221C71.8139 35.1167 71.8139 35.5901 71.8932 35.9847C71.9725 36.3003 72.0518 36.4582 71.9725 36.4582C71.8932 36.4582 71.6552 36.3793 71.4173 36.3004C71.1793 36.2214 70.9414 36.0636 70.7827 36.0636C70.5448 35.9847 70.3862 35.9847 70.0689 35.9847C69.7516 35.9847 69.355 36.0636 69.1171 36.0636C68.8791 36.0636 68.8791 36.0636 68.7205 35.9058C68.5618 35.748 68.1653 35.3534 67.61 35.1167C67.0548 34.9588 66.3409 34.9588 66.0237 35.1167C65.7064 35.1956 65.7857 35.4323 65.7064 35.5901C65.7064 35.7479 65.5477 35.9058 65.3891 36.0636C65.2305 36.1425 64.9132 36.2214 64.5959 36.3004C64.2787 36.3004 63.8028 36.3004 63.3269 36.2214C62.851 36.1425 62.2164 36.0636 61.6612 35.9847C61.106 35.9058 60.5507 35.9058 59.9162 35.8269C59.2816 35.8269 58.6471 35.8269 58.0919 35.8269C57.4573 35.8269 56.9021 35.8269 56.0296 35.9847C55.1571 36.0636 53.9674 36.3004 51.0326 37.0106C48.0979 37.7997 43.4974 39.1412 40.8006 40.1671C38.1038 41.193 37.3899 41.9821 35.2483 43.5604C33.1068 45.0598 29.6168 47.3483 27.5545 48.532C25.413 49.7157 24.6991 49.7157 24.3025 49.7946C23.9059 49.8735 23.7473 50.0313 23.7473 50.2681C23.7473 50.4259 23.8266 50.5837 24.0646 50.8205C24.3025 51.0572 24.6991 51.215 24.8577 51.3729C25.0164 51.4518 25.0164 51.4518 24.6198 51.9253C24.1439 52.3198 23.2714 53.1879 22.3196 53.977C21.4471 54.6872 20.4952 55.3185 19.5434 55.792C18.5916 56.2655 17.6398 56.6601 16.8466 56.8968C15.9741 57.2125 15.2603 57.3703 14.3878 57.5281C13.5153 57.686 12.5635 57.8438 11.6117 57.8438C10.6598 57.9227 9.70803 57.8438 8.91486 57.8438C8.12168 57.7649 7.32849 57.686 6.77326 57.5281C6.21804 57.4492 5.74214 57.2914 5.26624 57.1336C4.79032 56.9757 4.2351 56.739 4.07646 56.9757C3.91783 57.1336 4.23511 57.686 5.02829 58.3962C5.82146 59.1064 7.09055 59.8955 8.51826 60.5268C9.94598 61.1582 11.6116 61.4738 13.8325 61.5527C16.1328 61.6317 18.9882 61.3949 22.0816 60.7636C25.175 60.1323 28.5063 59.1064 30.9652 58.3173C33.424 57.5281 35.0104 57.0546 35.8036 56.2655C36.5968 55.5553 36.5968 54.5294 36.6761 53.6614C36.7554 52.7933 36.8347 51.9253 37.2313 51.0572C37.5486 50.1892 38.1038 49.2422 38.7383 48.532C39.3729 47.8218 40.0074 47.4272 40.1661 47.0326C40.3247 46.638 39.9281 46.3224 39.6108 45.8489C39.2142 45.3754 38.8177 44.823 38.5797 44.1917C38.2624 43.6393 38.1038 43.008 38.1038 42.5345C38.1038 42.0611 38.3417 41.6665 38.897 41.2719C39.3729 40.9563 40.1661 40.7195 41.1179 40.4039C41.9904 40.0882 43.0215 39.6936 43.894 39.378C44.7665 39.0623 45.401 38.9045 46.1942 38.6678C46.9874 38.431 47.8599 38.1943 49.129 37.8786C50.3187 37.6419 51.9051 37.4051 53.8087 37.3262C55.7124 37.3262 58.0919 37.4841 59.7576 37.7997C61.4232 38.1154 62.4544 38.5099 63.3269 38.431C64.2787 38.2732 65.1512 37.563 65.7064 37.1684C66.3409 36.7738 66.6582 36.616 66.9755 36.616C67.2927 36.6949 67.61 36.9317 67.9273 37.6419C68.2446 38.3521 68.5618 39.6147 68.7998 40.5617C69.0377 41.5876 69.355 42.2978 69.8309 43.008C70.3068 43.6393 71.0207 44.1917 71.5759 44.3495C72.0518 44.5863 72.3691 44.5074 72.4484 44.3495C72.5277 44.2706 72.4484 44.1128 72.3691 43.955C72.2898 43.8761 72.1311 43.7971 71.9725 43.5604C71.8139 43.4026 71.5759 43.008 71.3379 42.7713C71.1 42.4556 70.8621 42.14 70.7827 41.9032C70.6241 41.5876 70.5448 41.3508 70.5448 41.0352C70.5448 40.7195 70.5448 40.4039 70.5448 40.0882C70.5448 39.7725 70.5448 39.5358 70.5448 39.2991C70.5448 39.0623 70.5448 38.9045 70.4655 38.6678C70.3862 38.431 70.3068 38.1943 70.3861 38.0364C70.4655 37.8786 70.7034 37.8786 71.2586 37.8786C71.8139 37.8786 72.7657 37.8786 73.7968 38.1154C74.8279 38.2732 76.0177 38.5888 77.1282 38.9045C78.2386 39.2991 79.1904 39.5358 80.1422 40.0882Z" fill="#B94107"/>
<path fill-rule="evenodd" clip-rule="evenodd" d="M84.584 35.4323L85.9324 36.9316C85.8531 37.4051 85.7738 37.8786 85.6151 38.3521C85.1392 39.8514 84.2667 41.1141 83.3149 41.9032L82.2045 40.9562C83.1563 40.1671 83.8702 38.9834 84.2667 37.6418C84.4254 36.9316 84.584 36.1425 84.584 35.4323Z" fill="#FAC18A"/>
<path fill-rule="evenodd" clip-rule="evenodd" d="M79.587 39.2202L78.2386 38.6678C78.7938 37.6419 79.1111 36.3003 79.0318 34.8798C78.9524 34.0907 78.7938 33.3805 78.5558 32.7491L80.0629 32.907C80.3008 33.5383 80.4595 34.3274 80.5388 35.1166C80.6181 36.6949 80.2215 38.1943 79.587 39.2202Z" fill="#FAC18A"/>
<path fill-rule="evenodd" clip-rule="evenodd" d="M74.352 33.3805L73.0036 33.9329C73.0829 34.1696 73.1623 34.3275 73.2416 34.5642C73.6382 35.7479 73.7175 36.9316 73.5588 37.9575L75.0659 38.0364C75.3039 36.9316 75.2246 35.669 74.828 34.4064C74.6693 34.0907 74.5107 33.6962 74.352 33.3805Z" fill="#FAC18A"/>
<path fill-rule="evenodd" clip-rule="evenodd" d="M61.3439 37.6418L59.9162 37.3262C60.3921 36.3003 60.5507 34.9588 60.3921 33.6172C60.3128 33.2227 60.2335 32.8281 60.1542 32.4335L61.7405 32.7492C61.8198 33.0649 61.8991 33.4594 61.9784 33.7751C62.0578 35.1955 61.8198 36.5371 61.3439 37.6418Z" fill="#FAC18A"/>
<path fill-rule="evenodd" clip-rule="evenodd" d="M54.6812 31.0131L53.0949 30.8552C53.3328 31.4865 53.4915 32.1179 53.5708 32.8281C53.7294 34.2485 53.4915 35.5901 53.0156 36.6949L54.6019 36.7738C55.0778 35.7479 55.3157 34.4064 55.1571 32.9859C55.1571 32.2757 54.9192 31.6444 54.6812 31.0131Z" fill="#FAC18A"/>
<path fill-rule="evenodd" clip-rule="evenodd" d="M46.0355 37.7997L44.5285 38.0364C45.0837 36.6949 45.0837 34.8799 44.3699 33.0649C44.0526 32.2757 43.5767 31.5655 43.0215 30.9342L44.5285 30.6185C45.0837 31.1709 45.4803 31.9601 45.8769 32.7492C46.6701 34.5642 46.6701 36.4582 46.0355 37.7997Z" fill="#FAC18A"/>
<path fill-rule="evenodd" clip-rule="evenodd" d="M68.7998 37.3262L68.6411 36.9316C68.9584 36.1424 69.117 35.2744 69.1964 34.4063L70.7034 34.8009C70.7034 35.6689 70.4655 36.4581 70.2275 37.1683L68.7998 37.3262Z" fill="#FAC18A"/>
<path fill-rule="evenodd" clip-rule="evenodd" d="M73.0829 34.1697C73.1623 34.3275 73.1623 34.4853 73.2416 34.5642C73.6382 35.7479 73.7175 36.9316 73.5589 37.9575L75.0659 38.0364C75.1452 37.484 75.2245 36.9317 75.1452 36.3003C74.7486 36.2214 74.59 36.2214 74.4313 36.1425C74.2727 36.1425 74.2727 36.1425 74.2727 35.9847C74.2727 35.8268 74.2727 35.5901 74.1934 35.2744C74.1141 34.9588 73.9554 34.6431 73.8761 34.3275C73.7175 34.0908 73.6382 33.9329 73.2416 33.9329C73.1623 34.0908 73.1623 34.1697 73.0829 34.1697Z" fill="#ED6A38"/>
<path fill-rule="evenodd" clip-rule="evenodd" d="M78.7145 37.4052C79.1904 37.6419 79.6663 37.8786 80.0629 38.1154C79.9042 38.5099 79.7456 38.9045 79.5077 39.2202L78.1593 38.6678C78.3972 38.2732 78.5559 37.8786 78.7145 37.4052Z" fill="#ED6A38"/>
<path fill-rule="evenodd" clip-rule="evenodd" d="M82.9183 40.1671C83.077 40.3249 83.1563 40.4039 83.3149 40.5617C83.5529 40.7984 83.7908 41.1141 83.9495 41.3508C83.7115 41.5876 83.4735 41.7454 83.3149 41.9032L82.2045 40.9562C82.4424 40.7195 82.6804 40.4828 82.9183 40.1671Z" fill="#ED6A38"/>
<path fill-rule="evenodd" clip-rule="evenodd" d="M68.8791 36.1425C68.7998 36.4581 68.7204 36.6949 68.6411 36.9316L68.7998 37.3262L70.2275 37.0894C70.3861 36.7738 70.4654 36.3792 70.5447 35.9846C70.3861 35.9846 70.2275 35.9846 70.0689 35.9846C69.7516 35.9846 69.355 36.0635 69.117 36.0635C68.9584 36.1425 68.9584 36.1425 68.8791 36.1425Z" fill="#ED6A38"/>
<path fill-rule="evenodd" clip-rule="evenodd" d="M60.3128 35.9058C60.2335 36.3792 60.0748 36.8527 59.9162 37.3262L61.3439 37.6418C61.5819 37.1684 61.7405 36.616 61.8991 35.9847C61.8198 35.9847 61.6612 35.9847 61.5818 35.9847C61.5025 35.9847 61.3439 35.9847 61.2646 35.9847C61.106 35.9847 61.0266 35.9847 60.868 35.9847C60.6301 35.9057 60.4714 35.9058 60.3128 35.9058Z" fill="#ED6A38"/>
<path fill-rule="evenodd" clip-rule="evenodd" d="M36.3588 32.3547L34.8517 32.986C36.0415 34.4064 37.152 36.4582 37.7072 38.9045C37.8658 39.5358 37.9452 40.246 38.0245 40.8773L39.6108 40.3249C39.5315 39.6936 39.4522 39.0623 39.2936 38.431C38.7383 35.9058 37.6279 33.7751 36.3588 32.3547Z" fill="#FAC18A"/>
<path fill-rule="evenodd" clip-rule="evenodd" d="M33.8206 44.2706L32.3136 44.7441C32.2343 43.7971 31.9963 42.6923 31.679 41.6664C31.1238 39.8514 30.2513 38.1942 29.2995 36.9316L30.3306 35.9846C31.5204 37.2472 32.5515 39.1412 33.2654 41.3508C33.5033 42.3767 33.662 43.3236 33.8206 44.2706Z" fill="#FAC18A"/>
<path fill-rule="evenodd" clip-rule="evenodd" d="M22.2402 61.4738L20.7332 61.3159C22.3988 59.0274 23.3507 55.1607 23.1127 50.7415C22.9541 47.9006 22.3195 45.3754 21.3677 43.4025L22.5575 42.3766C23.7472 44.5073 24.6197 47.4271 24.7784 50.6626C25.0163 55.2396 23.9852 59.2642 22.2402 61.4738Z" fill="#FAC18A"/>
<path fill-rule="evenodd" clip-rule="evenodd" d="M17.3225 47.2694L15.8154 48.0585C15.9741 48.8477 16.0534 49.6368 16.0534 50.5049C16.2914 55.2397 15.1809 59.4221 13.2773 61.5528L14.7843 61.6317C16.8466 59.501 18.0364 55.2397 17.7191 50.4259C17.6398 49.4001 17.4811 48.2953 17.3225 47.2694Z" fill="#FAC18A"/>
<path fill-rule="evenodd" clip-rule="evenodd" d="M7.24916 60.0533L5.90076 59.422C6.77324 57.5281 7.32848 55.0818 7.32848 52.3198L8.99414 52.0042C8.99414 55.2396 8.28028 58.0805 7.24916 60.0533Z" fill="#FAC18A"/>
<path fill-rule="evenodd" clip-rule="evenodd" d="M31.0445 58.554L29.2202 58.9485C30.41 56.66 31.0445 53.3456 30.8066 49.7945C30.7273 48.6897 30.5686 47.5849 30.41 46.4801L32.0756 46.3223C32.3136 47.4271 32.4722 48.5319 32.5515 49.7156C32.6309 53.1089 32.0756 56.2655 31.0445 58.554Z" fill="#ED6A38"/>
<path fill-rule="evenodd" clip-rule="evenodd" d="M38.1038 49.1632L36.4381 51.5306C36.4381 50.7415 36.4381 50.0313 36.4381 49.2422C36.3588 47.2693 35.9622 45.4543 35.407 43.7971L36.6761 42.6923C37.3899 44.4284 37.8658 46.5591 38.0244 48.8476C38.1038 48.9265 38.1038 49.0054 38.1038 49.1632Z" fill="#ED6A38"/>
<path fill-rule="evenodd" clip-rule="evenodd" d="M24.7784 51.215C24.7784 51.0572 24.7784 50.8993 24.7784 50.7415C24.7784 50.5837 24.6991 49.8735 24.6991 49.7156C24.5405 49.7156 24.4611 49.7945 24.3025 49.7945C23.9059 49.8734 23.7473 50.0313 23.7473 50.268C23.7473 50.4258 23.8266 50.5837 24.0646 50.8204C24.2232 50.8993 24.5405 51.0572 24.7784 51.215ZM23.1127 53.2668C22.9541 56.5812 22.0816 59.501 20.7332 61.3949L22.2402 61.5528C23.9059 59.501 24.8577 55.8709 24.7784 51.8463C24.6991 51.9252 24.6991 51.9252 24.6198 52.0041C24.3025 52.162 23.7473 52.7144 23.1127 53.2668ZM17.1639 56.6601C17.0846 56.6601 16.926 56.739 16.8466 56.739C16.3707 56.8968 15.8948 57.0546 15.4189 57.1336C14.943 58.9486 14.1498 60.5269 13.198 61.5528L14.705 61.6317C15.8155 60.6058 16.688 58.7908 17.1639 56.6601ZM6.61464 57.3703C6.37668 58.1594 6.13871 58.7908 5.90076 59.4221L7.24917 60.0534C7.64576 59.3431 7.96304 58.554 8.20099 57.6071C7.64577 57.5281 7.24917 57.4492 6.85258 57.3703C6.77326 57.4492 6.69395 57.4492 6.61464 57.3703Z" fill="#ED6C35"/>
<path fill-rule="evenodd" clip-rule="evenodd" d="M71.3379 38.6677L72.4484 39.299C72.6071 39.4569 72.6071 39.6936 72.6071 39.9303C72.6071 40.8773 71.3379 41.6664 69.7516 41.6664C69.6722 41.6664 69.5929 41.6664 69.5136 41.6664L69.5929 40.0882C69.6723 40.0882 69.7516 40.0882 69.7516 40.0882C70.7034 40.0882 71.4966 39.6147 71.4966 39.0623C71.4173 38.9045 71.4173 38.7466 71.3379 38.6677Z" fill="#FAC18A"/>
<path fill-rule="evenodd" clip-rule="evenodd" d="M65.7064 37.8786L64.7546 38.5888C64.7546 39.378 65.6271 40.0882 66.6582 40.0882C67.2134 40.0882 67.9273 39.8515 68.2446 39.378L67.6894 37.8786C67.6894 38.2732 67.2134 38.5888 66.6582 38.5888C66.1823 38.5888 65.7064 38.2732 65.7064 37.8786Z" fill="#FAC18A"/>
<path fill-rule="evenodd" clip-rule="evenodd" d="M64.0407 41.4297L63.4061 42.2977C63.4061 43.1658 64.5166 43.955 65.865 43.955C67.2134 43.955 68.3239 43.2447 68.3239 42.2977L68.7998 40.7983C68.7998 41.6664 67.6893 42.4556 66.4202 42.4556C65.2305 42.4556 64.358 42.061 64.0407 41.4297Z" fill="#FAC18A"/>
<path fill-rule="evenodd" clip-rule="evenodd" d="M70.7034 41.5086C70.3861 41.5875 70.0689 41.5875 69.7516 41.5875C69.6722 41.5875 69.5929 41.5875 69.5136 41.5875L69.5929 40.0092C69.6723 40.0092 69.7516 40.0092 69.7516 40.0092C70.0689 40.0092 70.3861 39.9303 70.6241 39.8514C70.6241 39.9303 70.6241 40.0092 70.6241 40.167C70.6241 40.4827 70.6241 40.7984 70.6241 41.114C70.6241 41.2719 70.6241 41.4297 70.7034 41.5086Z" fill="#ED6A38"/>
<path fill-rule="evenodd" clip-rule="evenodd" d="M66.0237 38.1153C66.3409 37.7996 66.5789 37.5629 66.7375 37.4051C66.8961 37.2473 66.9755 37.2472 66.9755 37.2472C66.9755 37.2472 66.9755 37.2472 67.0548 37.3262C67.1341 37.4051 67.2134 37.484 67.372 37.7207C67.5307 37.9575 67.6893 38.2731 67.848 38.5888C68.0066 38.9044 68.0859 39.299 68.1652 39.6936C68.2445 40.0881 68.3239 40.5616 68.2445 40.9562C68.2445 41.3508 68.0859 41.7453 67.9273 42.1399C67.7686 42.4556 67.5307 42.7712 67.372 43.0869C67.1341 43.3236 66.8961 43.5604 66.5789 43.7971C66.3409 44.0338 66.0237 44.1916 65.7064 44.2706C65.4684 44.4284 65.2305 44.5073 64.9925 44.5862C64.8339 44.6651 64.6752 44.6651 64.5959 44.6651C64.5166 44.6651 64.5166 44.6651 64.5166 44.5073C64.5166 44.3495 64.4373 44.0338 64.358 43.7182C64.2787 43.3236 64.1993 42.8501 64.2787 42.2188C64.2787 41.5875 64.4373 40.8773 64.5959 40.3249C64.7546 39.7725 64.8339 39.4568 65.0718 39.1412C65.4684 38.8255 65.7857 38.5099 66.0237 38.1153ZM69.7516 40.3249C69.7516 40.0092 69.6723 39.6147 69.6723 39.299C69.593 38.9833 69.593 38.7466 69.5136 38.5888C69.5136 38.431 69.5136 38.431 69.593 38.431C69.6723 38.431 69.8309 38.352 70.0689 38.431C70.3068 38.431 70.7034 38.5888 71.1 38.7466C71.4966 38.9044 71.8139 39.1412 72.0518 39.4568C72.2898 39.7725 72.5277 40.246 72.607 40.7194C72.6863 41.2718 72.6863 41.8242 72.6863 42.2977C72.607 42.7712 72.5277 43.0869 72.4484 43.4025C72.3691 43.6393 72.2898 43.876 72.2104 43.9549C72.1311 44.0338 72.1311 44.0338 72.0518 43.9549C71.9725 43.876 71.8139 43.7182 71.5759 43.5603C71.3379 43.3236 70.9414 43.0869 70.6241 42.7712C70.3068 42.4555 69.9895 42.1399 69.8309 41.9821C69.6723 41.8242 69.6723 41.8242 69.6723 41.6664C69.6723 41.5086 69.7516 41.2719 69.7516 41.0351C69.7516 40.8773 69.7516 40.6405 69.7516 40.3249ZM70.9413 37.0105C71.1 37.0894 71.3379 37.1683 71.4966 37.1683C71.6552 37.2472 71.7345 37.2472 71.7345 37.2472C71.7345 37.2472 71.7345 37.2473 71.7345 37.0894C71.7345 36.9316 71.6552 36.6948 71.5759 36.4581C71.4966 36.2214 71.3379 35.9057 71.1793 35.7479C71.0207 35.5111 70.862 35.4322 70.7034 35.2744C70.5448 35.1955 70.3861 35.1166 70.2275 35.0377C70.0689 34.9588 69.8309 34.8798 69.6723 34.8798C69.4343 34.8798 69.1964 34.8009 68.9584 34.8798C68.7204 34.8798 68.4825 34.9588 68.3239 35.0377C68.1652 35.1166 68.0066 35.1955 67.848 35.3533C67.7686 35.5111 67.6893 35.669 67.61 35.7479C67.61 35.9057 67.61 35.9846 67.5307 35.9846C67.5307 35.9846 67.5307 35.9846 67.61 36.0635C67.6893 36.0635 67.7686 36.0635 67.9273 36.2214C68.0859 36.3003 68.1652 36.4581 68.3239 36.6159C68.4032 36.7738 68.5618 36.8527 68.5618 36.9316C68.6411 37.0105 68.6411 37.1683 68.6411 37.2472C68.6411 37.3262 68.6411 37.3262 68.7205 37.2472C68.7998 37.2472 68.9584 37.1683 69.117 37.0894C69.2757 37.0105 69.4343 37.0105 69.6723 37.0105C69.9102 37.0105 70.1482 37.0105 70.3068 37.0105C70.6241 36.9316 70.7827 37.0105 70.9413 37.0105ZM76.0177 37.7996C76.5729 37.8786 77.3661 37.9575 78.1593 38.2731C78.9525 38.5099 79.8249 38.9044 80.5388 39.299C81.2527 39.6936 81.8079 40.0881 82.2838 40.4827C82.7597 40.8773 83.1563 41.3508 83.3943 41.6664C83.6322 42.061 83.7909 42.2977 83.9495 42.5345C84.1081 42.6923 84.2667 42.6923 84.5047 42.6134C84.7427 42.5345 84.9806 42.3766 85.2979 42.1399C85.6151 41.9032 85.8531 41.5086 86.0911 41.114C86.2497 40.7194 86.329 40.246 86.329 39.6936C86.329 39.1412 86.2497 38.431 86.0117 37.8786C85.7738 37.2473 85.4565 36.7738 85.2186 36.3792C84.9806 36.0635 84.822 35.8268 84.4254 35.59C84.1081 35.3533 83.5529 34.9588 83.077 34.6431C82.5218 34.3274 81.9665 34.0907 81.4113 33.9329C80.8561 33.7751 80.3802 33.6172 79.825 33.4594C79.2697 33.3805 78.7938 33.3016 78.2386 33.2226C77.6834 33.2226 77.1281 33.2226 76.5729 33.3016C75.9384 33.3805 75.3038 33.5383 74.7486 33.6961C74.1934 33.854 73.6382 34.0907 73.2416 34.2485C72.845 34.4064 72.5277 34.6431 72.2898 34.722C72.1311 34.8009 72.1311 34.8009 72.2104 34.9588C72.2898 35.1166 72.5277 35.3533 72.7657 35.669C72.9243 35.9846 73.0829 36.3003 73.0829 36.6159C73.1623 36.9316 73.0829 37.3262 73.0829 37.484C73.0829 37.6418 73.0829 37.6418 73.3209 37.6418C73.6382 37.6418 74.1934 37.6418 74.59 37.6418C75.2245 37.6418 75.4625 37.7207 76.0177 37.7996ZM37.5486 42.6923C36.5967 43.4025 35.6449 44.1127 34.6931 44.823C33.7413 45.5332 32.7895 46.2434 31.8377 46.7958C30.9652 47.4271 30.0927 47.9006 29.2995 48.3741C28.5063 48.8476 27.6338 49.2421 26.9993 49.5578C26.2854 49.8734 25.7302 50.1102 25.2543 50.1891C24.7784 50.3469 24.4611 50.3469 24.2232 50.268C23.9852 50.1891 23.7473 50.0313 23.6679 49.8734C23.5886 49.7156 23.6679 49.4789 23.8266 49.2421C23.9852 49.0843 24.1439 48.9265 24.4611 48.7686C24.7784 48.6108 25.3336 48.5319 26.0475 48.2162C26.7613 47.9006 27.7925 47.3482 28.8236 46.7169C29.8547 46.0856 30.9652 45.3754 31.917 44.744C32.8688 44.1127 33.5827 43.5603 34.4551 42.929C35.3276 42.2977 36.2795 41.5875 37.4692 40.8773C38.659 40.1671 40.1661 39.3779 41.5145 38.7466C42.9422 38.1153 44.2906 37.7207 45.7976 37.3262C47.3046 36.9316 48.9703 36.6159 50.398 36.3792C51.9051 36.2214 53.1742 36.1425 54.5226 36.1425C55.871 36.1425 57.2194 36.2214 58.4885 36.3792C59.7575 36.537 60.9473 36.8527 61.8991 37.0894C62.8509 37.3262 63.5648 37.5629 63.9614 37.7207C64.358 37.8786 64.358 37.8786 64.5166 37.6418C64.6753 37.484 64.9925 37.0894 65.3098 36.6949C65.6271 36.3792 66.0236 36.1424 66.1823 35.9846C66.3409 35.8268 66.3409 35.8268 66.1823 35.669C65.9443 35.5111 65.5477 35.1955 64.8339 34.722C64.12 34.3275 63.1682 33.775 62.1371 33.3805C61.106 32.907 60.0748 32.5124 58.8851 32.1968C57.6953 31.8811 56.3469 31.5655 54.7605 31.3287C53.1742 31.092 51.2705 30.8552 49.8428 30.7763C48.4151 30.6974 47.5426 30.7763 46.3528 30.8552C45.1631 30.9341 43.5767 31.092 42.149 31.3287C40.7213 31.5655 39.3729 31.8811 38.1038 32.2757C36.7554 32.7492 35.407 33.3016 34.0586 34.0118C32.7102 34.722 31.3618 35.669 30.0134 36.6949C28.665 37.7207 27.2372 38.9834 25.8888 40.1671C24.5404 41.4297 23.2713 42.6134 22.1609 43.6393C21.0504 44.6651 20.1779 45.4543 18.9882 46.4012C17.8777 47.3482 16.45 48.3741 15.1809 49.2421C13.9118 50.1102 12.6428 50.8204 11.3737 51.4517C10.1046 52.083 8.75619 52.5565 7.72506 52.7932C6.69392 53.03 5.90074 53.1089 5.18688 53.1089C4.47301 53.1089 3.75916 52.9511 3.20393 52.8722C2.64871 52.7933 2.25212 52.7143 2.09349 52.6354C1.85554 52.5565 1.85555 52.5565 2.01419 52.8722C2.17283 53.1878 2.41076 53.8191 2.80734 54.5293C3.28325 55.2396 3.9178 55.9498 4.55235 56.66C5.18689 57.2913 5.90075 57.9226 6.93188 58.475C7.96301 59.0274 9.31141 59.5798 10.8185 59.9744C12.2462 60.369 13.7532 60.6057 15.2603 60.6846C16.688 60.7635 18.1157 60.6846 19.5434 60.5268C20.8918 60.369 22.2402 60.2111 24.2232 59.7376C26.2061 59.2642 28.8236 58.3961 30.6479 57.7648C32.4722 57.1335 33.5033 56.7389 34.2965 56.3444C35.0897 56.0287 35.6449 55.792 36.2001 55.5552C35.7242 51.6885 37.2313 48.0584 40.2454 46.7169C38.897 45.7699 38.1038 44.4284 37.5486 42.6923ZM61.1853 84.7533C62.375 86.1737 63.8821 86.7261 64.5166 86.0159C65.2305 85.2268 64.8339 83.4118 63.7234 81.9913C63.3269 81.5178 63.0096 81.2022 62.613 80.8865C64.8339 80.0974 67.2134 77.5722 68.6411 74.1789C69.117 73.0741 69.4343 71.9693 69.593 70.9434C70.6241 70.391 71.4966 69.6808 72.1311 68.7338C72.845 68.8127 73.6382 68.7338 74.352 68.576C77.0488 68.0236 79.1111 66.0507 79.9836 63.6044C82.9184 61.8683 84.9013 58.2383 84.9013 54.0559C84.9013 50.9782 84.0288 48.2952 82.2838 46.3223C82.9184 45.691 83.2356 44.9019 83.5529 44.0338C87.5188 43.6393 88.5499 40.167 87.2015 36.7738C86.9635 36.1424 86.567 35.5111 86.0911 34.9588C85.6151 34.4064 85.0599 33.9329 84.584 33.6172C84.1081 33.3016 83.7908 33.1437 83.4736 32.9859C84.5047 31.8811 85.2186 30.3028 85.2979 28.4878L96.9576 7.18113C97.0369 7.10221 97.1162 7.10223 97.1956 7.10223C97.3542 7.10223 97.5128 7.18113 97.7508 7.18113C97.9887 7.18113 98.306 7.10223 98.6233 7.02331C98.9406 6.86549 99.2578 6.70765 99.5751 6.47091C99.813 6.23417 100.051 5.99743 100.13 5.68177C100.21 5.44503 100.289 5.12937 100.289 4.89263C100.289 4.65589 100.21 4.34023 100.13 4.02458C99.9717 3.70892 99.7337 3.31437 99.4958 2.99871C99.2578 2.68306 99.0199 2.44632 98.7819 2.28849C98.544 2.13066 98.306 2.05176 97.9887 1.97284C97.7508 1.89393 97.4335 1.89393 97.1162 1.97284C96.799 2.05176 96.561 2.13066 96.323 2.28849C96.0851 2.44632 96.0058 2.68306 95.8472 3.07763C95.6885 3.39328 95.6092 3.86677 95.5299 4.26133C95.4506 4.6559 95.3712 5.12939 95.2919 5.52396L84.822 25.4891C84.5047 24.5421 83.9495 23.6741 83.2356 23.0428C84.1874 21.6223 84.7427 19.8073 84.7427 17.9134C84.7427 14.9936 83.4736 12.3894 81.4906 10.8901C81.6493 8.60158 80.6181 6.47092 78.3972 5.05047C76.4936 3.78785 74.0348 3.31437 71.4966 3.55112C70.0689 1.42045 67.6893 0 64.9925 0C63.4062 0 61.9784 0.473468 60.7094 1.34152C59.5989 0.631295 58.3298 0.157813 56.9814 0.157813C54.5226 0.157813 52.381 1.57825 51.0326 3.63001C47.9392 2.91979 44.4492 4.41915 42.4663 7.57569C41.9903 8.36483 41.5938 9.15397 41.3558 10.022C39.6901 10.6533 38.1831 11.837 37.152 13.4942C34.8518 17.0453 35.3277 21.4645 38.1831 23.6741C38.0245 23.8319 37.8658 24.0687 37.7865 24.2265C36.3588 26.4361 36.0415 28.8824 36.5967 31.0131C35.9622 31.2498 35.3277 31.4865 34.5345 31.8022C33.7413 32.1179 32.7895 32.6702 31.7583 33.2226C30.7272 33.854 29.7754 34.5642 28.7443 35.3533C27.7132 36.1425 26.7613 36.9316 25.8095 37.7996C24.7784 38.6677 23.7473 39.6936 22.4782 40.8773C21.1298 42.1399 19.5434 43.6393 18.0364 44.823C16.6087 46.0067 15.3396 46.9536 14.0705 47.7428C12.8807 48.5319 11.6909 49.1632 10.8978 49.6367C10.0253 50.1102 9.47005 50.3469 8.8355 50.5837C8.20096 50.8204 7.56642 51.0572 6.93188 51.2939C6.29734 51.4517 5.6628 51.5306 5.02826 51.5306C4.39371 51.5306 3.67983 51.4517 3.12461 51.3728C2.56939 51.2939 2.1728 51.1361 1.93484 51.0571C1.69689 50.9782 1.53825 50.8993 1.37961 50.8204C1.22097 50.7415 1.14165 50.7415 0.983017 50.6626C0.824387 50.6626 0.586472 50.6626 0.427834 50.7415C0.269196 50.8993 0.110565 51.215 0.0312424 51.5306C-0.0480728 51.9252 0.0312042 52.3198 0.189842 52.8722C0.34848 53.4246 0.745102 54.2137 1.22102 55.0817C1.77624 55.9498 2.41076 56.8179 3.20393 57.607C3.99711 58.3961 4.86962 59.0274 5.82143 59.5798C6.77325 60.1322 7.80437 60.6846 8.91483 61.0003C9.94596 61.3948 11.0564 61.6316 12.0875 61.7894C13.1187 61.9472 13.9912 62.1051 15.1016 62.1051C16.2121 62.184 17.4811 62.1051 18.9882 61.9472C20.4952 61.7894 22.2402 61.4737 24.6197 60.8424C26.9993 60.2111 29.934 59.1852 31.8377 58.5539C33.7413 57.8437 34.6138 57.5281 35.0897 57.2913C35.6449 57.0546 35.8036 56.9757 36.0415 56.8967C36.8347 59.5798 38.659 61.6316 40.8799 62.4996C42.0697 66.6031 45.7976 69.2073 49.4462 68.2603C49.7635 68.1814 50.1601 68.1025 50.4774 67.9447C51.5085 70.0753 53.2535 71.6536 55.2364 72.206C55.3951 74.1789 54.9985 76.4674 54.0467 78.8348C52.9362 81.5967 51.2705 83.8852 49.5255 85.3057C47.8599 86.6472 48.6531 88.3833 49.8428 89.8827C51.0326 91.382 52.5396 91.9344 53.1742 91.2242C53.8087 90.4351 53.3328 88.6201 52.143 87.1996C51.7464 86.7261 51.3499 86.3316 50.8739 86.0948C52.6189 84.6744 54.2846 82.3859 55.3951 79.6239C56.4262 76.9408 56.8228 74.4156 56.5055 72.3638C57.1401 72.4427 57.7746 72.3638 58.4885 72.206C59.6782 71.8904 60.7094 71.259 61.5819 70.391C63.2475 71.4169 65.3098 71.7325 67.2927 71.338C67.3721 71.338 67.4514 71.338 67.5307 71.259C67.3721 71.8114 67.2134 72.3638 66.9755 72.9162C65.5477 76.3095 63.1682 78.9137 60.868 79.7028C59.0437 80.7287 60.0748 83.3328 61.1853 84.7533ZM82.1252 32.5124C81.8872 32.4335 81.6493 32.3546 81.332 32.1968C80.9354 32.1179 80.4595 31.96 79.9836 31.8811C79.5077 31.8022 79.0318 31.7233 78.4765 31.6444C77.842 31.6444 77.1281 31.6444 76.4936 31.6444C75.9384 31.7233 75.5418 31.8022 75.0659 31.8811C74.6693 31.96 74.1934 32.1179 73.7175 32.2757C73.2416 32.4335 72.7657 32.5913 72.2898 32.8281C71.8139 33.0648 71.4173 33.3805 71.2586 33.5383C71.0207 33.6961 71.0207 33.6961 70.9413 33.6172C70.862 33.5383 70.7034 33.4594 70.4655 33.3805C70.3068 33.3016 70.1482 33.3016 69.8309 33.2226C69.5929 33.1437 69.1964 33.1437 68.8791 33.1437C68.5618 33.1437 68.2446 33.2226 67.9273 33.3016C67.61 33.3805 67.3721 33.5383 67.1341 33.6961C66.8961 33.854 66.7375 34.0118 66.6582 34.1696C66.5789 34.2485 66.5789 34.2485 66.2616 34.0907C65.9443 33.854 65.3891 33.4594 64.6752 33.0648C63.9614 32.6703 63.2475 32.2757 62.2164 31.8811C61.1853 31.4866 59.8369 30.9341 58.2505 30.5396C56.6641 30.145 54.7605 29.7505 52.9362 29.5926C51.1119 29.3559 49.2876 29.277 47.384 29.3559C45.4803 29.4348 43.5767 29.5926 42.0697 29.7504C40.5626 29.9872 39.5315 30.2239 38.421 30.5396V30.4607C37.9451 28.8035 38.2624 26.8306 39.3729 25.0945C39.4522 24.9367 39.6108 24.7789 39.6901 24.6211C40.0867 24.1476 40.4833 23.753 40.8799 23.3584C40.5626 23.2006 40.166 23.0428 39.8488 22.885C39.6901 22.8061 39.5315 22.6482 39.2935 22.4904C36.914 20.5965 36.5174 16.9664 38.421 14.0466C39.2935 12.7051 40.5626 11.6792 41.911 11.2057C42.149 11.1268 42.4663 11.0479 42.7042 10.969C42.7835 10.7323 42.7835 10.4955 42.8628 10.1799C43.0215 9.46964 43.3388 8.83833 43.7353 8.20702C45.401 5.60287 48.2565 4.41916 50.7946 4.97155C51.1119 5.05047 51.5085 5.12937 51.8258 5.2872C51.9844 4.97155 52.143 4.65589 52.3017 4.41915C53.4121 2.68305 55.1571 1.49936 57.2194 1.49936C58.3298 1.49936 59.4403 1.815 60.3128 2.4463C60.5507 2.60413 60.7887 2.76197 60.9473 2.99871C61.1853 2.76197 61.4232 2.60413 61.6612 2.4463C62.6923 1.73608 63.8821 1.34152 65.2305 1.34152C67.4514 1.34152 69.4343 2.52524 70.6241 4.34025C70.7034 4.49808 70.862 4.65589 70.9413 4.81372C71.1793 4.81372 71.4173 4.73482 71.6552 4.73482C73.7968 4.57699 75.8591 4.97154 77.5247 5.99742C79.4284 7.26004 80.3009 9.07507 80.1422 10.969C80.1422 11.2057 80.0629 11.3636 80.0629 11.6003C80.3802 11.7581 80.6974 11.916 81.0147 12.1527C82.6011 13.3364 83.6322 15.4671 83.6322 17.8345C83.6322 19.4127 83.1563 20.9121 82.3631 22.0169C82.0459 22.4904 81.6493 22.9639 81.2527 23.2795C81.7286 23.4374 82.2045 23.753 82.6011 24.1476C83.5529 25.0945 84.1874 26.4361 84.1874 28.0144C84.1874 29.5137 83.6322 30.8552 82.7597 31.8022C82.6011 32.1968 82.3631 32.3546 82.1252 32.5124ZM38.5004 41.9821C38.5004 42.1399 38.5797 42.2188 38.5797 42.3766C38.5797 42.4555 38.5797 42.4556 38.659 42.5345C39.1349 44.0338 40.0074 45.2175 41.1179 46.0856C41.4351 46.4012 41.8317 46.638 42.2283 46.7958C36.2795 48.2952 35.0897 59.5009 42.3869 61.3948C42.4663 61.6316 42.4663 61.8683 42.5456 62.184C43.4974 65.4983 46.5115 67.4712 49.3669 66.761C49.6842 66.682 49.9221 66.6031 50.1601 66.5242C50.5567 66.3664 50.8739 66.1297 51.1912 65.8929C51.3498 66.4453 51.5085 66.9977 51.7464 67.4712C53.0949 70.2332 55.7917 71.7325 58.4091 71.0223C59.4403 70.7856 60.3128 70.2332 61.0266 69.5229C61.2646 69.2862 61.5025 69.0495 61.6612 68.7338C61.8991 68.9705 62.2164 69.1284 62.4544 69.2862C63.8821 70.0753 65.4684 70.391 67.1341 70.0753C68.6411 69.7597 69.9102 68.8916 70.7827 67.7079C70.9414 67.4712 71.1 67.2345 71.2586 66.9188C71.4966 66.9977 71.7345 66.9977 71.9725 66.9977C72.5277 67.0766 73.1623 66.9977 73.7968 66.8399C75.9384 66.3664 77.6041 64.7881 78.3972 62.8153C78.4766 62.5785 78.5559 62.4207 78.6352 62.184C78.8731 62.1051 79.0318 62.0261 79.1904 61.8683C81.6493 60.369 83.3149 57.3702 83.3149 53.898C83.3149 51.3728 82.4424 49.0843 81.0147 47.4271C80.6181 46.9536 80.1422 46.5591 79.587 46.1645C80.2216 46.0067 80.8561 45.6121 81.332 45.1386C81.8079 44.6651 82.2045 44.0338 82.5218 43.3236C82.5218 43.2447 82.6011 43.1658 82.6011 43.1658C82.3631 42.7712 82.1252 42.3766 81.7286 41.9821C81.4113 41.5875 80.9354 41.1929 80.4595 40.7984C79.9836 40.4827 79.5077 40.167 79.0318 39.9303C78.5559 39.6936 78.0006 39.5358 77.4454 39.3779C76.8902 39.2201 76.2556 39.1412 75.7004 39.0623C75.1452 38.9834 74.59 38.9833 74.2727 38.9044C73.8761 38.9044 73.7175 38.9044 73.6382 38.9044C73.5589 38.9044 73.5588 38.9044 73.5588 38.9044C73.5588 38.9044 73.5589 38.9044 73.6382 39.0623C73.7175 39.2201 73.7968 39.5358 73.9554 39.8514C74.0348 40.246 74.1141 40.7194 74.1141 41.1929C74.1141 41.6664 74.1141 42.1399 74.0348 42.6923C73.9554 43.2447 73.7968 43.7971 73.6382 44.1917C73.4795 44.5862 73.4002 44.823 73.3209 44.9808C73.1622 45.1386 73.0036 45.2965 72.9243 45.3754C72.7657 45.4543 72.6863 45.5332 72.5277 45.5332C72.3691 45.5332 72.2898 45.5332 72.0518 45.4543C71.8139 45.3753 71.5759 45.2175 71.2586 44.9808C70.9414 44.7441 70.5448 44.5073 70.2275 44.2706C69.9102 44.0338 69.6723 43.7182 69.4343 43.5603C69.2757 43.3236 69.117 43.1658 69.0377 43.0869C68.9584 43.0079 68.9584 43.0079 68.8791 43.1658C68.7998 43.3236 68.5618 43.7182 68.2445 44.0338C67.9273 44.3495 67.61 44.5862 67.2134 44.823C66.8168 45.0597 66.4202 45.2964 66.0237 45.4543C65.6271 45.6121 65.2305 45.691 64.9132 45.7699C64.5166 45.8489 64.1993 45.8489 63.9614 45.7699C63.7234 45.691 63.5648 45.6121 63.4855 45.2964C63.3268 44.9808 63.1682 44.5862 63.0889 44.0338C63.0096 43.4814 62.9303 42.8501 62.9303 42.3766C62.9303 41.9032 62.9303 41.5875 62.9303 41.1929C63.0096 40.7984 63.0889 40.3249 63.1682 39.9303C63.2475 39.5357 63.3268 39.299 63.4062 39.1412C63.4855 38.9833 63.4855 38.9834 63.4062 38.9834C63.3268 38.9834 63.1682 38.9044 62.8509 38.7466C62.5337 38.6677 62.0578 38.5099 61.2646 38.2731C60.4714 38.1153 59.2816 37.8786 57.9332 37.6418C56.5848 37.484 55.0778 37.3262 53.8087 37.3262C52.5396 37.3262 51.4292 37.3262 50.4774 37.484C49.5255 37.5629 48.6531 37.7207 48.2565 37.7996C47.8599 37.8786 47.8599 37.8786 47.4633 38.2731C47.146 38.6677 46.4321 39.3779 45.9562 40.0881C45.4803 40.7195 45.1631 41.2719 44.8458 41.7453C44.5285 42.2977 44.3699 42.8501 44.2113 43.6393C44.0526 44.4284 44.0526 45.3754 44.2113 46.4012C44.3699 47.3482 44.7665 48.3741 45.2424 49.2421C45.7183 50.1102 46.2735 50.8204 47.0667 51.6095C47.8599 52.3987 48.891 53.2667 49.6842 53.898C50.4774 54.5293 51.0326 54.9239 51.3499 55.0817C51.6671 55.2396 51.6671 55.2396 51.6671 55.2396C51.7464 55.1607 51.9051 55.0817 52.0637 55.0028C52.2224 54.9239 52.4603 54.845 52.6982 54.7661C52.9362 54.7661 53.2535 54.7661 53.4914 54.7661C53.7294 54.845 53.9673 55.0028 54.126 55.1607C54.2846 55.3185 54.3639 55.5552 54.4432 55.713C54.5226 55.8709 54.5226 55.9498 54.5226 55.9498C54.5226 55.9498 54.5226 55.9498 54.6812 56.0287C54.8398 56.1076 55.0778 56.2654 55.3158 56.5022C55.5537 56.7389 55.7916 57.0546 55.9503 57.3702C56.1089 57.6859 56.1089 58.1594 56.0296 58.475C55.9503 58.7907 55.7917 59.1063 55.633 59.2642C55.3951 59.422 55.1571 59.5798 54.9985 59.6587C54.8398 59.7376 54.6812 59.7376 54.4432 59.7376C54.2846 59.7376 53.9673 59.8166 53.7294 59.7376C53.4914 59.6587 53.1742 59.5798 52.9362 59.422C52.6983 59.2642 52.381 59.0274 52.143 58.7907C51.9051 58.475 51.6671 58.1594 51.4292 57.8437C51.2705 57.5281 51.1119 57.2913 51.1119 57.2124C51.0326 57.0546 51.1119 57.0546 50.8739 56.9757C50.7153 56.8968 50.3187 56.66 49.6842 56.1865C49.0496 55.713 48.0978 55.0028 47.4633 54.3715C46.7494 53.7402 46.2735 53.2667 45.7976 52.7932C45.401 52.3198 45.0044 51.9252 44.6078 51.4517C44.2113 50.9782 43.894 50.3469 43.5767 49.7945C43.2594 49.2421 43.0215 48.6897 42.8628 48.0584C42.7042 47.4271 42.5456 46.7169 42.4663 46.0067C42.3869 45.2964 42.3869 44.6651 42.4663 43.9549C42.5456 43.2447 42.7835 42.4556 43.1008 41.6664C43.4181 40.9562 43.8147 40.246 44.1319 39.7725C44.4492 39.299 44.6872 39.0623 44.8458 38.9044C45.0044 38.7466 45.0044 38.7466 44.6872 38.8255C44.4492 38.9044 43.894 39.0623 43.2594 39.3779C42.6249 39.6147 41.8317 40.0092 41.1179 40.3249C40.404 40.6405 39.7694 40.9562 39.2935 41.1929C38.897 41.8242 38.659 41.9032 38.5004 41.9821Z" fill="black"/>
<path fill-rule="evenodd" clip-rule="evenodd" d="M63.8027 29.198C64.6752 28.0933 65.2305 26.436 65.3098 24.5421C65.3891 21.2278 63.8027 18.5447 61.8198 18.4658C59.8369 18.3869 58.1712 21.0699 58.0919 24.3054C58.0126 26.4361 58.6471 28.33 59.5989 29.3559C58.7264 29.198 57.8539 28.8824 57.2987 28.4878C58.3298 29.7504 59.7575 30.6185 61.5025 30.6185C63.4855 30.6185 65.2305 29.5137 66.2616 27.7776C65.6271 28.4089 64.7546 28.8824 63.8027 29.198ZM63.1682 21.6223C63.8028 21.6223 64.358 23.0428 64.2787 24.7789C64.1993 26.515 63.6441 27.9354 63.0096 27.9354C62.375 27.9354 61.8198 26.515 61.8991 24.7789C61.9784 23.0428 62.5337 21.6223 63.1682 21.6223Z" fill="black"/>
<path fill-rule="evenodd" clip-rule="evenodd" d="M79.0318 28.4089C79.9043 27.3041 80.4595 25.6469 80.5388 23.753C80.6182 20.4386 79.0318 17.7555 77.0488 17.6766C75.0659 17.5977 73.4002 20.2808 73.3209 23.5162C73.2416 25.6469 73.8761 27.5408 74.828 28.5667C73.9555 28.4089 73.0829 28.0932 72.5277 27.6987C73.5588 28.9613 74.9866 29.8293 76.7316 29.8293C78.7145 29.8293 80.4595 28.7245 81.4907 26.9884C80.8561 27.6198 80.0629 28.0933 79.0318 28.4089ZM78.4766 20.8332C79.1111 20.8332 79.6664 22.2536 79.587 23.9897C79.5077 25.7258 78.9525 27.1463 78.3179 27.1463C77.6834 27.1463 77.1282 25.7258 77.2075 23.9897C77.2075 22.2536 77.7627 20.8332 78.4766 20.8332Z" fill="black"/>
<path fill-rule="evenodd" clip-rule="evenodd" d="M67.1341 30.9342C67.2134 31.1709 67.4514 31.4866 67.7687 31.8022C68.0859 32.039 68.4032 32.2757 68.7205 32.4335C69.0378 32.5914 69.4343 32.6703 69.7516 32.6703C70.0689 32.6703 70.3861 32.6703 70.7034 32.5125C71.0207 32.4335 71.338 32.2757 71.6552 32.039C71.9725 31.8022 72.2898 31.5655 72.5277 31.2498C72.7657 30.9342 72.9243 30.6974 73.0036 30.4607C73.0829 30.2239 73.0829 30.0661 73.0036 29.9872C72.9243 29.8294 72.845 29.7505 72.7657 29.6715C72.607 29.5926 72.4484 29.5927 72.3691 29.5927C72.2105 29.5927 72.1311 29.6716 71.9725 29.8294C71.8139 29.9872 71.7346 30.224 71.5759 30.3818C71.4173 30.6185 71.2586 30.7763 71.0207 30.9342C70.7827 31.092 70.5448 31.1709 70.2275 31.2498C69.9896 31.3287 69.7516 31.3287 69.5137 31.2498C69.2757 31.1709 69.0378 31.092 68.7998 30.9342C68.5619 30.7763 68.4032 30.5396 68.2446 30.3029C68.0859 30.145 68.0066 30.0661 67.848 29.9872C67.6893 29.9083 67.5307 29.9872 67.3721 30.0661C67.2134 30.145 67.1341 30.224 67.0548 30.3818C67.0548 30.5396 67.0548 30.6974 67.1341 30.9342Z" fill="black"/>
</svg>
