<svg width="173" height="65" viewBox="0 0 173 65" fill="none" xmlns="http://www.w3.org/2000/svg">
<path fill-rule="evenodd" clip-rule="evenodd" d="M2.70591 52.6198C1.25633 52.9581 1.49793 53.5862 2.12608 54.311C2.75423 54.9875 3.76893 55.7606 4.97692 56.3887C6.1849 57.0169 7.58616 57.5484 9.13238 57.935C10.6786 58.2732 12.4664 58.4182 14.3992 58.6598C16.332 58.9014 18.458 59.1913 21.2122 59.9644C23.9664 60.7375 27.3971 62.0421 29.7647 62.8635C32.1807 63.685 33.582 64.0232 34.7416 64.2165C35.9496 64.4098 36.916 64.4581 38.0273 64.3614C39.1387 64.2648 40.3467 64.0232 41.3131 63.7816C42.2311 63.4917 42.8593 63.1535 43.5841 62.7186C44.3089 62.2354 45.1303 61.6556 45.5652 61.0274C46 60.3993 46.0484 59.6745 45.9517 58.9497C45.8551 58.2249 45.5652 57.5001 44.937 56.8719C44.3572 56.2438 43.3908 55.7606 42.2311 55.519C41.0231 55.2774 39.5736 55.3257 37.6408 55.2774C35.708 55.2291 33.292 55.0358 31.021 54.8908C28.7017 54.7459 26.5273 54.6009 25.0294 54.456C23.5799 54.311 22.8551 54.1661 20.5357 53.8278C18.2647 53.4896 14.3509 52.9581 10.8719 52.6682C7.34456 52.3299 4.20381 52.2816 2.70591 52.6198Z" fill="#878786"/>
<path fill-rule="evenodd" clip-rule="evenodd" d="M15.1723 10.0988C14.6891 10.2921 14.1092 10.9685 13.8193 12.0316C13.5294 13.0946 13.5777 14.5442 14.0126 16.5253C14.4475 18.5064 15.3172 20.9706 15.8487 22.9034C16.3319 24.8362 16.4769 26.2374 16.3802 27.3488C16.3319 28.4601 16.0903 29.3299 15.897 30.103C15.7038 30.8761 15.5105 31.5526 15.4139 32.374C15.3172 33.1471 15.2206 34.0652 14.979 35.708C14.7374 37.3992 14.2542 39.8152 13.626 42.1345C12.9979 44.4538 12.1281 46.6282 11.6449 47.7879C11.1617 48.9959 11.0168 49.1891 10.3886 49.2375C9.76049 49.2858 8.69746 49.1408 7.73107 49.1408C6.76469 49.1408 5.89494 49.2375 4.83191 49.3824C3.81721 49.5757 2.60923 49.8173 1.83612 50.1072C1.11133 50.3971 0.821411 50.7837 0.821411 51.3635C0.821411 51.895 1.11133 52.6198 1.59452 53.103C2.07771 53.6345 2.8025 53.9728 3.67225 54.311C4.542 54.6492 5.55671 54.9874 6.23318 55.374C6.95797 55.7122 7.34452 56.0505 7.7794 56.2921C8.21427 56.5337 8.69746 56.6303 9.47057 56.7753C10.2437 56.9202 11.3067 57.1135 12.5147 57.2585C13.771 57.3551 15.1723 57.3551 16.5252 57.2585C17.8781 57.1618 19.1828 57.0169 20.4874 56.8236C21.8403 56.6786 23.1933 56.5337 24.1113 56.437C25.0777 56.3404 25.6092 56.3404 26.5273 56.437C27.4454 56.4854 28.7983 56.6786 30.3445 56.8719C31.8907 57.1135 33.6302 57.4034 34.9349 57.5484C36.2395 57.6933 37.1092 57.7417 38.1239 57.7417C39.1386 57.7417 40.25 57.6933 41.458 57.4517C42.6176 57.2102 43.8739 56.8236 44.792 56.2921C45.7584 55.7606 46.4349 55.0841 47.0147 54.2143C47.5945 53.3929 48.126 52.4265 48.5609 51.3635C48.9958 50.3005 49.4307 49.1891 49.7206 48.2711C50.0105 47.3047 50.1555 46.5799 49.9139 45.4202C49.6723 44.2606 48.9958 42.7143 47.1597 42.3278C45.3235 41.8929 42.3277 42.5694 38.1239 41.0715C33.9202 39.5253 28.5084 35.7564 25.4643 32.8572C22.4685 29.958 21.8403 28.0253 21.792 25.6093C21.7437 23.1933 22.2752 20.3425 22.1786 16.9601C22.0819 13.5778 21.3571 9.66392 20.5357 8.50425C19.7143 7.34459 18.7962 8.98744 18.0714 9.76055C17.3466 10.5337 16.9117 10.4853 16.4286 10.3404C16.0903 10.1471 15.7038 9.8572 15.1723 10.0988Z" fill="#ED694A"/>
<path fill-rule="evenodd" clip-rule="evenodd" d="M1.1597 51.9917C1.44962 51.9917 1.98113 52.2333 2.6576 52.3783C3.33407 52.5232 4.10718 52.5232 4.78365 52.5232C5.46013 52.5232 5.99164 52.4266 6.42651 52.3299C6.86138 52.2333 7.1513 52.04 7.48953 51.8467C7.82777 51.6052 8.11769 51.3152 8.40761 50.8804C8.69752 50.4455 8.98744 49.914 9.22903 49.6241C9.51895 49.3341 9.80886 49.2375 10.0021 49.2375C10.2437 49.2375 10.3887 49.3825 10.4853 49.5757C10.5337 49.8173 10.4853 50.1073 10.1954 50.4938C9.9055 50.8804 9.42231 51.3636 8.79415 52.04C8.166 52.7648 7.34458 53.6829 6.76474 54.1661C6.18491 54.6493 5.75004 54.6493 5.21853 54.5043C4.63869 54.3594 3.91391 54.0694 3.18912 53.7312C2.46433 53.3446 1.69121 52.9098 1.30466 52.5232C0.918102 52.2333 0.869789 51.9917 1.1597 51.9917ZM15.5105 10.0505C15.0757 10.1955 14.9307 10.6303 14.8341 11.2102C14.7374 11.79 14.6408 12.4182 14.6891 13.0946C14.6891 13.7228 14.7858 14.3509 15.0274 15.0274C15.2689 15.7039 15.6555 16.477 15.8971 17.0568C16.1387 17.685 16.2353 18.1682 16.187 18.748C16.1387 19.3278 15.9454 20.0043 15.9937 21.1156C16.0421 22.227 16.3803 23.8215 16.5736 25.3194C16.7668 26.8173 16.8152 28.2186 17.0084 28.9434C17.2017 29.7165 17.4916 29.8614 17.8299 29.5232C18.1681 29.2333 18.5547 28.4602 18.8929 27.832C19.2311 27.2039 19.6177 26.6241 19.6177 26.1892C19.6177 25.7543 19.2795 25.4161 18.7963 24.7396C18.3131 24.0148 17.6849 22.9035 17.4433 21.9371C17.2017 20.9707 17.4433 20.1009 17.6366 19.3761C17.8299 18.6514 17.9748 18.0715 18.0231 17.685C18.0231 17.2984 17.9265 17.0568 17.6849 16.6703C17.4916 16.2837 17.2017 15.7039 17.0084 15.1724C16.8152 14.6409 16.6702 14.1093 16.7185 13.4812C16.7668 12.853 16.9601 12.1283 17.1051 11.5967C17.25 11.0169 17.3467 10.6304 17.0084 10.3404C16.6702 10.0505 15.9454 9.90556 15.5105 10.0505ZM15.4139 34.5967L13.771 43.6325C14.1093 46.0484 15.8971 48.3194 18.6996 48.8026C18.7479 49.0442 18.7963 49.2375 18.8929 49.4308C19.9076 52.0883 22.4685 53.5862 24.8362 52.8131C25.0778 52.7165 25.271 52.6682 25.4643 52.5232C25.7542 52.3783 26.0442 52.185 26.2858 51.9434C26.4307 52.3783 26.624 52.8131 26.8656 53.1997C28.1702 55.3741 30.4412 56.4371 32.6156 55.7606C33.437 55.4707 34.1135 54.9875 34.645 54.3594C34.8383 54.1178 34.9832 53.9245 35.1282 53.6346C35.3698 53.7795 35.6114 53.9245 35.853 54.0694C37.061 54.6493 38.4622 54.7942 39.7669 54.4077C41.0232 54.0211 41.9895 53.248 42.666 52.185C42.811 51.9917 42.9076 51.7501 43.0042 51.5085C43.1975 51.5085 43.3908 51.5568 43.5841 51.5568C44.0673 51.5568 44.5505 51.4602 45.0337 51.3152C46.7732 50.7837 48.0778 49.3825 48.561 47.6913C48.6093 47.498 48.6576 47.353 48.7059 47.1598C48.8509 47.0631 48.9958 46.9665 49.1891 46.8699C51.1219 45.5169 52.2816 42.9077 52.04 40.0085C51.9433 38.6556 51.5084 37.3993 50.8803 36.3362C46.5316 38.6072 22.1303 34.0652 15.4139 34.5967Z" fill="#B94107"/>
<path fill-rule="evenodd" clip-rule="evenodd" d="M35.3214 52.3782C34.6933 52.4265 34.0168 52.8131 33.4853 53.0063C32.9538 53.2479 32.5189 53.3446 31.9874 53.2963C31.4559 53.2479 30.7794 53.0547 30.1029 52.7164C29.4265 52.3782 28.7983 51.8467 28.2668 51.3152C27.7836 50.7836 27.4454 50.2038 27.1071 49.9622C26.7689 49.7206 26.479 49.8656 25.9475 49.9622C25.4643 50.0589 24.7395 50.0589 24.0147 49.9139C23.2899 49.7689 22.5168 49.479 21.8403 48.7059C21.1638 47.9328 20.584 46.7248 19.9559 46C19.3277 45.2752 18.7479 44.9853 18.1681 44.4055C17.6365 43.8257 17.1533 43.0042 16.8634 42.1345C16.5735 41.3131 16.5252 40.4916 16.5735 39.8152C16.6218 39.1387 16.8634 38.5589 17.2983 37.6408C17.7815 36.7227 18.5063 35.4664 18.6029 34.5484C18.6996 33.6303 18.0714 32.9538 17.7815 32.2773C17.4916 31.5526 17.4916 30.8278 17.5882 30.103C17.6849 29.3782 17.8781 28.75 18.1681 28.1219C18.458 27.4937 18.8445 26.9139 19.0861 26.624C19.3277 26.2857 19.4244 26.2374 19.3277 25.9475C19.2311 25.6576 18.9895 25.1744 18.6029 24.6912C18.2164 24.208 17.6849 23.7248 17.3949 23.0483C17.105 22.3236 17.0567 21.4055 17.2017 20.4874C17.3949 19.5694 17.8298 18.6513 18.0714 18.1198C18.313 17.5883 18.313 17.395 18.1681 17.1534C18.0231 16.9118 17.7332 16.6219 17.4433 16.2353C17.1533 15.8004 16.9117 15.2689 16.7668 14.4958C16.6218 13.7227 16.5735 12.8047 16.7185 12.0315C16.8634 11.2584 17.25 10.6786 17.6365 10.1471C18.0714 9.61558 18.5063 9.08406 19.0378 8.6975C19.521 8.31095 20.0525 8.11768 20.4391 7.6828C20.7773 7.24793 20.9706 6.57145 21.2605 6.03994C21.5504 5.50843 21.8886 5.07356 22.3718 4.63868C22.855 4.20381 23.4832 3.76893 24.1113 3.52734C24.7395 3.28574 25.3676 3.28574 25.8991 3.23742C26.4307 3.23742 26.9139 3.1891 27.2521 3.09247C27.5903 2.99583 27.8319 2.75423 28.2668 2.41599C28.7017 2.07775 29.3298 1.59456 29.958 1.25633C30.5861 0.918094 31.2143 0.724818 31.7458 0.676498C32.2773 0.57986 32.7605 0.628177 33.1954 0.773135C33.6302 0.918094 34.0168 1.15969 34.4033 1.25633C34.7416 1.35297 35.0798 1.20801 35.5147 1.11137C35.9496 0.966411 36.4811 0.821452 37.1092 0.724813C37.7374 0.628175 38.4139 0.628175 38.9937 0.724813C39.5735 0.821452 40.0567 0.966408 40.4916 1.30464C40.9748 1.64288 41.458 2.12607 41.7479 2.51263C42.0378 2.85086 42.1344 3.09246 42.4727 3.14078C42.7626 3.1891 43.2941 3.14078 43.8739 3.14078C44.4538 3.14078 45.0819 3.23742 45.6134 3.33406C46.145 3.4307 46.5798 3.62397 47.063 3.86557C47.5462 4.10717 48.0294 4.49372 48.416 4.97692C48.8025 5.46011 49.0924 5.99162 49.2374 6.57146C49.3823 7.15129 49.4307 7.82776 49.5273 8.26263C49.6723 8.74583 49.9139 9.03574 50.3004 9.51893C50.687 10.0021 51.2185 10.7269 51.5084 11.4034C51.7983 12.0799 51.8466 12.6597 51.7983 13.2395C51.75 13.8194 51.7017 14.3025 51.5567 14.8341C51.4118 15.3656 51.2668 15.9454 51.1218 16.3803C50.9769 16.8152 50.7836 17.0568 50.8319 17.2983C50.8802 17.5883 51.1218 17.8782 51.4118 18.3131C51.6534 18.7479 51.8949 19.2311 52.0399 19.7626C52.1365 20.2942 52.1365 20.8257 52.0882 21.3572C52.0882 21.8887 52.0399 22.4685 51.895 22.9034C51.75 23.3383 51.5084 23.7248 51.2185 24.1114C50.9286 24.4979 50.5903 24.8845 50.5903 25.3194C50.5903 25.7542 50.8802 26.2374 51.2185 27.1555C51.5567 28.0736 51.895 29.3782 51.8466 30.4412C51.75 31.5042 51.2668 32.3257 50.9769 33.1954C50.687 34.0652 50.6387 34.9832 50.687 35.6597C50.7353 36.3362 50.9286 36.771 51.1702 37.6408C51.4118 38.5105 51.6534 39.8152 51.5567 41.0231C51.4601 42.2311 51.0735 43.3908 50.542 44.3089C50.0105 45.1786 49.3823 45.8068 48.9475 46.1933C48.4643 46.5799 48.1744 46.7732 48.0294 47.1114C47.8361 47.4496 47.7878 47.8845 47.5945 48.2227C47.4496 48.561 47.1597 48.8509 46.8214 49.0925C46.4349 49.3341 45.9517 49.5274 45.4685 49.7689C44.9853 50.0105 44.4538 50.2521 43.9706 50.3488C43.4874 50.4454 43.0525 50.4454 42.666 50.5904C42.2794 50.7353 41.9895 51.0252 41.6512 51.3152C41.313 51.5568 41.0231 51.7984 40.5399 51.9916C40.0567 52.2332 39.3319 52.4265 38.7521 52.5715C38.1723 52.7164 37.7374 52.7647 37.1576 52.6681C36.626 52.5715 35.9496 52.3299 35.3214 52.3782Z" fill="white"/>
<path fill-rule="evenodd" clip-rule="evenodd" d="M51.3634 41.4097C51.605 41.1198 51.7017 41.2648 51.4601 42.0862C51.2185 42.8593 50.687 44.2606 50.1071 45.1303C49.5273 46.0001 48.8508 46.3383 48.4643 46.7732C48.0294 47.1597 47.8845 47.6429 47.4979 48.1261C47.1597 48.6093 46.6282 49.0925 46.1933 49.4308C45.7584 49.769 45.3235 49.914 44.8403 50.0106C44.3088 50.1072 43.6807 50.2039 43.1008 50.4455C42.521 50.6871 42.0378 51.1219 41.5546 51.5085C41.0231 51.895 40.4916 52.2333 39.9601 52.4266C39.4286 52.6198 38.8971 52.6681 38.4622 52.7165C38.0273 52.7165 37.5924 52.7165 37.2059 52.5715C36.771 52.4266 36.2878 52.185 35.9496 52.0883C35.6113 51.9917 35.4181 52.0883 34.9349 52.3299C34.4517 52.6198 33.7752 53.0547 33.0987 53.2963C32.4706 53.5379 31.8908 53.4896 31.2143 53.2963C30.5378 53.103 29.7647 52.7165 29.1849 52.2816C28.605 51.8467 28.2185 51.3635 27.9286 50.977C27.6387 50.5904 27.4454 50.2522 27.1071 50.1072C26.7689 50.0106 26.2374 50.0589 25.6576 50.1072C25.0294 50.1072 24.2563 50.0589 23.7248 49.9139C23.145 49.769 22.7584 49.4791 22.3718 49.0925C21.937 48.706 21.5021 48.2228 21.1639 47.7879C20.8256 47.353 20.6807 46.9181 20.3908 46.5316C20.1008 46.145 19.7143 45.8551 19.1345 45.227C18.5546 44.5988 17.7815 43.7291 17.3466 42.9076C16.9118 42.0862 16.8634 41.4097 16.8634 40.54C16.9118 39.6702 17.0084 38.7039 17.2017 37.9308C17.395 37.206 17.5882 36.7228 17.8298 36.2879C18.0231 35.853 18.2647 35.3698 18.1197 34.5484C17.9748 33.727 17.4916 32.4707 17.3466 31.456C17.2017 30.4412 17.4916 29.7165 17.7815 28.9917C18.0714 28.2669 18.458 27.6387 18.7962 27.1072C19.1345 26.624 19.521 26.2375 19.4727 25.9476C19.4244 25.6576 18.9895 25.3677 18.6513 25.0295C18.313 24.6913 18.0714 24.2564 17.8781 23.3383C17.6849 22.4202 17.5882 21.019 17.5882 20.1009C17.5882 19.1828 17.7332 18.7963 17.8781 18.4097C18.0231 18.0232 18.2647 17.7333 18.1681 17.3467C18.0714 17.0085 17.6849 16.6219 17.3466 15.9938C17.0084 15.4139 16.7668 14.6408 16.7185 13.8194C16.6702 12.998 16.8151 12.1282 17.0567 11.5001C17.2983 10.8236 17.6849 10.3887 18.0231 9.85722C18.3613 9.32571 18.6996 8.74588 19.2311 8.40764C19.7626 8.0694 20.4874 7.97276 20.729 8.11772C20.9706 8.26268 20.729 8.60092 20.4874 8.98747C20.2458 9.37402 20.1008 9.80889 19.9559 10.2438C19.8109 10.6786 19.7143 11.0652 19.666 11.5001C19.6176 11.8866 19.5693 12.2732 19.6176 12.7081C19.6176 13.0946 19.7143 13.4812 19.8592 13.916C20.0042 14.3509 20.1975 14.7858 20.4391 15.2207C20.6807 15.6555 20.9706 16.0904 21.1639 16.332C21.3088 16.5736 21.3088 16.5736 21.2122 16.6702C21.0672 16.8152 20.8256 17.0568 20.6323 17.3467C20.4391 17.6366 20.2941 17.8782 20.1975 18.2165C20.1008 18.5547 20.0525 18.9896 20.0525 19.3761C20.0525 19.7627 20.1008 20.1492 20.1975 20.4392C20.2941 20.7291 20.4391 21.019 20.584 21.2123C20.729 21.4539 20.9223 21.6471 20.9706 21.6955C21.0672 21.7921 21.0672 21.7921 20.9706 21.9854C20.874 22.1787 20.6807 22.6135 20.6323 23.0967C20.5357 23.5799 20.5357 24.0631 20.584 24.4496C20.6324 24.8362 20.729 25.1261 20.8739 25.3677C21.0189 25.6093 21.2122 25.8026 21.4055 25.8509C21.5987 25.8992 21.792 25.8509 22.1786 25.7543C22.5651 25.6576 23.0966 25.561 23.5315 25.5127C23.9664 25.4644 24.3046 25.5127 24.5462 25.5127C24.8361 25.561 25.0294 25.6093 25.2227 25.706C25.416 25.8026 25.5609 25.8992 25.6576 25.9959C25.7542 26.0442 25.7542 26.0442 25.7542 26.0442C25.7542 26.0442 25.7542 26.0442 25.6576 25.9959C25.5609 25.9476 25.3193 25.8509 25.126 25.8026C24.9328 25.7543 24.7878 25.7543 24.6429 25.8026C24.4979 25.8026 24.3046 25.8509 24.1597 25.8992C23.9664 25.9475 23.8214 26.0925 23.6765 26.1891C23.5315 26.3341 23.3866 26.4308 23.3382 26.5274C23.2899 26.5757 23.2899 26.5757 23.3382 26.624C23.4349 26.624 23.5798 26.624 23.7248 26.6723C23.8697 26.7207 23.9664 26.769 24.1597 26.8656C24.3529 26.9623 24.5462 27.1072 24.7395 27.2522C24.9328 27.3971 25.0777 27.5904 25.2227 27.832C25.3676 28.0253 25.5126 28.3152 25.5609 28.5568C25.6576 28.7984 25.7059 29.0883 25.7059 29.3782C25.7059 29.6681 25.6576 29.9581 25.5609 30.1997C25.4643 30.4896 25.271 30.7312 25.0294 30.9728C24.7878 31.2144 24.5462 31.4076 24.2563 31.5526C23.9664 31.6976 23.6765 31.7942 23.3866 31.8908C23.0966 32.0358 22.7584 32.1807 22.8067 32.2774C22.855 32.374 23.1933 32.4707 23.2899 33.3887C23.3866 34.3068 23.1933 36.0946 23.0483 37.2543C22.9034 38.4139 22.8067 38.8971 22.8067 39.3803C22.8067 39.8635 22.855 40.2501 23 40.6366C23.145 41.0232 23.3382 41.4097 23.5798 41.6997C23.8214 41.9896 24.1113 42.2795 24.3529 42.4728C24.5945 42.666 24.8361 42.8593 25.0777 42.956C25.3193 43.0526 25.5126 43.1009 25.6092 43.1492C25.7059 43.1976 25.7059 43.1976 25.7542 43.4392C25.8025 43.6808 25.8508 44.1639 25.9958 44.6471C26.1408 45.1303 26.334 45.5652 26.6723 46.0001C26.9622 46.435 27.3487 46.8215 27.8319 47.1114C28.3151 47.4013 28.7983 47.6429 29.3298 47.7396C29.813 47.8362 30.2479 47.8362 30.6345 47.7396C31.021 47.6913 31.3109 47.5946 31.4076 47.5463C31.5525 47.498 31.5525 47.498 31.6008 47.5946C31.6492 47.6429 31.7458 47.7879 31.9874 47.9812C32.229 48.1744 32.5672 48.416 32.9538 48.6093C33.3403 48.8026 33.8235 48.9959 34.2584 49.0925C34.6933 49.1892 35.1282 49.1408 35.563 49.0442C35.9979 48.9476 36.4811 48.7543 36.8676 48.561C37.2542 48.3194 37.5441 48.0778 37.6891 47.9812C37.834 47.8362 37.834 47.8362 37.9307 47.9328C38.0273 48.0295 38.2206 48.1744 38.6071 48.3677C38.9937 48.561 39.5252 48.8509 39.9601 48.9959C40.395 49.1408 40.6849 49.1892 40.9748 49.1892C41.2647 49.1892 41.5546 49.1408 41.8445 49.0442C42.1345 48.9476 42.4727 48.8026 42.6176 48.7543C42.7626 48.706 42.7626 48.706 43.0525 48.7543C43.2941 48.8026 43.8256 48.9476 44.2605 48.9959C44.6954 49.0442 45.0819 48.9476 45.4202 48.8509C45.7584 48.706 46.0483 48.5127 46.3382 48.2711C46.6282 48.0295 46.8697 47.6913 47.0147 47.2564C47.208 46.8215 47.3529 46.3383 47.4013 46.0484C47.4496 45.8068 47.4496 45.8068 47.5945 45.7585C47.7395 45.7102 48.0294 45.6135 48.3676 45.3719C48.7059 45.1303 49.1408 44.7438 49.5273 44.3572C49.8655 43.9707 50.1555 43.5841 50.4937 43.0043C50.7353 42.4728 51.1218 41.6997 51.3634 41.4097ZM27.9286 18.9896C27.4937 19.2312 27.0105 19.3761 26.479 19.3761C24.6912 19.3761 23.2899 17.7333 23.2899 15.7039C23.2899 15.1723 23.3866 14.6892 23.5315 14.2543C23.0966 14.8341 22.8067 15.6555 22.8067 16.477C22.8067 18.4097 24.1597 19.956 25.8025 19.956C26.6723 19.956 27.3971 19.5694 27.9286 18.9896ZM26.624 12.853C26.2374 12.998 25.8025 13.0946 25.3193 13.0463C23.7731 12.853 22.7584 11.2585 22.9517 9.51898C23 9.0841 23.145 8.64923 23.3382 8.26268C22.9034 8.74587 22.5651 9.37403 22.4685 10.0988C22.2752 11.7417 23.2416 13.2396 24.6912 13.4328C25.416 13.5295 26.0441 13.2879 26.624 12.853ZM32.0357 21.5988C34.2101 23.8215 36.1912 23.8698 37.8824 21.1639C37.3508 21.5022 36.8193 21.8887 36.2878 22.082C35.8046 22.2753 35.3214 22.2753 34.9349 22.3236C34.5483 22.3236 34.3067 22.3236 34.1134 22.3236C33.9202 22.3236 33.8235 22.3719 33.6786 22.3719C33.5336 22.3719 33.3887 22.3236 33.0987 22.227C32.8571 22.0337 32.4223 21.8404 32.0357 21.5988ZM43.1492 20.6324C45.4685 22.9034 47.4979 23.0001 49.2857 20.1009C48.8025 20.3908 48.3677 20.7291 47.7878 20.9707C47.208 21.2123 46.5798 21.4055 46.0966 21.5505C45.6135 21.6471 45.3719 21.6471 45.1303 21.5988C44.8887 21.5505 44.6954 21.4539 44.5021 21.3089C44.3088 21.2123 44.0672 21.0673 43.8256 20.9707C43.584 20.874 43.3908 20.7291 43.2458 20.6807C43.1492 20.6324 43.1492 20.6324 43.1492 20.6324Z" fill="#C5C6C6"/>
<path fill-rule="evenodd" clip-rule="evenodd" d="M38.9454 22.855C39.042 23.0483 39.187 23.2899 39.4286 23.4832C39.6702 23.6765 39.9118 23.8697 40.1534 23.9664C40.395 24.063 40.6849 24.1113 40.9265 24.1113C41.1681 24.1113 41.458 24.063 41.6996 24.0147C41.9412 23.9664 42.1828 23.8214 42.4244 23.6765C42.666 23.5315 42.9076 23.2899 43.1009 23.0966C43.2941 22.9034 43.3908 22.6618 43.4391 22.5168C43.4874 22.3718 43.4874 22.2269 43.4391 22.1303C43.3908 22.0336 43.3424 21.937 43.2458 21.8887C43.1492 21.8403 43.0042 21.8403 42.9076 21.8403C42.8109 21.8403 42.7143 21.8886 42.6177 22.0336C42.521 22.1302 42.4244 22.3235 42.2794 22.4685C42.1828 22.6135 42.0378 22.7584 41.8446 22.9034C41.6513 23 41.458 23.0966 41.2647 23.145C41.0714 23.1933 40.9265 23.1933 40.7332 23.145C40.5399 23.0966 40.395 23 40.2017 22.9034C40.0567 22.7584 39.8635 22.5651 39.7668 22.4685C39.6702 22.3235 39.5735 22.2752 39.4769 22.2269C39.3803 22.1786 39.2353 22.2269 39.0904 22.2752C38.9937 22.3235 38.8971 22.4202 38.8488 22.5168C38.8488 22.5651 38.8488 22.7101 38.9454 22.855Z" fill="black"/>
<path fill-rule="evenodd" clip-rule="evenodd" d="M36.5294 21.5987C37.1576 20.7773 37.5441 19.521 37.5441 18.1197C37.5441 15.6554 36.3361 13.6743 34.8865 13.6743C33.3886 13.6743 32.229 15.6554 32.229 18.1197C32.229 19.7142 32.7122 21.0672 33.4853 21.8886C32.8088 21.792 32.229 21.5504 31.7458 21.3088C32.5189 22.2752 33.6302 22.855 34.8865 22.8067C36.3844 22.8067 37.6408 21.8886 38.3172 20.584C37.8823 21.0189 37.2542 21.3571 36.5294 21.5987ZM35.9496 15.9936C36.4328 15.9936 36.8193 17.0567 36.8193 18.3613C36.8193 19.6659 36.4328 20.7289 35.9496 20.7289C35.4664 20.7289 35.0798 19.6659 35.0798 18.3613C35.0798 17.0567 35.4664 15.9936 35.9496 15.9936Z" fill="black"/>
<path fill-rule="evenodd" clip-rule="evenodd" d="M47.7878 20.7774C48.416 20.0043 48.8025 18.748 48.8025 17.395C48.8025 15.0274 47.6429 13.0946 46.1933 13.0946C44.7437 13.0946 43.584 15.0274 43.584 17.395C43.584 18.9413 44.0672 20.2942 44.792 21.0673C44.1155 20.9707 43.5357 20.7774 43.1008 20.4875C43.8256 21.4055 44.937 21.9854 46.1449 21.9371C47.5945 21.9371 48.8508 21.0673 49.5273 19.811C49.0924 20.1976 48.4643 20.5358 47.7878 20.7774ZM47.208 15.3173C47.6912 15.3173 48.0777 16.332 48.0777 17.6366C48.0777 18.8929 47.6912 19.956 47.208 19.956C46.7248 19.956 46.3382 18.9413 46.3382 17.6366C46.3382 16.332 46.7248 15.3173 47.208 15.3173Z" fill="black"/>
<path fill-rule="evenodd" clip-rule="evenodd" d="M32.5673 45.2753C31.9391 45.1303 31.5526 44.9854 31.3593 44.937C31.166 44.8887 31.166 44.8887 31.4076 44.8404C31.6492 44.7921 32.1324 44.6954 32.6156 44.5022C33.0988 44.3572 33.582 44.1639 33.9685 43.9223C34.3551 43.6807 34.645 43.4391 34.8866 43.1976C35.0799 42.956 35.2248 42.7143 35.2731 42.5694C35.3215 42.4244 35.3215 42.4244 35.3215 42.4244C35.3215 42.4244 35.3215 42.4244 35.2248 42.666C35.1282 42.9076 34.9832 43.3425 34.7899 43.7291C34.5967 44.1156 34.3067 44.3572 34.2101 44.5022C34.0652 44.6471 34.0652 44.6471 34.1618 44.6955C34.2584 44.7438 34.4034 44.7921 34.6933 44.8887C34.9832 44.9854 35.3698 45.082 35.7563 45.082C36.1429 45.1303 36.4811 45.082 36.8194 45.0337C37.1576 44.937 37.5441 44.8404 37.8341 44.6471C38.124 44.4539 38.3656 44.2606 38.4622 44.1156C38.5589 44.019 38.5588 44.019 38.5105 44.1156C38.4622 44.2123 38.3656 44.4539 38.1723 44.6955C37.979 44.937 37.7374 45.1786 37.4475 45.3719C37.1576 45.5652 36.8677 45.6618 36.4328 45.7101C35.9979 45.7585 35.4664 45.8068 34.7899 45.7101C34.0168 45.6135 33.1954 45.4202 32.5673 45.2753Z" fill="#C5C6C6"/>
<path fill-rule="evenodd" clip-rule="evenodd" d="M19.3761 25.3677V26.5757C18.8929 26.624 18.3614 26.7206 17.8299 26.7206C17.2984 26.7206 16.7668 26.6723 16.187 26.5757V25.3677C16.7185 25.416 17.2984 25.5126 17.8299 25.5126C18.3614 25.5126 18.8929 25.416 19.3761 25.3677Z" fill="#ED6C35"/>
<path fill-rule="evenodd" clip-rule="evenodd" d="M17.8782 43.7774L18.0231 45.0337C17.3466 44.9371 16.6702 44.8887 15.9454 44.6955C15.2689 44.5022 14.5441 44.2606 13.8193 44.019L13.6744 42.7627C14.3992 43.0043 15.0756 43.2942 15.8004 43.4392C16.5252 43.6324 17.2017 43.7291 17.8782 43.7774Z" fill="#ED6C35"/>
<path fill-rule="evenodd" clip-rule="evenodd" d="M16.5252 39.477V40.7333C16.3802 40.685 16.2836 40.685 16.1386 40.6366C15.6555 40.54 15.1723 40.3467 14.6407 40.1535L14.9307 39.0421C15.2689 39.1871 15.6555 39.2837 15.9937 39.3804C16.187 39.4287 16.3319 39.4287 16.5252 39.477Z" fill="#ED6C35"/>
<path fill-rule="evenodd" clip-rule="evenodd" d="M28.5568 51.3634L27.687 50.1071C27.3004 50.1071 26.9139 50.0588 26.479 50.0588C25.0778 49.9621 23.6282 49.8655 21.8404 49.5756C20.0525 49.2857 17.8299 48.8025 16.1387 48.4159C14.4958 48.0294 13.3362 47.6911 12.2248 47.3529L11.8383 48.5609C12.9496 48.8991 14.1093 49.189 15.7521 49.6239C17.395 50.0105 19.6177 50.4937 21.4538 50.7836C23.2416 51.0735 24.6912 51.1701 26.0925 51.2668C26.9139 51.2668 27.7353 51.3151 28.5568 51.3634Z" fill="#FAC18A"/>
<path fill-rule="evenodd" clip-rule="evenodd" d="M42.5693 50.3971L41.9895 51.75C42.5693 51.6534 43.2458 51.5085 43.9223 51.3635C45.7101 50.9769 47.8845 50.3488 49.5273 49.8656L49.0441 48.7059C47.4013 49.1891 45.2269 49.8173 43.4391 50.2038C43.1492 50.3005 42.8592 50.3488 42.5693 50.3971Z" fill="#FAC18A"/>
<path fill-rule="evenodd" clip-rule="evenodd" d="M10.292 50.4937L9.27729 51.7016C8.89074 51.75 8.50419 51.7983 8.16596 51.8466C7.39285 51.9432 6.66805 52.0882 6.08822 52.2331C5.50839 52.3781 5.0252 52.5231 4.54201 52.7647C4.05881 52.9579 3.52729 53.1995 3.14074 53.4411C3.0441 53.4894 2.99578 53.5378 2.89914 53.5861L1.98108 52.9579C2.22268 52.7646 2.51259 52.5714 2.89914 52.3781C3.2857 52.1365 3.81722 51.8949 4.30041 51.7016C4.7836 51.5084 5.26679 51.3151 5.84663 51.1701C6.42646 51.0252 7.15125 50.8802 7.92436 50.7836C8.64915 50.6386 9.47057 50.5903 10.292 50.4937Z" fill="#FAC18A"/>
<path fill-rule="evenodd" clip-rule="evenodd" d="M47.208 54.4076L48.3677 53.248C46.5315 53.5862 44.7437 53.9244 42.5693 54.166C40.395 54.4076 37.8824 54.5043 34.645 54.5043C31.4076 54.5526 27.4937 54.5043 23.9181 54.311C20.3424 54.1177 17.0567 53.7795 14.6408 53.4896C12.1765 53.1513 10.5819 52.8131 8.93908 52.4749L7.77942 53.6345C9.42228 53.9728 11.0651 54.311 13.4811 54.6492C15.9454 54.9875 19.1828 55.3257 22.7584 55.4707C26.334 55.6639 30.2479 55.6639 33.4853 55.6639C36.7227 55.6156 39.2353 55.519 41.4097 55.3257C43.5357 55.0841 45.3719 54.7459 47.208 54.4076Z" fill="#FAC18A"/>
<path fill-rule="evenodd" clip-rule="evenodd" d="M8.60087 50.6871C9.13238 50.6388 9.71221 50.5905 10.292 50.4938L9.27734 51.7018C8.89078 51.7501 8.50423 51.7985 8.166 51.8468C7.9244 51.8951 7.63448 51.9434 7.39289 51.9434C7.44121 51.8951 7.48953 51.8951 7.53785 51.8468C7.87608 51.6052 8.16599 51.3153 8.45591 50.8804C8.45591 50.8321 8.50423 50.7354 8.60087 50.6871ZM2.70591 52.4266C3.38238 52.5716 4.10717 52.5716 4.78365 52.5716C4.88028 52.5716 4.9286 52.5716 5.02524 52.5716C4.83196 52.6199 4.687 52.7165 4.49373 52.7648C4.01053 52.9581 3.47902 53.1997 3.09247 53.4413C2.99583 53.4896 2.94751 53.538 2.85087 53.5863L1.9328 52.9581C2.1744 52.7648 2.36768 52.6199 2.70591 52.4266ZM16.0904 19.2795C16.187 19.2795 16.2836 19.2795 16.3803 19.2795C16.9118 19.2795 17.395 19.2312 17.9265 19.1346V17.9266C17.4433 17.9749 16.9118 18.0716 16.3803 18.0716C16.332 18.0716 16.2353 18.0716 16.187 18.0716C16.187 18.2648 16.187 18.5064 16.187 18.6997C16.1387 18.893 16.1387 19.0863 16.0904 19.2795ZM14.8341 14.3026C14.7374 13.8678 14.6891 13.4812 14.6891 13.0947C14.7857 13.0947 14.8824 13.0947 14.979 13.0947C15.5105 13.0947 15.9937 13.0463 16.5252 12.9497V14.1577C16.042 14.206 15.5105 14.3026 14.979 14.3026C14.9307 14.3026 14.8824 14.3026 14.8341 14.3026ZM19.3278 50.3489C20.0526 50.4938 20.7773 50.6388 21.4538 50.7354C23.2416 51.0254 24.6912 51.122 26.0925 51.2186C26.9139 51.2669 27.7353 51.3153 28.5568 51.3636L27.687 50.1073C27.3005 50.1073 26.9139 50.059 26.479 50.059C25.0778 49.9623 23.6282 49.8657 21.8404 49.5758C20.874 49.4308 19.7626 49.1892 18.7479 48.9959C18.7962 49.1892 18.8446 49.3342 18.9412 49.5275C19.0378 49.7691 19.1828 50.059 19.3278 50.3489ZM48.0778 48.9959C46.6282 49.4308 44.8887 49.914 43.4391 50.2039C43.1492 50.2522 42.8593 50.3489 42.5694 50.3972L41.9895 51.7501C42.5694 51.6535 43.2458 51.5085 43.9223 51.3636C44.6471 51.2186 45.5168 50.977 46.3383 50.7837C47.0631 50.3489 47.6912 49.7207 48.0778 48.9959ZM40.0568 54.3111C39.0904 54.3594 38.0273 54.4077 36.916 54.4077C37.8341 54.6493 38.8488 54.6493 39.8152 54.3594C39.9118 54.3594 39.9601 54.3594 40.0568 54.3111ZM33.0021 55.6157C33.6303 55.3741 34.1135 54.9392 34.5967 54.456C32.5673 54.456 30.1996 54.456 27.8803 54.4077C28.4118 54.9392 28.9916 55.3258 29.6198 55.6157C30.7794 55.664 31.8908 55.664 33.0021 55.6157Z" fill="#ED6C35"/>
<path fill-rule="evenodd" clip-rule="evenodd" d="M6.71639 53.4895C6.2332 53.9727 6.13656 54.1177 6.08824 54.2143C6.03992 54.3109 6.03992 54.4076 6.03992 54.4559C6.03992 54.5042 6.03992 54.5042 5.94328 54.4559C5.84664 54.4076 5.70168 54.3109 5.46009 54.2143C5.17017 54.1177 4.78361 53.9727 4.34874 53.8277C3.91387 53.6828 3.47899 53.4895 3.14076 53.3445C2.80252 53.1996 2.56093 53.0546 2.31933 52.8614C2.07773 52.6681 1.88445 52.4265 1.69118 52.2332C1.4979 52.0399 1.40126 51.895 1.30462 51.7017C1.2563 51.5567 1.2563 51.4118 1.30462 51.3151C1.35294 51.2185 1.44958 51.1219 1.59454 51.0735C1.7395 50.9769 1.93277 50.8803 2.17437 50.7836C2.41597 50.687 2.70588 50.5904 3.14076 50.4937C3.52731 50.3971 4.05882 50.2521 4.59034 50.1555C5.12185 50.0588 5.70168 49.9622 6.37815 49.9139C7.05462 49.8656 7.82773 49.8655 8.45588 49.8172C9.08404 49.8172 9.61555 49.8172 9.90546 49.7689C10.1471 49.7689 10.1471 49.7689 10.0021 50.0105C9.80882 50.2521 9.47059 50.687 8.79412 51.3635C8.11765 52.0882 7.19959 52.958 6.71639 53.4895ZM52.813 20.9223C55.6156 15.7038 58.3698 10.4853 59.771 7.92438C61.1723 5.31513 61.1723 5.31513 61.3656 5.26681C61.6072 5.21849 62.042 5.12185 62.4286 5.02522C62.8151 4.88026 63.2017 4.7353 63.4433 4.4937C63.6849 4.2521 63.7815 4.0105 63.7815 3.62395C63.7815 3.28571 63.5882 2.85084 63.395 2.5126C63.2017 2.17437 62.9601 1.88446 62.6219 1.64286C62.2836 1.40127 61.8971 1.25631 61.5588 1.25631C61.2206 1.25631 60.8824 1.40126 60.6891 1.44958C60.5441 1.54622 60.5441 1.54622 60.4475 1.44958C60.3992 1.40126 60.3025 1.25631 60.1576 1.15967C60.0126 1.06303 59.8193 1.06303 59.6744 1.11135C59.5294 1.15967 59.4328 1.35294 59.3845 1.59454C59.3845 1.83614 59.4328 2.17437 59.5294 2.5126C59.6261 2.89916 59.771 3.28571 59.8193 3.47899C59.8677 3.67227 59.8677 3.67227 58.6114 6.18488C57.3067 8.64916 54.6975 13.6261 52.1366 18.603C51.8467 18.0714 51.5084 17.5882 51.0735 17.25C51.7983 16.187 52.2815 14.7857 52.2815 13.3361C52.2815 11.1618 51.3151 9.22899 49.8656 8.11765C50.0105 6.42647 49.2374 4.83193 47.5946 3.76891C46.1933 2.85084 44.3572 2.51261 42.521 2.65756C41.458 1.06303 39.7185 0 37.7374 0C36.5777 0 35.4664 0.338235 34.5483 0.966387C33.7269 0.434874 32.8088 0.0966372 31.7941 0.0966372C29.958 0.0966372 28.3635 1.11135 27.3971 2.70589C25.1261 2.17437 22.5168 3.28571 21.0672 5.65336C20.6807 6.23319 20.4391 6.86135 20.2458 7.44118C19.0861 7.87606 18.0231 8.74581 17.2017 9.90547C16.9601 9.85715 16.7668 9.80882 16.4769 9.66387C16.187 9.51891 15.8004 9.32563 15.5105 9.229C15.2206 9.13236 15.0273 9.08404 14.834 9.13236C14.6408 9.18068 14.5441 9.27732 14.4475 9.37395C14.3508 9.47059 14.3025 9.61555 14.2542 9.7605C14.1576 9.90546 14.0126 10.0987 13.8676 10.292C13.7227 10.4853 13.5777 10.7269 13.4328 10.9685C13.2878 11.2101 13.1912 11.5 13.0945 11.6933C12.9979 11.8866 12.9496 12.0315 12.8529 12.3214C12.7563 12.6114 12.708 12.9979 12.708 13.6261C12.708 14.2542 12.8529 15.0756 12.9979 15.6555C13.1429 16.2836 13.2878 16.6218 13.4811 17.25C13.7227 17.8298 14.0126 18.6513 14.3025 19.5693C14.5924 20.4874 14.9307 21.5021 15.0756 22.2269C15.2689 22.9517 15.3172 23.3382 15.3656 23.8698C15.4139 24.4013 15.5105 25.0294 15.5105 25.6576C15.5105 26.2857 15.5105 26.8656 15.4622 27.2521C15.4139 27.5903 15.3656 27.7353 15.3656 27.7836C15.3656 27.8319 15.3656 27.8319 15.2689 27.8803C15.1723 27.9286 15.0273 28.0252 14.8824 28.1219C14.7374 28.2668 14.6408 28.4118 14.5924 29.1366C14.4958 29.8613 14.4475 31.166 14.3992 31.9874C14.3508 32.8088 14.3025 33.0987 14.3508 33.3887C14.3992 33.6786 14.4958 33.8719 14.5441 34.0168C14.5924 34.1618 14.5924 34.2101 14.4958 34.7416C14.4475 35.2731 14.3025 36.2878 14.0609 37.7857C13.8193 39.2836 13.4328 41.313 12.9013 43.1975C12.3697 45.0819 11.5966 46.8214 11.2584 47.6912C10.8719 48.5609 10.8719 48.5609 10.6786 48.5609C10.4853 48.5609 10.0987 48.5126 9.42227 48.5126C8.7458 48.5126 7.77941 48.5609 6.86134 48.6576C5.89496 48.7542 4.92858 48.8992 4.05883 49.0441C3.18908 49.1891 2.36765 49.3824 1.78781 49.5756C1.20798 49.7689 0.773109 50.0105 0.483193 50.3004C0.193277 50.5903 0 50.9286 0 51.3151V51.3635C0 51.75 0.14496 52.1849 0.338238 52.5231C0.579834 52.9097 0.869748 53.1996 1.20798 53.5378C1.59454 53.8277 1.98109 54.1176 2.5126 54.4076C2.9958 54.6492 3.52731 54.8424 4.01051 54.9874C4.4937 55.1324 4.88025 55.229 5.17017 55.3256C5.46008 55.4223 5.70168 55.5189 5.89496 55.7122C6.08824 55.9055 6.28152 56.1471 6.66807 56.3887C7.05463 56.6303 7.63446 56.8235 8.26261 57.0168C8.89076 57.1618 9.51891 57.3067 10.3403 57.4034C11.1618 57.5 12.0798 57.645 13.771 57.6933C15.4622 57.7416 17.8782 57.6933 19.4727 57.5966C21.1156 57.5 21.937 57.3551 22.7101 57.2101C23.5315 57.0651 24.2563 56.9685 24.9328 56.9202C25.5609 56.8719 26.0924 56.8235 26.6723 56.8235C27.2521 56.8235 27.9286 56.9202 28.6534 57.0651C29.3782 57.2101 30.1996 57.4517 30.8761 57.5966C31.5525 57.7416 32.084 57.7899 32.374 57.8382C32.6639 57.8866 32.6156 57.8866 32.5672 58.563C32.4706 59.2395 32.3256 60.6408 32.2773 61.4139C32.1807 62.187 32.1807 62.4286 32.2773 62.6219C32.374 62.8151 32.5189 63.0567 32.7605 63.25C33.0021 63.4433 33.2437 63.6366 33.5336 63.7332C33.8235 63.8298 34.1135 63.9265 34.3551 63.8782C34.5966 63.8782 34.7899 63.7815 34.9349 63.6849C35.0798 63.5882 35.1282 63.4433 35.1765 63.2983C35.2248 63.1534 35.2248 62.9601 35.1765 62.8151C35.1282 62.6702 35.0315 62.5252 34.9349 62.3803C34.8382 62.2353 34.6933 62.1387 34.5483 62.042C34.4034 61.9454 34.2584 61.8971 34.0651 61.8004C33.8719 61.7521 33.6303 61.7038 33.5336 61.6555C33.437 61.6555 33.437 61.6555 33.437 61.5105C33.4853 61.4139 33.5336 61.1723 33.5819 60.8824C33.6303 60.5925 33.6786 60.2542 33.6786 59.916C33.7269 59.5777 33.7269 59.2878 33.7269 58.9496C33.7269 58.6114 33.7752 58.3214 33.7752 58.1282C33.7752 57.9832 33.7752 57.9832 33.9202 57.9832C34.0168 57.9832 34.2584 58.0315 34.5966 58.0798C34.9349 58.1282 35.4181 58.1282 35.7563 58.1765C36.0945 58.1765 36.3361 58.2248 36.5294 58.2248C36.7227 58.2248 36.916 58.2248 37.0126 58.1765C37.1093 58.1765 37.1093 58.1765 37.0609 58.3214C37.0609 58.4664 37.0126 58.7563 36.9643 59.0462C36.916 59.2878 36.8677 59.5294 36.8193 59.771C36.771 60.0126 36.7227 60.2542 36.6744 60.4958C36.6261 60.7374 36.5294 60.979 36.4811 61.124C36.4328 61.2689 36.4328 61.4139 36.4328 61.5105C36.4328 61.6555 36.4811 61.8004 36.5777 61.9454C36.6744 62.0903 36.916 62.2353 37.1576 62.3803C37.3992 62.5252 37.7374 62.7185 38.0273 62.8151C38.3172 62.9118 38.5105 62.9601 38.7521 63.0084C38.9454 63.0567 39.1387 63.0567 39.3319 63.0084C39.5252 62.9601 39.6702 62.8635 39.7668 62.7668C39.8635 62.6702 39.9601 62.5252 39.9601 62.3803C39.9601 62.2353 39.9601 62.0903 39.9118 61.9454C39.8635 61.8004 39.7668 61.6071 39.6219 61.4622C39.4769 61.3172 39.2353 61.1723 38.9937 61.0756C38.7038 60.979 38.4139 60.9307 38.2206 60.8824C38.0273 60.834 37.979 60.834 37.9307 60.834C37.8824 60.834 37.8824 60.834 37.9307 60.6891C37.979 60.5441 38.0273 60.2542 38.0756 59.916C38.124 59.5777 38.1723 59.1912 38.2206 58.9013C38.2689 58.6114 38.3172 58.4181 38.3172 58.2731C38.3172 58.1765 38.3172 58.1765 38.5588 58.1282C38.8004 58.1282 39.2836 58.0798 39.7185 58.0315C40.1534 57.9832 40.5399 57.9349 40.9265 57.8866C41.313 57.8382 41.6996 57.7416 42.1345 57.645C42.5693 57.5483 43.1009 57.4517 43.5357 57.3067C43.9706 57.1618 44.4055 57.0168 44.792 56.7752C45.1786 56.5819 45.5651 56.3404 45.9517 56.0504C46.3382 55.8088 46.6765 55.5189 47.0147 55.229C47.353 54.9391 47.6429 54.6492 48.0294 54.166C48.416 53.6828 48.8025 53.0063 49.0925 52.3782C49.3824 51.7983 49.5756 51.3151 49.7206 50.8319C49.8656 50.3487 50.0588 49.8656 50.2038 49.2857C50.3488 48.7059 50.4937 48.0294 50.5903 47.4013C50.687 46.8214 50.7353 46.2899 50.7836 45.9034C50.8319 45.5168 50.8803 45.1786 50.9286 44.8887C51.8467 43.5357 52.3782 41.7962 52.3782 39.9118C52.3782 38.6555 52.0399 37.1576 51.5567 36.0945C51.6051 36.0945 51.7017 36.0462 51.75 36.0462C52.1849 35.8529 52.2815 35.6597 52.4265 35.1282C52.5714 34.5966 52.7647 33.7269 52.8614 32.9055C52.958 32.084 52.958 31.3592 52.958 30.8277C52.958 30.4412 52.958 29.958 52.6681 29.6681C52.6681 29.5714 52.6681 29.4748 52.6681 29.3782C52.6681 27.5903 51.9433 26.0441 50.8319 25.0777C51.9916 24.2563 52.813 22.7101 52.813 20.9223C52.813 20.9706 52.813 21.0672 52.813 20.9223ZM37.979 53.2962C38.5105 53.3445 39.042 53.2962 39.5735 53.1513C40.9265 52.8614 42.0861 52.0882 42.9076 51.0252C43.4391 51.0735 44.0189 51.0252 44.5504 50.9286C46.5315 50.4937 48.0777 49.0924 48.7542 47.2563C48.9958 47.1114 49.2374 46.9181 49.479 46.7248C49.2374 47.6912 48.9958 48.6576 48.7542 49.5756C48.5126 50.4937 48.271 51.3635 47.8845 52.1366C47.4979 52.9097 46.9664 53.6345 46.4349 54.2143C45.9034 54.7941 45.3719 55.1807 44.7437 55.5189C44.1156 55.8572 43.4391 56.1471 42.666 56.437C41.8929 56.6786 41.0714 56.8719 40.4433 56.9685C39.8151 57.0651 39.3319 57.1135 38.9937 57.1135C38.6555 57.1135 38.4622 57.1618 38.3656 57.1618C38.2689 57.1618 38.2689 57.1618 38.2689 57.0168C38.2689 56.8719 38.2689 56.6303 38.2689 56.292C38.2689 55.9538 38.2689 55.6156 38.2689 55.3256C38.2689 55.0357 38.2206 54.7458 38.1723 54.4076C38.124 54.0693 38.0756 53.6828 37.979 53.2962ZM36.7227 53.103C36.8193 53.5378 36.8677 53.9244 36.9643 54.3593C37.0126 54.7458 37.1093 55.1324 37.1093 55.6155C37.1093 56.0987 37.1093 56.6786 37.1093 56.9685C37.1093 57.2584 37.1093 57.2584 36.8193 57.2584C36.5294 57.2584 35.9496 57.2584 35.3698 57.2101C34.7899 57.1618 34.2101 57.1134 33.9685 57.0651C33.6786 57.0168 33.6786 57.0168 33.6786 56.8235C33.6786 56.6303 33.6303 56.1954 33.5819 55.7122C33.5336 55.229 33.437 54.7458 33.3887 54.4076C33.3403 54.0693 33.3403 53.9727 33.292 53.8277C34.1135 53.5861 34.7899 53.1513 35.4181 52.5231C35.7563 52.7647 36.2395 52.958 36.7227 53.103ZM16.6219 21.937C16.2353 20.9706 15.8004 20.0042 15.4139 18.9895C15.0273 17.9748 14.6408 16.8635 14.3992 15.9454C14.1576 15.0273 14.0609 14.2542 14.0609 13.6261C14.0609 12.9979 14.1576 12.4181 14.3992 11.9349C14.5924 11.4034 14.9307 10.9685 15.0756 10.7269C15.2206 10.4853 15.2206 10.4853 15.3172 10.5819C15.4139 10.6786 15.6071 10.8235 15.8487 10.9202C16.0903 11.0168 16.3803 11.0651 16.6702 11.0651C15.6071 13.4811 16.0903 16.2353 17.9265 17.7332C17.105 18.6029 16.5735 19.9076 16.5735 21.3571C16.6219 21.5021 16.6219 21.7437 16.6219 21.937ZM17.4433 28.4601C17.395 27.0588 17.3466 25.7059 17.2983 24.3046C17.4433 24.5462 17.5882 24.7878 17.7332 24.9811C18.1681 25.5126 18.6996 25.8508 19.3761 26.0441C18.4097 26.479 17.7815 27.3487 17.4433 28.4601ZM17.6366 36.1429C17.25 35.9979 16.8634 35.8046 16.5252 35.6597C16.187 35.5147 15.9454 35.3697 15.8487 35.3214C15.7038 35.2731 15.7038 35.2731 15.7038 35.708C15.6555 36.1912 15.5588 37.1093 15.4139 38.124C15.2689 39.1387 15.0756 40.2983 14.6891 41.8445C14.3025 43.3908 13.6744 45.2752 12.9979 46.9181C12.2731 48.5126 11.5 49.8656 10.6303 50.9286C9.76051 52.0399 8.89076 52.958 8.31092 53.4895C7.73109 54.0693 7.44118 54.3109 7.34454 54.6009C7.2479 54.8908 7.29622 55.1807 7.77942 55.4706C8.26261 55.7605 9.13236 56.0021 10.1954 56.1471C11.2584 56.3403 12.4664 56.437 13.916 56.4853C15.3172 56.5336 16.9601 56.5336 18.5546 56.437C20.1492 56.3403 21.7437 56.1471 22.9517 56.0021C24.1597 55.8572 25.0294 55.7605 25.9475 55.7122C26.8656 55.6639 27.7836 55.7122 28.8466 55.9055C29.8614 56.0987 30.9727 56.437 31.6492 56.6303C32.2773 56.8235 32.4706 56.8235 32.5189 56.8235C32.6156 56.8235 32.6156 56.8235 32.5189 56.3403C32.4223 55.8571 32.2773 54.8908 32.1324 53.9727C30.1029 54.021 28.1702 52.7164 27.2038 50.6387C26.9622 50.7353 26.7206 50.8319 26.479 50.8803C23.7731 51.5567 21.0189 49.6723 20.1008 46.5798C18.458 45.9517 16.5735 43.729 16.3319 41.313C15.9454 39.3803 16.5252 37.4475 17.6366 36.1429ZM23.9664 38.2689C27.2038 39.042 30.9244 39.4769 34.8866 39.4769C40.9265 39.4769 46.3866 38.4622 50.4937 36.8193C50.9769 37.7857 51.2668 38.9454 51.2668 40.1534C51.2668 42.7143 50.0105 44.9853 48.2227 46.0483C48.0777 46.145 47.9328 46.1933 47.7878 46.2899C47.7395 46.4349 47.6912 46.6282 47.6429 46.7731C47.063 48.2227 45.8551 49.3824 44.2605 49.7206C43.8256 49.8172 43.3908 49.8655 42.9559 49.8172C42.7626 49.8172 42.6177 49.7689 42.4244 49.7689C42.3277 49.9622 42.1828 50.1555 42.0378 50.3487C41.3614 51.2185 40.4433 51.8466 39.3319 52.0882C38.124 52.3782 36.8677 52.1366 35.8529 51.5084C35.6597 51.3634 35.4181 51.2668 35.2248 51.0735C35.0798 51.2668 34.9349 51.4601 34.7416 51.6534C34.2101 52.1849 33.5819 52.5714 32.8088 52.7647C30.8277 53.2479 28.895 52.1366 27.8803 50.1071C27.687 49.7689 27.5903 49.3824 27.4454 48.9475C27.2038 49.1408 26.9622 49.2857 26.6723 49.3824C26.479 49.479 26.2857 49.5273 26.0924 49.5756C23.9181 50.1071 21.7437 48.6093 21.0189 46.145C20.9706 45.9517 20.9223 45.7584 20.874 45.5651C16.7185 44.5021 16.2836 39.187 18.3613 36.3845C19.3277 36.8193 20.3908 37.2059 21.5021 37.5441C21.9853 38.1723 22.4685 38.7521 23 39.3319C23.5315 39.9118 24.063 40.395 24.5945 40.8782C25.1261 41.3613 25.7059 41.7962 26.0924 42.0861C26.479 42.3761 26.7689 42.521 26.9139 42.6176C27.0588 42.7143 27.0588 42.7143 27.1072 42.8109C27.1555 42.9559 27.3004 43.1975 27.4937 43.4874C27.687 43.7773 27.9769 44.1156 28.2668 44.3572C28.5567 44.5987 28.895 44.6954 29.1849 44.6954C29.4748 44.6954 29.7647 44.6471 30.0063 44.5504C30.2479 44.4538 30.3929 44.2605 30.5378 44.1156C30.6345 43.9223 30.7311 43.729 30.7794 43.5357C30.8277 43.3424 30.7794 43.1492 30.7311 42.9559C30.6828 42.7626 30.5861 42.5693 30.4412 42.4727C30.3445 42.3277 30.1996 42.2311 30.0546 42.1345C29.9097 42.0378 29.813 42.0378 29.7164 41.9895C29.6681 41.9895 29.6681 41.9895 29.6198 41.8929C29.6198 41.7962 29.5714 41.6513 29.5231 41.5063C29.4748 41.3614 29.3782 41.2164 29.2332 41.1197C29.1366 41.0231 28.9916 40.9265 28.7983 40.9265C28.6051 40.8782 28.4118 40.8782 28.2185 40.9265C28.0252 40.9748 27.8803 41.0231 27.7836 41.0714C27.687 41.1198 27.5903 41.1681 27.542 41.2164C27.4937 41.2647 27.4937 41.2647 27.4937 41.2647C27.4937 41.2647 27.4454 41.313 27.3971 41.313C27.3971 41.313 27.3971 41.313 27.0588 41.0714C26.7206 40.8298 26.0441 40.2983 25.4643 39.8151C24.9811 39.2836 24.4979 38.8004 23.9664 38.2689ZM22.4685 31.7458C22.5168 31.6492 22.5168 31.6009 22.6135 31.4076C22.7101 31.2143 22.9034 30.9244 23.0966 30.6828C23.2899 30.4412 23.4349 30.2479 23.6282 30.1029C23.7731 29.9097 23.9664 29.7647 24.063 29.6198C24.1597 29.4748 24.1597 29.3298 24.1597 29.1849C24.1597 29.0399 24.1114 28.9433 24.063 28.7983C24.0147 28.7017 23.9181 28.6051 23.8214 28.5084C23.7248 28.4601 23.5798 28.4118 23.4349 28.4118C23.3382 28.4118 23.1933 28.4601 23 28.5567C22.8067 28.7017 22.5168 28.895 22.2752 29.1366C22.0336 29.3782 21.8403 29.6198 21.6471 29.8613C21.5021 30.1029 21.3571 30.2962 21.2605 30.4895C21.1639 30.6828 21.0189 30.9244 20.9223 31.1177C19.9559 30.6828 19.0861 30.2479 18.313 29.7647C18.5546 28.0735 19.6177 26.6239 20.874 25.8992C19.0861 25.4643 17.7332 23.5315 17.7332 21.2122C17.7332 19.5693 18.4097 18.1197 19.4244 17.25C19.2794 17.2017 19.1345 17.105 18.9895 17.0084C18.8445 16.9118 18.7479 16.8151 18.6029 16.7185C16.8634 15.3172 16.5735 12.6113 17.9748 10.437C18.6513 9.42227 19.5693 8.69748 20.584 8.31092C20.7773 8.21428 20.9706 8.16597 21.1639 8.11765C21.2122 7.92437 21.2605 7.7311 21.3088 7.53782C21.4538 7.00631 21.6954 6.52311 21.9853 6.03992C23.1933 4.10714 25.3193 3.18908 27.2038 3.62395C27.4454 3.67227 27.687 3.76891 27.9286 3.86555C28.0252 3.62395 28.1702 3.43068 28.2668 3.18908C29.0882 1.88446 30.3929 1.06302 31.8908 1.06302C32.7122 1.06302 33.4853 1.30462 34.1618 1.78781C34.355 1.88445 34.5 2.02941 34.645 2.17437C34.7899 2.02941 34.9832 1.88446 35.1765 1.7395C35.9496 1.20799 36.8193 0.918072 37.7857 0.918072C39.4286 0.918072 40.8782 1.78782 41.7479 3.14076C41.8446 3.2374 41.8929 3.38235 41.9895 3.52731C42.1828 3.47899 42.3761 3.47899 42.521 3.47899C44.0672 3.33403 45.6618 3.62395 46.8698 4.44538C48.271 5.36344 48.8992 6.71639 48.8025 8.16597C48.8025 8.31093 48.7542 8.50421 48.7542 8.64917C48.9958 8.7458 49.2374 8.89076 49.4307 9.08404C50.5904 9.95378 51.4118 11.5483 51.4118 13.3361C51.4118 14.4958 51.0735 15.6071 50.4937 16.4769C50.3004 16.7185 50.1555 16.9601 49.9139 17.2017C50.9769 18.0714 51.6534 19.521 51.6534 21.1639C51.6534 22.9517 50.8319 24.4979 49.6723 25.3193C50.7836 26.2374 51.5084 27.8319 51.5084 29.6198C51.5084 29.6681 51.5084 29.7164 51.5084 29.7647C47.8845 32.1324 41.7962 33.7269 34.8866 33.7269C30.1996 33.6786 25.8508 32.9538 22.4685 31.7458Z" fill="black"/>
<path fill-rule="evenodd" clip-rule="evenodd" d="M75.1081 39.3622C75.1081 40.1181 75.7316 40.811 76.5422 40.811C77.2904 40.811 77.9762 40.1811 77.9762 39.3622V34.3858C77.9762 33.189 78.9115 32.2441 80.0962 32.2441C81.2809 32.2441 82.2162 33.189 82.2162 34.3858V39.3622C82.2162 40.1181 82.8397 40.811 83.6502 40.811C84.3985 40.811 85.0843 40.1811 85.0843 39.3622V34.3858C85.0843 31.6142 82.902 29.4094 80.1586 29.4094C78.7245 29.4094 77.5398 29.9764 76.6045 30.9213C75.7316 30.0394 74.4846 29.4094 73.0505 29.4094C72.2399 29.4094 71.554 29.5984 70.8682 29.9134C70.5564 29.4724 70.12 29.2205 69.5588 29.2205C68.6859 29.2205 68 29.9134 68 30.7953C68 31.3622 68.2494 31.8661 68.6859 32.1181C68.3741 32.811 68.1871 33.5669 68.1871 34.3228V39.2992C68.1871 40.0551 68.8106 40.748 69.6211 40.748C70.3694 40.748 71.0552 40.1181 71.0552 39.2992V34.3228C71.0552 33.126 71.9905 32.1811 73.1752 32.1811C74.3599 32.1811 75.2951 33.126 75.2951 34.3228V39.3622H75.1081ZM85.8949 35.0787C85.8949 38.2283 88.4513 40.811 91.5689 40.811C94.6865 40.811 97.2429 38.2283 97.2429 35.0787C97.2429 31.9291 94.6865 29.3465 91.5689 29.3465C88.4513 29.3465 85.8949 31.9291 85.8949 35.0787ZM88.7007 35.0787C88.7007 33.5039 89.9478 32.2441 91.5065 32.2441C93.0653 32.2441 94.3124 33.5039 94.3124 35.0787C94.3124 36.6535 93.0653 37.9134 91.5065 37.9134C89.9478 37.9134 88.7007 36.6535 88.7007 35.0787ZM98.2405 30.7953C98.2405 31.4252 98.6146 31.9921 99.1758 32.2441C98.677 33.063 98.4276 34.0079 98.4276 35.0787V39.3622C98.4276 40.1181 99.0511 40.811 99.8616 40.811C100.61 40.811 101.296 40.1811 101.296 39.3622V35.0787C101.296 33.5039 102.543 32.2441 104.102 32.2441C105.66 32.2441 106.907 33.5039 106.907 35.0787V39.3622C106.907 40.1181 107.531 40.811 108.341 40.811C109.09 40.811 109.776 40.1811 109.776 39.3622V35.0787C109.776 31.9291 107.219 29.3465 104.102 29.3465C103.042 29.3465 102.169 29.6614 101.296 30.1024C101.046 29.5354 100.485 29.1575 99.8616 29.1575C98.9264 29.2205 98.2405 29.9134 98.2405 30.7953ZM110.586 35.0787C110.586 38.2283 113.143 40.811 116.26 40.811C119.378 40.811 121.934 38.2283 121.934 35.0787C121.934 31.9291 119.378 29.3465 116.26 29.3465C113.143 29.3465 110.586 31.9291 110.586 35.0787ZM113.392 35.0787C113.392 33.5039 114.639 32.2441 116.198 32.2441C117.757 32.2441 119.004 33.5039 119.004 35.0787C119.004 36.6535 117.757 37.9134 116.198 37.9134C114.639 37.9764 113.392 36.6535 113.392 35.0787ZM124.179 37.9764C123.431 37.9764 122.745 38.6063 122.745 39.4252C122.745 40.1811 123.368 40.874 124.179 40.874H129.105C131.037 40.874 132.659 39.2992 132.659 37.2835C132.659 35.3307 131.1 33.6929 129.105 33.6929H126.299C125.862 33.6929 125.613 33.378 125.613 33C125.613 32.5591 125.925 32.3071 126.299 32.3071H130.539C131.287 32.3071 131.973 31.6772 131.973 30.8583C131.973 30.1024 131.349 29.4094 130.539 29.4094H126.299C124.366 29.4094 122.745 30.9843 122.745 33C122.745 34.9528 124.303 36.5906 126.299 36.5906H129.105C129.541 36.5906 129.79 36.9055 129.79 37.2835C129.79 37.7244 129.479 37.9764 129.105 37.9764H124.179ZM144.817 30.7953C144.817 30.0394 144.194 29.3465 143.383 29.3465C142.635 29.3465 141.949 29.9764 141.949 30.7953V35.0787C141.949 36.6535 140.702 37.9134 139.143 37.9134C137.584 37.9134 136.337 36.6535 136.337 35.0787V30.7953C136.337 30.0394 135.714 29.3465 134.903 29.3465C134.155 29.3465 133.469 29.9764 133.469 30.7953V35.0787C133.469 38.2283 136.026 40.811 139.143 40.811C140.141 40.811 141.076 40.5591 141.949 40.0551C142.198 40.622 142.76 41 143.383 41C144.256 41 144.942 40.3071 144.942 39.4252C144.942 38.7953 144.568 38.2283 144.007 37.9764C144.443 37.0945 144.755 36.2126 144.755 35.1417V30.7953H144.817ZM147.623 37.9764C146.875 37.9764 146.189 38.6063 146.189 39.4252C146.189 40.1811 146.812 40.874 147.623 40.874H152.549C154.482 40.874 156.103 39.2992 156.103 37.2835C156.103 35.3307 154.544 33.6929 152.549 33.6929H149.743C149.306 33.6929 149.057 33.378 149.057 33C149.057 32.5591 149.369 32.3071 149.743 32.3071H153.983C154.731 32.3071 155.417 31.6772 155.417 30.8583C155.417 30.1024 154.793 29.4094 153.983 29.4094H149.743C147.81 29.4094 146.189 30.9843 146.189 33C146.189 34.9528 147.748 36.5906 149.743 36.5906H152.549C152.985 36.5906 153.235 36.9055 153.235 37.2835C153.235 37.7244 152.923 37.9764 152.549 37.9764H147.623ZM168.635 35.0787C168.635 31.9291 166.079 29.3465 162.961 29.3465C161.901 29.3465 160.966 29.5984 160.156 30.1024V26.4488C160.156 25.6929 159.532 25 158.722 25C157.973 25 157.287 25.6299 157.287 26.4488V39.2992C157.287 40.0551 157.911 40.748 158.722 40.748C159.47 40.748 160.156 40.1181 160.156 39.2992V35.0158C160.156 33.441 161.403 32.1811 162.961 32.1811C164.52 32.1811 165.767 33.441 165.767 35.0158V39.2992C165.767 40.0551 166.391 40.748 167.201 40.748C167.95 40.748 168.635 40.1181 168.635 39.2992V35.0787ZM172.875 30.7953C172.875 30.0394 172.252 29.3465 171.441 29.3465C170.693 29.3465 170.007 29.9764 170.007 30.7953V39.3622C170.007 40.1181 170.631 40.811 171.441 40.811C172.189 40.811 172.875 40.1811 172.875 39.3622V30.7953ZM169.882 27.0787C169.882 27.9606 170.568 28.6536 171.441 28.6536C172.314 28.6536 173 27.9606 173 27.0787C173 26.1969 172.314 25.5039 171.441 25.5039C170.568 25.5039 169.882 26.1969 169.882 27.0787Z" fill="black"/>
</svg>
