<svg width="22" height="32" viewBox="0 0 22 32" fill="none" xmlns="http://www.w3.org/2000/svg">
<mask id="path-1-outside-1" maskUnits="userSpaceOnUse" x="13.5" y="26.0001" width="3" height="3" fill="black">
<rect fill="white" x="13.5" y="26.0001" width="3" height="3"/>
<path d="M15 27.0001C14.7235 27.0001 14.5 27.2241 14.5 27.5001C14.5 27.7761 14.7235 28.0001 15 28.0001C15.2765 28.0001 15.5 27.7761 15.5 27.5001C15.5 27.2241 15.2765 27.0001 15 27.0001Z"/>
</mask>
<path d="M15 27.0001C14.7235 27.0001 14.5 27.2241 14.5 27.5001C14.5 27.7761 14.7235 28.0001 15 28.0001C15.2765 28.0001 15.5 27.7761 15.5 27.5001C15.5 27.2241 15.2765 27.0001 15 27.0001Z" fill="#252525"/>
<path d="M15 27.0001C14.7235 27.0001 14.5 27.2241 14.5 27.5001C14.5 27.7761 14.7235 28.0001 15 28.0001C15.2765 28.0001 15.5 27.7761 15.5 27.5001C15.5 27.2241 15.2765 27.0001 15 27.0001Z" stroke="#252525" stroke-width="0.4" mask="url(#path-1-outside-1)"/>
<mask id="path-2-outside-2" maskUnits="userSpaceOnUse" x="4.49998" y="21.5001" width="3" height="3" fill="black">
<rect fill="white" x="4.49998" y="21.5001" width="3" height="3"/>
<path d="M5.99997 22.5001C5.72346 22.5001 5.49998 22.7241 5.49998 23.0001C5.49998 23.2761 5.72346 23.5001 5.99997 23.5001C6.27647 23.5001 6.49995 23.2761 6.49995 23.0001C6.49995 22.7241 6.27647 22.5001 5.99997 22.5001Z"/>
</mask>
<path d="M5.99997 22.5001C5.72346 22.5001 5.49998 22.7241 5.49998 23.0001C5.49998 23.2761 5.72346 23.5001 5.99997 23.5001C6.27647 23.5001 6.49995 23.2761 6.49995 23.0001C6.49995 22.7241 6.27647 22.5001 5.99997 22.5001Z" fill="#252525"/>
<path d="M5.99997 22.5001C5.72346 22.5001 5.49998 22.7241 5.49998 23.0001C5.49998 23.2761 5.72346 23.5001 5.99997 23.5001C6.27647 23.5001 6.49995 23.2761 6.49995 23.0001C6.49995 22.7241 6.27647 22.5001 5.99997 22.5001Z" stroke="#252525" stroke-width="0.4" mask="url(#path-2-outside-2)"/>
<mask id="path-3-outside-3" maskUnits="userSpaceOnUse" x="0" y="0" width="22" height="32" fill="black">
<rect fill="white" width="22" height="32"/>
<path d="M21 9.49998C21 8.67299 20.327 7.99999 19.5 7.99999H11.5V4.25731L14.7905 1.90695C15.015 1.74646 15.0675 1.43392 14.9065 1.20945C14.746 0.984447 14.434 0.932944 14.2095 1.09296L10.7095 3.59298C10.7057 3.59573 10.7023 3.5989 10.6985 3.60171C10.6906 3.60775 10.6827 3.61378 10.6752 3.62023C10.6697 3.62497 10.6645 3.62984 10.6592 3.63476C10.6526 3.64091 10.6461 3.64706 10.6398 3.65357C10.6345 3.65913 10.6295 3.66482 10.6244 3.67056C10.6187 3.677 10.6131 3.68357 10.6078 3.6903C10.6031 3.69622 10.5987 3.70226 10.5943 3.70835C10.5891 3.71556 10.5841 3.72288 10.5793 3.73044C10.5756 3.73624 10.5721 3.7421 10.5686 3.74802C10.5637 3.7564 10.559 3.76489 10.5545 3.77362C10.5519 3.7789 10.5494 3.78417 10.5469 3.7895C10.5425 3.79911 10.5382 3.80884 10.5344 3.8188C10.5325 3.8236 10.5308 3.82847 10.529 3.83333C10.5254 3.84376 10.522 3.85425 10.519 3.86497C10.5176 3.86989 10.5164 3.87482 10.5152 3.8798C10.5126 3.89034 10.5102 3.90089 10.5082 3.91167C10.5072 3.91747 10.5064 3.92327 10.5056 3.92907C10.5042 3.93898 10.5029 3.94888 10.5021 3.95896C10.5015 3.96616 10.5013 3.97343 10.501 3.98069C10.5007 3.98714 10.5 3.99347 10.5 4.00003V8.00005H2.5C1.67301 8.00005 1 8.67305 1 9.50004C1 10.1666 1.43734 10.7329 2.04004 10.9276L3.82727 28.7965C3.95324 30.0525 4.99926 31 6.26178 31H15.7383C17.0003 31 18.0467 30.0525 18.1728 28.7965L19.96 10.9276C20.5627 10.7327 21 10.1665 21 9.49998ZM2.5 8.99995H19.5C19.776 8.99995 20 9.22442 20 9.49993C20 9.77532 19.7761 9.99979 19.5002 9.99991C19.4989 9.99991 19.4976 9.99991 19.4962 9.99991H2.50246C2.50217 9.99991 2.50188 9.99991 2.50158 9.99991H2.5C2.22402 9.99991 2.00002 9.77543 2.00002 9.49993C2.00002 9.22448 2.22397 8.99995 2.5 8.99995ZM18.5924 14.5492C18.1008 14.2536 17.5636 14.0839 17.0215 14.061C16.14 14.022 15.3056 14.3665 14.6466 15.026C13.6875 15.985 12.3125 15.985 11.3535 15.026C10.6925 14.364 9.85651 14 9.00004 14C8.14352 14 7.30756 14.364 6.64657 15.026C6.15959 15.5125 5.56756 15.7945 4.97858 15.8194C4.44268 15.8427 3.92078 15.651 3.4791 15.2632L3.05283 10.9999H18.9473L18.5924 14.5492ZM17.1778 28.697C17.1033 29.44 16.4843 30 15.7383 30H6.26178C5.51576 30 4.89625 29.44 4.82231 28.697L3.6059 16.5316C4.01155 16.7214 4.44742 16.8216 4.89303 16.8216C4.93551 16.8216 4.97852 16.8206 5.02153 16.8186C5.861 16.7831 6.68952 16.397 7.3535 15.7331C8.3125 14.7741 9.68752 14.7741 10.6465 15.7331C11.3075 16.3946 12.1435 16.759 13 16.759C13.8565 16.759 14.6925 16.3945 15.3535 15.7331C15.82 15.2665 16.3925 15.0371 16.9785 15.0601C17.501 15.0823 18.0257 15.3067 18.4776 15.697L17.1778 28.697Z"/>
</mask>
<path d="M21 9.49998C21 8.67299 20.327 7.99999 19.5 7.99999H11.5V4.25731L14.7905 1.90695C15.015 1.74646 15.0675 1.43392 14.9065 1.20945C14.746 0.984447 14.434 0.932944 14.2095 1.09296L10.7095 3.59298C10.7057 3.59573 10.7023 3.5989 10.6985 3.60171C10.6906 3.60775 10.6827 3.61378 10.6752 3.62023C10.6697 3.62497 10.6645 3.62984 10.6592 3.63476C10.6526 3.64091 10.6461 3.64706 10.6398 3.65357C10.6345 3.65913 10.6295 3.66482 10.6244 3.67056C10.6187 3.677 10.6131 3.68357 10.6078 3.6903C10.6031 3.69622 10.5987 3.70226 10.5943 3.70835C10.5891 3.71556 10.5841 3.72288 10.5793 3.73044C10.5756 3.73624 10.5721 3.7421 10.5686 3.74802C10.5637 3.7564 10.559 3.76489 10.5545 3.77362C10.5519 3.7789 10.5494 3.78417 10.5469 3.7895C10.5425 3.79911 10.5382 3.80884 10.5344 3.8188C10.5325 3.8236 10.5308 3.82847 10.529 3.83333C10.5254 3.84376 10.522 3.85425 10.519 3.86497C10.5176 3.86989 10.5164 3.87482 10.5152 3.8798C10.5126 3.89034 10.5102 3.90089 10.5082 3.91167C10.5072 3.91747 10.5064 3.92327 10.5056 3.92907C10.5042 3.93898 10.5029 3.94888 10.5021 3.95896C10.5015 3.96616 10.5013 3.97343 10.501 3.98069C10.5007 3.98714 10.5 3.99347 10.5 4.00003V8.00005H2.5C1.67301 8.00005 1 8.67305 1 9.50004C1 10.1666 1.43734 10.7329 2.04004 10.9276L3.82727 28.7965C3.95324 30.0525 4.99926 31 6.26178 31H15.7383C17.0003 31 18.0467 30.0525 18.1728 28.7965L19.96 10.9276C20.5627 10.7327 21 10.1665 21 9.49998ZM2.5 8.99995H19.5C19.776 8.99995 20 9.22442 20 9.49993C20 9.77532 19.7761 9.99979 19.5002 9.99991C19.4989 9.99991 19.4976 9.99991 19.4962 9.99991H2.50246C2.50217 9.99991 2.50188 9.99991 2.50158 9.99991H2.5C2.22402 9.99991 2.00002 9.77543 2.00002 9.49993C2.00002 9.22448 2.22397 8.99995 2.5 8.99995ZM18.5924 14.5492C18.1008 14.2536 17.5636 14.0839 17.0215 14.061C16.14 14.022 15.3056 14.3665 14.6466 15.026C13.6875 15.985 12.3125 15.985 11.3535 15.026C10.6925 14.364 9.85651 14 9.00004 14C8.14352 14 7.30756 14.364 6.64657 15.026C6.15959 15.5125 5.56756 15.7945 4.97858 15.8194C4.44268 15.8427 3.92078 15.651 3.4791 15.2632L3.05283 10.9999H18.9473L18.5924 14.5492ZM17.1778 28.697C17.1033 29.44 16.4843 30 15.7383 30H6.26178C5.51576 30 4.89625 29.44 4.82231 28.697L3.6059 16.5316C4.01155 16.7214 4.44742 16.8216 4.89303 16.8216C4.93551 16.8216 4.97852 16.8206 5.02153 16.8186C5.861 16.7831 6.68952 16.397 7.3535 15.7331C8.3125 14.7741 9.68752 14.7741 10.6465 15.7331C11.3075 16.3946 12.1435 16.759 13 16.759C13.8565 16.759 14.6925 16.3945 15.3535 15.7331C15.82 15.2665 16.3925 15.0371 16.9785 15.0601C17.501 15.0823 18.0257 15.3067 18.4776 15.697L17.1778 28.697Z" fill="#252525"/>
<path d="M21 9.49998C21 8.67299 20.327 7.99999 19.5 7.99999H11.5V4.25731L14.7905 1.90695C15.015 1.74646 15.0675 1.43392 14.9065 1.20945C14.746 0.984447 14.434 0.932944 14.2095 1.09296L10.7095 3.59298C10.7057 3.59573 10.7023 3.5989 10.6985 3.60171C10.6906 3.60775 10.6827 3.61378 10.6752 3.62023C10.6697 3.62497 10.6645 3.62984 10.6592 3.63476C10.6526 3.64091 10.6461 3.64706 10.6398 3.65357C10.6345 3.65913 10.6295 3.66482 10.6244 3.67056C10.6187 3.677 10.6131 3.68357 10.6078 3.6903C10.6031 3.69622 10.5987 3.70226 10.5943 3.70835C10.5891 3.71556 10.5841 3.72288 10.5793 3.73044C10.5756 3.73624 10.5721 3.7421 10.5686 3.74802C10.5637 3.7564 10.559 3.76489 10.5545 3.77362C10.5519 3.7789 10.5494 3.78417 10.5469 3.7895C10.5425 3.79911 10.5382 3.80884 10.5344 3.8188C10.5325 3.8236 10.5308 3.82847 10.529 3.83333C10.5254 3.84376 10.522 3.85425 10.519 3.86497C10.5176 3.86989 10.5164 3.87482 10.5152 3.8798C10.5126 3.89034 10.5102 3.90089 10.5082 3.91167C10.5072 3.91747 10.5064 3.92327 10.5056 3.92907C10.5042 3.93898 10.5029 3.94888 10.5021 3.95896C10.5015 3.96616 10.5013 3.97343 10.501 3.98069C10.5007 3.98714 10.5 3.99347 10.5 4.00003V8.00005H2.5C1.67301 8.00005 1 8.67305 1 9.50004C1 10.1666 1.43734 10.7329 2.04004 10.9276L3.82727 28.7965C3.95324 30.0525 4.99926 31 6.26178 31H15.7383C17.0003 31 18.0467 30.0525 18.1728 28.7965L19.96 10.9276C20.5627 10.7327 21 10.1665 21 9.49998ZM2.5 8.99995H19.5C19.776 8.99995 20 9.22442 20 9.49993C20 9.77532 19.7761 9.99979 19.5002 9.99991C19.4989 9.99991 19.4976 9.99991 19.4962 9.99991H2.50246C2.50217 9.99991 2.50188 9.99991 2.50158 9.99991H2.5C2.22402 9.99991 2.00002 9.77543 2.00002 9.49993C2.00002 9.22448 2.22397 8.99995 2.5 8.99995ZM18.5924 14.5492C18.1008 14.2536 17.5636 14.0839 17.0215 14.061C16.14 14.022 15.3056 14.3665 14.6466 15.026C13.6875 15.985 12.3125 15.985 11.3535 15.026C10.6925 14.364 9.85651 14 9.00004 14C8.14352 14 7.30756 14.364 6.64657 15.026C6.15959 15.5125 5.56756 15.7945 4.97858 15.8194C4.44268 15.8427 3.92078 15.651 3.4791 15.2632L3.05283 10.9999H18.9473L18.5924 14.5492ZM17.1778 28.697C17.1033 29.44 16.4843 30 15.7383 30H6.26178C5.51576 30 4.89625 29.44 4.82231 28.697L3.6059 16.5316C4.01155 16.7214 4.44742 16.8216 4.89303 16.8216C4.93551 16.8216 4.97852 16.8206 5.02153 16.8186C5.861 16.7831 6.68952 16.397 7.3535 15.7331C8.3125 14.7741 9.68752 14.7741 10.6465 15.7331C11.3075 16.3946 12.1435 16.759 13 16.759C13.8565 16.759 14.6925 16.3945 15.3535 15.7331C15.82 15.2665 16.3925 15.0371 16.9785 15.0601C17.501 15.0823 18.0257 15.3067 18.4776 15.697L17.1778 28.697Z" stroke="#252525" stroke-width="0.4" mask="url(#path-3-outside-3)"/>
<mask id="path-4-outside-4" maskUnits="userSpaceOnUse" x="6.49934" y="22.382" width="7" height="7" fill="black">
<rect fill="white" x="6.49934" y="22.382" width="7" height="7"/>
<path d="M11.1907 23.8575C10.9182 23.5656 10.5467 23.397 10.1463 23.3835C9.74776 23.365 9.36274 23.5125 9.07077 23.7855L7.97478 24.8095C7.37027 25.374 7.3378 26.325 7.90276 26.9295L8.92675 28.0255C9.19927 28.3175 9.57075 28.4855 9.97176 28.499C9.98928 28.5 10.0067 28.5 10.0243 28.5C10.4068 28.5 10.7678 28.3585 11.0468 28.0975L12.1433 27.073C12.7478 26.5085 12.7798 25.5575 12.2148 24.9535L11.1907 23.8575ZM11.4602 26.3426L10.3642 27.3671C10.1632 27.5551 9.8462 27.5445 9.65723 27.3426L8.63325 26.2466C8.44522 26.0456 8.45624 25.7281 8.65727 25.5401L9.75327 24.5161C9.84977 24.4261 9.97229 24.3816 10.0948 24.3816C10.2288 24.3816 10.3618 24.4346 10.4603 24.5401L11.4842 25.6361C11.6723 25.8375 11.6617 26.1545 11.4602 26.3426Z"/>
</mask>
<path d="M11.1907 23.8575C10.9182 23.5656 10.5467 23.397 10.1463 23.3835C9.74776 23.365 9.36274 23.5125 9.07077 23.7855L7.97478 24.8095C7.37027 25.374 7.3378 26.325 7.90276 26.9295L8.92675 28.0255C9.19927 28.3175 9.57075 28.4855 9.97176 28.499C9.98928 28.5 10.0067 28.5 10.0243 28.5C10.4068 28.5 10.7678 28.3585 11.0468 28.0975L12.1433 27.073C12.7478 26.5085 12.7798 25.5575 12.2148 24.9535L11.1907 23.8575ZM11.4602 26.3426L10.3642 27.3671C10.1632 27.5551 9.8462 27.5445 9.65723 27.3426L8.63325 26.2466C8.44522 26.0456 8.45624 25.7281 8.65727 25.5401L9.75327 24.5161C9.84977 24.4261 9.97229 24.3816 10.0948 24.3816C10.2288 24.3816 10.3618 24.4346 10.4603 24.5401L11.4842 25.6361C11.6723 25.8375 11.6617 26.1545 11.4602 26.3426Z" fill="#252525"/>
<path d="M11.1907 23.8575C10.9182 23.5656 10.5467 23.397 10.1463 23.3835C9.74776 23.365 9.36274 23.5125 9.07077 23.7855L7.97478 24.8095C7.37027 25.374 7.3378 26.325 7.90276 26.9295L8.92675 28.0255C9.19927 28.3175 9.57075 28.4855 9.97176 28.499C9.98928 28.5 10.0067 28.5 10.0243 28.5C10.4068 28.5 10.7678 28.3585 11.0468 28.0975L12.1433 27.073C12.7478 26.5085 12.7798 25.5575 12.2148 24.9535L11.1907 23.8575ZM11.4602 26.3426L10.3642 27.3671C10.1632 27.5551 9.8462 27.5445 9.65723 27.3426L8.63325 26.2466C8.44522 26.0456 8.45624 25.7281 8.65727 25.5401L9.75327 24.5161C9.84977 24.4261 9.97229 24.3816 10.0948 24.3816C10.2288 24.3816 10.3618 24.4346 10.4603 24.5401L11.4842 25.6361C11.6723 25.8375 11.6617 26.1545 11.4602 26.3426Z" stroke="#252525" stroke-width="0.4" mask="url(#path-4-outside-4)"/>
<mask id="path-5-outside-5" maskUnits="userSpaceOnUse" x="9.49936" y="18.4995" width="7" height="7" fill="black">
<rect fill="white" x="9.49936" y="18.4995" width="7" height="7"/>
<path d="M14.1908 19.9751C13.9183 19.6831 13.5468 19.5146 13.1463 19.5011C12.7473 19.4826 12.3628 19.6301 12.0708 19.9031L10.9748 20.9271C10.3703 21.4916 10.3378 22.4426 10.9028 23.047L11.9268 24.143C12.1993 24.435 12.5708 24.6031 12.9718 24.6165C12.9893 24.6175 13.0068 24.6175 13.0243 24.6175C13.4068 24.6175 13.7678 24.476 14.0468 24.2151L15.1433 23.1905C15.7479 22.6261 15.7798 21.675 15.2148 21.071L14.1908 19.9751ZM14.4603 22.4601L13.3643 23.4846C13.1633 23.6727 12.8463 23.6616 12.6573 23.4601L11.6333 22.3641C11.4453 22.1632 11.4563 21.8456 11.6574 21.6576L12.7534 20.6336C12.8499 20.5436 12.9724 20.4992 13.0948 20.4992C13.2288 20.4992 13.3619 20.5522 13.4603 20.6577L14.4843 21.7536C14.6723 21.9551 14.6618 22.2721 14.4603 22.4601Z"/>
</mask>
<path d="M14.1908 19.9751C13.9183 19.6831 13.5468 19.5146 13.1463 19.5011C12.7473 19.4826 12.3628 19.6301 12.0708 19.9031L10.9748 20.9271C10.3703 21.4916 10.3378 22.4426 10.9028 23.047L11.9268 24.143C12.1993 24.435 12.5708 24.6031 12.9718 24.6165C12.9893 24.6175 13.0068 24.6175 13.0243 24.6175C13.4068 24.6175 13.7678 24.476 14.0468 24.2151L15.1433 23.1905C15.7479 22.6261 15.7798 21.675 15.2148 21.071L14.1908 19.9751ZM14.4603 22.4601L13.3643 23.4846C13.1633 23.6727 12.8463 23.6616 12.6573 23.4601L11.6333 22.3641C11.4453 22.1632 11.4563 21.8456 11.6574 21.6576L12.7534 20.6336C12.8499 20.5436 12.9724 20.4992 13.0948 20.4992C13.2288 20.4992 13.3619 20.5522 13.4603 20.6577L14.4843 21.7536C14.6723 21.9551 14.6618 22.2721 14.4603 22.4601Z" fill="#252525"/>
<path d="M14.1908 19.9751C13.9183 19.6831 13.5468 19.5146 13.1463 19.5011C12.7473 19.4826 12.3628 19.6301 12.0708 19.9031L10.9748 20.9271C10.3703 21.4916 10.3378 22.4426 10.9028 23.047L11.9268 24.143C12.1993 24.435 12.5708 24.6031 12.9718 24.6165C12.9893 24.6175 13.0068 24.6175 13.0243 24.6175C13.4068 24.6175 13.7678 24.476 14.0468 24.2151L15.1433 23.1905C15.7479 22.6261 15.7798 21.675 15.2148 21.071L14.1908 19.9751ZM14.4603 22.4601L13.3643 23.4846C13.1633 23.6727 12.8463 23.6616 12.6573 23.4601L11.6333 22.3641C11.4453 22.1632 11.4563 21.8456 11.6574 21.6576L12.7534 20.6336C12.8499 20.5436 12.9724 20.4992 13.0948 20.4992C13.2288 20.4992 13.3619 20.5522 13.4603 20.6577L14.4843 21.7536C14.6723 21.9551 14.6618 22.2721 14.4603 22.4601Z" stroke="#252525" stroke-width="0.4" mask="url(#path-5-outside-5)"/>
<mask id="path-6-outside-6" maskUnits="userSpaceOnUse" x="5.4993" y="15.9996" width="7" height="7" fill="black">
<rect fill="white" x="5.4993" y="15.9996" width="7" height="7"/>
<path d="M8.97169 22.1166C8.98921 22.1176 9.00667 22.1176 9.02419 22.1176C9.4067 22.1176 9.76769 21.9761 10.0467 21.7151L11.1432 20.6906C11.7478 20.1261 11.7797 19.1751 11.2147 18.5711L10.1907 17.4751C9.91822 17.1831 9.54674 17.0146 9.14625 17.001C8.74822 16.9835 8.36273 17.1295 8.07075 17.4031L6.97475 18.427C6.37024 18.9915 6.33772 19.9426 6.90274 20.547L7.92673 21.643C8.19919 21.9351 8.57068 22.1031 8.97169 22.1166ZM7.6572 19.1576L8.7532 18.1336C8.8497 18.0436 8.97222 17.9991 9.09468 17.9991C9.22869 17.9991 9.3617 18.0522 9.46019 18.1576L10.4842 19.2536C10.6721 19.4551 10.6617 19.7721 10.4602 19.9602L9.36416 20.9847C9.16265 21.1722 8.84613 21.1622 8.65716 20.9602L7.63317 19.8642C7.44521 19.6631 7.45622 19.3456 7.6572 19.1576Z"/>
</mask>
<path d="M8.97169 22.1166C8.98921 22.1176 9.00667 22.1176 9.02419 22.1176C9.4067 22.1176 9.76769 21.9761 10.0467 21.7151L11.1432 20.6906C11.7478 20.1261 11.7797 19.1751 11.2147 18.5711L10.1907 17.4751C9.91822 17.1831 9.54674 17.0146 9.14625 17.001C8.74822 16.9835 8.36273 17.1295 8.07075 17.4031L6.97475 18.427C6.37024 18.9915 6.33772 19.9426 6.90274 20.547L7.92673 21.643C8.19919 21.9351 8.57068 22.1031 8.97169 22.1166ZM7.6572 19.1576L8.7532 18.1336C8.8497 18.0436 8.97222 17.9991 9.09468 17.9991C9.22869 17.9991 9.3617 18.0522 9.46019 18.1576L10.4842 19.2536C10.6721 19.4551 10.6617 19.7721 10.4602 19.9602L9.36416 20.9847C9.16265 21.1722 8.84613 21.1622 8.65716 20.9602L7.63317 19.8642C7.44521 19.6631 7.45622 19.3456 7.6572 19.1576Z" fill="#252525"/>
<path d="M8.97169 22.1166C8.98921 22.1176 9.00667 22.1176 9.02419 22.1176C9.4067 22.1176 9.76769 21.9761 10.0467 21.7151L11.1432 20.6906C11.7478 20.1261 11.7797 19.1751 11.2147 18.5711L10.1907 17.4751C9.91822 17.1831 9.54674 17.0146 9.14625 17.001C8.74822 16.9835 8.36273 17.1295 8.07075 17.4031L6.97475 18.427C6.37024 18.9915 6.33772 19.9426 6.90274 20.547L7.92673 21.643C8.19919 21.9351 8.57068 22.1031 8.97169 22.1166ZM7.6572 19.1576L8.7532 18.1336C8.8497 18.0436 8.97222 17.9991 9.09468 17.9991C9.22869 17.9991 9.3617 18.0522 9.46019 18.1576L10.4842 19.2536C10.6721 19.4551 10.6617 19.7721 10.4602 19.9602L9.36416 20.9847C9.16265 21.1722 8.84613 21.1622 8.65716 20.9602L7.63317 19.8642C7.44521 19.6631 7.45622 19.3456 7.6572 19.1576Z" stroke="#252525" stroke-width="0.4" mask="url(#path-6-outside-6)"/>
</svg>
