<svg width="19" height="31" viewBox="0 0 19 31" fill="none" xmlns="http://www.w3.org/2000/svg">
<path d="M13.439 7.07449V7.07449C13.8027 7.07449 14.0976 6.77965 14.0976 6.41595V2.21282C14.0976 1.92119 13.9923 1.63935 13.8012 1.41906V1.41906C13.5712 1.15385 13.2374 1.00151 12.8863 1.00151H10H7.11375C6.76265 1.00151 6.42882 1.15385 6.19875 1.41906V1.41906C6.00765 1.63935 5.90244 1.92119 5.90244 2.21282V6.41595C5.90244 6.77965 6.19728 7.07449 6.56098 7.07449V7.07449M13.439 7.07449V8.21318V8.21318C13.439 8.97489 14.0639 9.55379 14.7807 9.81157C15.4352 10.047 15.776 10.4155 15.9206 10.7111C15.9934 10.8599 16 11.0293 16 11.1949V15.5008M13.439 7.07449H6.56098M16 15.5008H10H4M16 15.5008V23.092M16 23.092V27.7206C16 28.1716 15.9151 28.6462 15.5545 28.9171C14.3572 29.8167 11.4838 30.0217 10 30C8.5162 30.0217 5.64284 29.8167 4.4455 28.9171C4.08493 28.6462 4 28.1716 4 27.7206V23.092M16 23.092H10H4M6.56098 7.07449V8.21318V8.21318C6.56098 8.97489 5.93608 9.55379 5.21932 9.81157C4.56482 10.047 4.22396 10.4155 4.07936 10.7111C4.00656 10.8599 4 11.0293 4 11.1949V15.5008M4 15.5008V23.092" stroke="#252525" stroke-width="1.6" stroke-linecap="round"/>
</svg>
