<svg id="sets" width="34" height="34" viewBox="0 0 34 34" fill="none" xmlns="http://www.w3.org/2000/svg">
<path d="M16.7299 24.0936L16.8415 24.2054C17.1659 24.5299 17.1657 25.056 16.8411 25.3803C16.6789 25.5424 16.4663 25.6235 16.2539 25.6235C16.0411 25.6235 15.8284 25.5423 15.6662 25.3799L15.5546 25.2682C15.2302 24.9436 15.2304 24.4175 15.555 24.0932C15.8795 23.7687 16.4057 23.7691 16.7299 24.0936ZM11.6763 13.7563V9.26363C11.6763 7.56688 13.0566 6.18652 14.7535 6.18652H19.2462C20.9431 6.18652 22.3235 7.56688 22.3235 9.26363V13.7563C22.3235 15.4532 20.9431 16.8337 19.2462 16.8337H14.7535C13.0566 16.8337 11.6763 15.4532 11.6763 13.7563ZM13.3379 13.7563C13.3379 14.537 13.973 15.172 14.7535 15.172H19.2462C20.0268 15.172 20.6618 14.5369 20.6618 13.7563V9.26363C20.6618 8.48313 20.0267 7.8482 19.2462 7.8482H14.7535C13.9729 7.8482 13.3379 8.48322 13.3379 9.26363V13.7563ZM18.174 23.8782C18.3362 24.0406 18.549 24.1219 18.7617 24.1219C18.9742 24.1219 19.1868 24.0408 19.3489 23.8787C19.6735 23.5544 19.6737 23.0283 19.3493 22.7037L19.2377 22.5919C18.9135 22.2674 18.3873 22.2671 18.0627 22.5915C17.7381 22.9158 17.7379 23.4419 18.0623 23.7665L18.174 23.8782ZM27.2313 12.2241C26.9067 12.5484 26.9065 13.0745 27.2309 13.3991L27.3426 13.5108C27.5047 13.6732 27.7175 13.7544 27.9302 13.7544C28.1427 13.7544 28.3553 13.6733 28.5175 13.5112C28.8421 13.187 28.8422 12.6609 28.5179 12.3363L28.4062 12.2245C28.0821 11.9 27.5559 11.8997 27.2313 12.2241ZM29.8506 12.0094C30.0129 12.1716 30.2255 12.2528 30.4381 12.2528C30.6507 12.2528 30.8633 12.1716 31.0256 12.0094C31.3501 11.685 31.3501 11.1589 31.0256 10.8343L30.9139 10.7226C30.5893 10.3982 30.0634 10.3982 29.7388 10.7226C29.4144 11.047 29.4144 11.5731 29.7388 11.8977L29.8506 12.0094ZM23.3527 11.5101C23.3527 8.57461 25.7408 6.18652 28.6762 6.18652C31.6117 6.18652 33.9999 8.57461 33.9999 11.5101C33.9999 14.4455 31.6117 16.8337 28.6762 16.8337C25.7408 16.8337 23.3527 14.4455 23.3527 11.5101ZM25.0144 11.5101C25.0144 13.5293 26.657 15.172 28.6762 15.172C30.6954 15.172 32.3382 13.5293 32.3382 11.5101C32.3382 9.49086 30.6954 7.8482 28.6762 7.8482C26.657 7.8482 25.0144 9.49086 25.0144 11.5101ZM27.5661 10.9728C27.7787 10.9728 27.9912 10.8918 28.1534 10.7297L28.2652 10.6179C28.5898 10.2936 28.59 9.76754 28.2656 9.44292C27.9414 9.11831 27.4153 9.11806 27.0907 9.44251L26.9788 9.55426C26.6542 9.87854 26.654 10.4046 26.9784 10.7292C27.1407 10.8917 27.3534 10.9728 27.5661 10.9728ZM14.6265 11.5101C14.6265 10.2014 15.6911 9.13676 16.9999 9.13676C18.3086 9.13676 19.3732 10.2014 19.3732 11.5101C19.3732 12.8188 18.3086 13.8835 16.9999 13.8835C15.6912 13.8835 14.6265 12.8188 14.6265 11.5101ZM16.2882 11.5101C16.2882 11.9026 16.6075 12.2218 16.9999 12.2218C17.3923 12.2218 17.7115 11.9025 17.7115 11.5101C17.7115 11.1177 17.3922 10.7984 16.9999 10.7984C16.6075 10.7984 16.2882 11.1177 16.2882 11.5101ZM6.8739 16.8326C6.88861 16.8334 6.90323 16.8338 6.91777 16.8338C7.35679 16.8338 7.72369 16.4896 7.74679 16.0461L8.53642 0.87427C8.56027 0.415976 8.20815 0.0252307 7.74986 0.00138547C7.29339 -0.0232906 6.90074 0.329569 6.87698 0.787945L6.08734 15.9597C6.0635 16.4179 6.41561 16.8088 6.8739 16.8326ZM29.1268 32.3383H25.0845C24.6257 32.3383 24.2537 32.7104 24.2537 33.1692C24.2537 33.6279 24.6257 34 25.0845 34H29.1268C29.5856 34 29.9576 33.6279 29.9576 33.1692C29.9576 32.7104 29.5856 32.3383 29.1268 32.3383ZM33.169 29.978H0.830844C0.372052 29.978 0 30.35 0 30.8088C0 31.2676 0.372052 31.6397 0.830844 31.6397H33.169C33.6278 31.6397 33.9999 31.2676 33.9999 30.8088C33.9999 30.35 33.6279 29.978 33.169 29.978ZM33.9999 21.1328V25.6256C33.9999 27.3224 32.6193 28.7029 30.9224 28.7029H26.4299C24.7331 28.7029 23.3527 27.3224 23.3527 25.6256V21.1328C23.3527 19.4361 24.7331 18.0557 26.4299 18.0557H30.9224C32.6193 18.0556 33.9999 19.4361 33.9999 21.1328ZM32.3382 21.1328C32.3382 20.3523 31.703 19.7174 30.9224 19.7174H26.4299C25.6493 19.7174 25.0144 20.3524 25.0144 21.1328V25.6256C25.0144 26.4062 25.6494 27.0412 26.4299 27.0412H30.9224C31.7031 27.0412 32.3382 26.4061 32.3382 25.6256V21.1328ZM15.8899 22.842C16.1026 22.842 16.3151 22.7608 16.4774 22.5987L16.589 22.487C16.9135 22.1626 16.9135 21.6365 16.589 21.3119C16.2645 20.9876 15.7386 20.9876 15.414 21.3119L15.3023 21.4236C14.9779 21.748 14.9779 22.2741 15.3023 22.5987C15.4646 22.7608 15.6772 22.842 15.8899 22.842ZM31.0495 23.3793C31.0495 24.688 29.9849 25.7526 28.6762 25.7526C27.3676 25.7526 26.3029 24.688 26.3029 23.3793C26.3029 22.0706 27.3676 21.0059 28.6762 21.0059C29.9849 21.0059 31.0495 22.0706 31.0495 23.3793ZM29.3879 23.3793C29.3879 22.9868 29.0686 22.6676 28.6762 22.6676C28.2839 22.6676 27.9646 22.9869 27.9646 23.3793C27.9646 23.7717 28.2839 24.0909 28.6762 24.0909C29.0686 24.0909 29.3879 23.7717 29.3879 23.3793ZM8.91537 32.3383H4.87315C4.41436 32.3383 4.0423 32.7104 4.0423 33.1692C4.0423 33.6279 4.41436 34 4.87315 34H8.91537C9.37416 34 9.74621 33.6279 9.74621 33.1692C9.74621 32.7104 9.37424 32.3383 8.91537 32.3383ZM2.90023 16.0461C2.92324 16.4896 3.29014 16.8337 3.72924 16.8337C3.74378 16.8337 3.75849 16.8334 3.77311 16.8325C4.2314 16.8087 4.58352 16.4179 4.55967 15.9596L3.77012 0.787779C3.74636 0.329402 3.35428 -0.0234567 2.89723 0.0012193C2.43894 0.0250645 2.08683 0.41581 2.11068 0.874103L2.90023 16.0461ZM11.6763 23.3793C11.6763 20.4439 14.0644 18.0557 17 18.0557C19.9354 18.0557 22.3235 20.4439 22.3235 23.3793C22.3235 26.3148 19.9354 28.7029 17 28.7029C14.0644 28.7029 11.6763 26.3148 11.6763 23.3793ZM13.3379 23.3793C13.3379 25.3985 14.9807 27.0412 17 27.0412C19.0192 27.0412 20.6618 25.3985 20.6618 23.3793C20.6618 21.3601 19.0192 19.7174 17 19.7174C14.9807 19.7173 13.3379 21.3601 13.3379 23.3793ZM0 25.6256V21.1328C0 19.4361 1.38036 18.0557 3.07711 18.0557H7.56982C9.26673 18.0557 10.6472 19.4361 10.6472 21.1328V25.6256C10.6472 27.3224 9.26673 28.7029 7.56982 28.7029H3.0772C1.38045 28.7029 0 27.3224 0 25.6256ZM1.66169 25.6256C1.66169 26.4062 2.2967 27.0412 3.07711 27.0412H7.56982C8.35048 27.0412 8.98549 26.4061 8.98549 25.6256V21.1328C8.98549 20.3523 8.35039 19.7174 7.56982 19.7174H3.0772C2.2967 19.7174 1.66177 20.3524 1.66177 21.1328L1.66169 25.6256ZM2.95008 23.3793C2.95008 22.0706 4.01472 21.0059 5.32346 21.0059C6.63221 21.0059 7.69685 22.0706 7.69685 23.3793C7.69685 24.688 6.63221 25.7526 5.32346 25.7526C4.01472 25.7526 2.95008 24.688 2.95008 23.3793ZM4.61176 23.3793C4.61176 23.7717 4.93106 24.0909 5.32346 24.0909C5.71587 24.0909 6.03516 23.7717 6.03516 23.3793C6.03516 22.9868 5.71587 22.6676 5.32346 22.6676C4.93106 22.6676 4.61176 22.9868 4.61176 23.3793Z" fill="#252525"/>
</svg>
