<svg id="rolls" width="31" height="30" viewBox="0 0 31 30" fill="none" xmlns="http://www.w3.org/2000/svg">
<path d="M21.523 12.3903C18.5411 12.3903 15.9986 13.3824 14.6748 14.8787C13.351 13.3824 10.8085 12.3903 7.82658 12.3903C3.43783 12.3903 6.10352e-05 14.539 6.10352e-05 17.2819V25.1084C6.10352e-05 27.8514 3.43789 30 7.82658 30C10.8085 30 13.351 29.0079 14.6748 27.5116C15.9986 29.0079 18.5411 30 21.523 30C25.9118 30 29.3495 27.8513 29.3495 25.1084V17.2818C29.3495 14.5389 25.9117 12.3903 21.523 12.3903ZM13.6965 25.1084C13.6965 26.4966 11.2857 28.0434 7.82652 28.0434C4.36731 28.0434 1.95665 26.4965 1.95665 25.1084V20.5496C3.38005 21.5513 5.46549 22.1734 7.82658 22.1734C10.1877 22.1734 12.2731 21.5513 13.6965 20.5496V25.1084H13.6965ZM7.82658 20.2168C4.36737 20.2168 1.95665 18.67 1.95665 17.2818C1.95665 15.8937 4.36737 14.3469 7.82658 14.3469C11.2858 14.3469 13.6965 15.8937 13.6965 17.2818C13.6965 18.67 11.2858 20.2168 7.82658 20.2168ZM27.3929 25.1084C27.3929 26.4966 24.9822 28.0434 21.523 28.0434C18.0638 28.0434 15.653 26.4965 15.653 25.1084V20.5496C17.0764 21.5513 19.1619 22.1734 21.523 22.1734C23.8841 22.1734 25.9695 21.5513 27.3929 20.5496V25.1084ZM21.523 20.2168C18.0638 20.2168 15.6531 18.67 15.6531 17.2818C15.6531 15.8937 18.0638 14.3469 21.523 14.3469C24.9822 14.3469 27.393 15.8937 27.393 17.2818C27.393 18.67 24.9822 20.2168 21.523 20.2168Z" fill="#252525"/>
<path d="M8.80499 16.3036H6.84835C6.30808 16.3036 5.87006 16.7416 5.87006 17.2819C5.87006 17.8222 6.30808 18.2602 6.84835 18.2602H8.80499C9.34526 18.2602 9.78328 17.8222 9.78328 17.2819C9.78328 16.7416 9.34526 16.3036 8.80499 16.3036Z" fill="#252525"/>
<path d="M22.5014 16.3036H20.5447C20.0045 16.3036 19.5664 16.7416 19.5664 17.2819C19.5664 17.8222 20.0045 18.2602 20.5447 18.2602H22.5014C23.0416 18.2602 23.4797 17.8222 23.4797 17.2819C23.4797 16.7416 23.0417 16.3036 22.5014 16.3036Z" fill="#252525"/>
<path d="M29.9854 0.799438C29.8866 0.268248 29.3759 -0.0816991 28.8446 0.016511L0.799556 5.23419C0.268307 5.3331 -0.0821669 5.84378 0.0166878 6.37491C0.104233 6.84569 0.515298 7.17454 0.977401 7.17454C1.03676 7.17454 1.09694 7.16903 1.15747 7.15784L29.2026 1.94016C29.7338 1.84125 30.0843 1.33057 29.9854 0.799438Z" fill="#252525"/>
<path d="M29.9952 6.73346C29.9329 6.19682 29.447 5.81218 28.9105 5.8747L0.865393 9.13574C0.328695 9.19814 -0.0557664 9.6838 0.00664045 10.2205C0.0645352 10.7189 0.487378 11.0859 0.977198 11.0859C1.01488 11.0859 1.05302 11.0838 1.09141 11.0793L29.1365 7.81822C29.6732 7.75576 30.0577 7.27015 29.9952 6.73346Z" fill="#252525"/>
</svg>
