<svg width="12" height="20" viewBox="0 0 12 20" fill="none" xmlns="http://www.w3.org/2000/svg">
<path d="M5.6313 18.16C5.98441 18.16 6.27065 17.8555 6.27065 17.4799C6.27065 17.1043 5.98441 16.7998 5.6313 16.7998C5.2782 16.7998 4.99196 17.1043 4.99196 17.4799C4.99196 17.8555 5.2782 18.16 5.6313 18.16Z" fill="#252525"/>
<path d="M9.31935 0H1.94319C0.871652 0 0 0.927289 0 2.06702V17.933C0 19.0727 0.871736 20 1.94319 20H9.31944C10.3909 20 11.2626 19.0727 11.2626 17.933V2.06702C11.2625 0.927289 10.3909 0 9.31935 0ZM1.25345 4.04471H10.0091V15.1466H1.25345V4.04471ZM1.94319 1.33333H9.31944C9.69974 1.33333 10.0092 1.66249 10.0092 2.06702V2.71138H1.25345V2.06702C1.25345 1.66249 1.56281 1.33333 1.94319 1.33333ZM9.31935 18.6667H1.94319C1.56289 18.6667 1.25345 18.3375 1.25345 17.933V16.4798H10.0091V17.933C10.0091 18.3375 9.69974 18.6667 9.31935 18.6667Z" fill="#252525"/>
</svg>
