<svg width="43" height="25" viewBox="0 0 43 25" fill="none" xmlns="http://www.w3.org/2000/svg">
<mask id="path-1-outside-1" maskUnits="userSpaceOnUse" x="4.24609" y="2.26828" width="34" height="21" fill="black">
<rect fill="white" x="4.24609" y="2.26828" width="34" height="21"/>
<path d="M5.24609 17.6738C5.24609 18.0056 5.51492 18.2744 5.84668 18.2744C6.78511 18.2744 7.5485 19.0378 7.5485 19.9761C7.5485 20.3079 7.81732 20.5767 8.14908 20.5767H15.7419C17.3815 21.8014 19.3967 22.498 21.4996 22.498C23.6585 22.498 25.6534 21.7827 27.26 20.5767H34.8503C35.182 20.5767 35.4509 20.3079 35.4509 19.9761C35.4509 19.0378 36.2142 18.2744 37.1526 18.2744C37.4844 18.2744 37.7532 18.0056 37.7532 17.6738V13.5057C37.7532 13.1739 37.4844 12.9051 37.1526 12.9051C36.8208 12.9051 36.552 13.1739 36.552 13.5057V17.1357C35.4324 17.3722 34.5486 18.2559 34.3122 19.3756H28.585C30.1549 17.6637 31.1145 15.3835 31.1145 12.8832C31.1145 10.3828 30.1548 8.10267 28.585 6.39076H34.3122C34.5487 7.51041 35.4324 8.39423 36.5521 8.63062V11.1043C36.5521 11.436 36.8209 11.7049 37.1527 11.7049C37.4844 11.7049 37.7533 11.436 37.7533 11.1043V8.0925C37.7533 7.76081 37.4844 7.49191 37.1527 7.49191C36.2143 7.49191 35.4509 6.72853 35.4509 5.79018C35.4509 5.45849 35.1821 5.18959 34.8504 5.18959H27.2601C25.6535 3.98362 23.6587 3.26828 21.4998 3.26828C19.3409 3.26828 17.346 3.98362 15.7394 5.18959H8.14908C7.81732 5.18959 7.5485 5.45849 7.5485 5.79018C7.5485 6.72853 6.78511 7.49191 5.84668 7.49191C5.51492 7.49191 5.24609 7.76081 5.24609 8.0925V17.6738ZM6.44726 8.6307C7.56691 8.39423 8.45073 7.51049 8.6872 6.39084H14.4144C12.8445 8.10275 11.8849 10.3829 11.8849 12.8832C11.8849 13.7006 11.9879 14.5131 12.191 15.2982C12.2741 15.6193 12.6018 15.8123 12.9229 15.7291C13.244 15.6461 13.437 15.3183 13.3539 14.9972C13.1761 14.3104 13.086 13.5991 13.086 12.8832C13.086 8.24393 16.8604 4.46961 21.4997 4.46961C26.1389 4.46961 29.9133 8.24393 29.9133 12.8832C29.9133 17.5226 26.139 21.297 21.4997 21.297C18.5052 21.297 15.7124 19.6846 14.2112 17.0892C14.0451 16.802 13.6775 16.704 13.3907 16.87C13.1035 17.0361 13.0053 17.4035 13.1715 17.6906C13.5254 18.3025 13.943 18.8657 14.4117 19.3756H8.6872C8.45073 18.2561 7.56699 17.3723 6.44726 17.1358V8.6307Z"/>
</mask>
<path d="M5.24609 17.6738C5.24609 18.0056 5.51492 18.2744 5.84668 18.2744C6.78511 18.2744 7.5485 19.0378 7.5485 19.9761C7.5485 20.3079 7.81732 20.5767 8.14908 20.5767H15.7419C17.3815 21.8014 19.3967 22.498 21.4996 22.498C23.6585 22.498 25.6534 21.7827 27.26 20.5767H34.8503C35.182 20.5767 35.4509 20.3079 35.4509 19.9761C35.4509 19.0378 36.2142 18.2744 37.1526 18.2744C37.4844 18.2744 37.7532 18.0056 37.7532 17.6738V13.5057C37.7532 13.1739 37.4844 12.9051 37.1526 12.9051C36.8208 12.9051 36.552 13.1739 36.552 13.5057V17.1357C35.4324 17.3722 34.5486 18.2559 34.3122 19.3756H28.585C30.1549 17.6637 31.1145 15.3835 31.1145 12.8832C31.1145 10.3828 30.1548 8.10267 28.585 6.39076H34.3122C34.5487 7.51041 35.4324 8.39423 36.5521 8.63062V11.1043C36.5521 11.436 36.8209 11.7049 37.1527 11.7049C37.4844 11.7049 37.7533 11.436 37.7533 11.1043V8.0925C37.7533 7.76081 37.4844 7.49191 37.1527 7.49191C36.2143 7.49191 35.4509 6.72853 35.4509 5.79018C35.4509 5.45849 35.1821 5.18959 34.8504 5.18959H27.2601C25.6535 3.98362 23.6587 3.26828 21.4998 3.26828C19.3409 3.26828 17.346 3.98362 15.7394 5.18959H8.14908C7.81732 5.18959 7.5485 5.45849 7.5485 5.79018C7.5485 6.72853 6.78511 7.49191 5.84668 7.49191C5.51492 7.49191 5.24609 7.76081 5.24609 8.0925V17.6738ZM6.44726 8.6307C7.56691 8.39423 8.45073 7.51049 8.6872 6.39084H14.4144C12.8445 8.10275 11.8849 10.3829 11.8849 12.8832C11.8849 13.7006 11.9879 14.5131 12.191 15.2982C12.2741 15.6193 12.6018 15.8123 12.9229 15.7291C13.244 15.6461 13.437 15.3183 13.3539 14.9972C13.1761 14.3104 13.086 13.5991 13.086 12.8832C13.086 8.24393 16.8604 4.46961 21.4997 4.46961C26.1389 4.46961 29.9133 8.24393 29.9133 12.8832C29.9133 17.5226 26.139 21.297 21.4997 21.297C18.5052 21.297 15.7124 19.6846 14.2112 17.0892C14.0451 16.802 13.6775 16.704 13.3907 16.87C13.1035 17.0361 13.0053 17.4035 13.1715 17.6906C13.5254 18.3025 13.943 18.8657 14.4117 19.3756H8.6872C8.45073 18.2561 7.56699 17.3723 6.44726 17.1358V8.6307Z" fill="#252525"/>
<path d="M5.24609 17.6738C5.24609 18.0056 5.51492 18.2744 5.84668 18.2744C6.78511 18.2744 7.5485 19.0378 7.5485 19.9761C7.5485 20.3079 7.81732 20.5767 8.14908 20.5767H15.7419C17.3815 21.8014 19.3967 22.498 21.4996 22.498C23.6585 22.498 25.6534 21.7827 27.26 20.5767H34.8503C35.182 20.5767 35.4509 20.3079 35.4509 19.9761C35.4509 19.0378 36.2142 18.2744 37.1526 18.2744C37.4844 18.2744 37.7532 18.0056 37.7532 17.6738V13.5057C37.7532 13.1739 37.4844 12.9051 37.1526 12.9051C36.8208 12.9051 36.552 13.1739 36.552 13.5057V17.1357C35.4324 17.3722 34.5486 18.2559 34.3122 19.3756H28.585C30.1549 17.6637 31.1145 15.3835 31.1145 12.8832C31.1145 10.3828 30.1548 8.10267 28.585 6.39076H34.3122C34.5487 7.51041 35.4324 8.39423 36.5521 8.63062V11.1043C36.5521 11.436 36.8209 11.7049 37.1527 11.7049C37.4844 11.7049 37.7533 11.436 37.7533 11.1043V8.0925C37.7533 7.76081 37.4844 7.49191 37.1527 7.49191C36.2143 7.49191 35.4509 6.72853 35.4509 5.79018C35.4509 5.45849 35.1821 5.18959 34.8504 5.18959H27.2601C25.6535 3.98362 23.6587 3.26828 21.4998 3.26828C19.3409 3.26828 17.346 3.98362 15.7394 5.18959H8.14908C7.81732 5.18959 7.5485 5.45849 7.5485 5.79018C7.5485 6.72853 6.78511 7.49191 5.84668 7.49191C5.51492 7.49191 5.24609 7.76081 5.24609 8.0925V17.6738ZM6.44726 8.6307C7.56691 8.39423 8.45073 7.51049 8.6872 6.39084H14.4144C12.8445 8.10275 11.8849 10.3829 11.8849 12.8832C11.8849 13.7006 11.9879 14.5131 12.191 15.2982C12.2741 15.6193 12.6018 15.8123 12.9229 15.7291C13.244 15.6461 13.437 15.3183 13.3539 14.9972C13.1761 14.3104 13.086 13.5991 13.086 12.8832C13.086 8.24393 16.8604 4.46961 21.4997 4.46961C26.1389 4.46961 29.9133 8.24393 29.9133 12.8832C29.9133 17.5226 26.139 21.297 21.4997 21.297C18.5052 21.297 15.7124 19.6846 14.2112 17.0892C14.0451 16.802 13.6775 16.704 13.3907 16.87C13.1035 17.0361 13.0053 17.4035 13.1715 17.6906C13.5254 18.3025 13.943 18.8657 14.4117 19.3756H8.6872C8.45073 18.2561 7.56699 17.3723 6.44726 17.1358V8.6307Z" stroke="#252525" stroke-width="0.4" mask="url(#path-1-outside-1)"/>
<path d="M18.6703 17.3191C19.5151 17.8718 20.0876 18.0279 20.8411 18.0647V18.8242C20.8411 19.156 21.1099 19.4248 21.4417 19.4248C21.7735 19.4248 22.0423 19.156 22.0423 18.8242V18.019C23.5123 17.7509 24.3707 16.5483 24.5595 15.4252C24.7994 13.9982 24.0526 12.7572 22.6566 12.2638C22.4548 12.1925 22.2482 12.1175 22.0423 12.0392V8.83914C22.5847 8.95165 22.909 9.22864 22.9354 9.25194C23.1793 9.47328 23.5566 9.45686 23.7804 9.21431C24.0053 8.97055 23.9899 8.5905 23.7461 8.36564C23.7089 8.33137 23.0764 7.76217 22.0423 7.62156V6.94234C22.0423 6.61065 21.7735 6.34175 21.4417 6.34175C21.1099 6.34175 20.8411 6.61065 20.8411 6.94234V7.66776C20.7318 7.69058 20.6203 7.71845 20.5062 7.75281C19.5893 8.02899 18.904 8.81432 18.7179 9.8024C18.5484 10.7015 18.8352 11.5675 19.4664 12.0625C19.8121 12.3337 20.2445 12.5819 20.8411 12.8454V16.8631C20.2943 16.8308 19.9344 16.7106 19.328 16.3139C19.0503 16.1323 18.6781 16.21 18.4965 16.4876C18.3149 16.7653 18.3927 17.1375 18.6703 17.3191ZM20.2078 11.1172C19.9308 10.9 19.8122 10.4814 19.8983 10.0246C19.9783 9.59996 20.2682 9.08522 20.8411 8.90681V11.5141C20.601 11.3883 20.3848 11.256 20.2078 11.1172ZM22.2563 13.3962C23.5055 13.8378 23.4284 14.9084 23.3749 15.2261C23.268 15.8627 22.8146 16.5406 22.0423 16.7818V13.3196C22.1124 13.345 22.1831 13.3704 22.2563 13.3962Z" fill="#252525"/>
<mask id="path-3-outside-2" maskUnits="userSpaceOnUse" x="0" y="0" width="43" height="25" fill="black">
<rect fill="white" width="43" height="25"/>
<path d="M40.1268 1H7.04765C6.71589 1 6.44706 1.2689 6.44706 1.60058C6.44706 1.93227 6.71589 2.20117 7.04765 2.20117H40.1268C40.4973 2.20117 40.7988 2.50266 40.7988 2.87318V22.8933C40.7988 23.2638 40.4973 23.5653 40.1268 23.5653H2.87318C2.50266 23.5653 2.20117 23.2638 2.20117 22.8933V2.87318C2.20117 2.50266 2.50266 2.20117 2.87318 2.20117H4.64643C4.97819 2.20117 5.24702 1.93227 5.24702 1.60058C5.24702 1.2689 4.97819 1 4.64643 1H2.87318C1.84026 1 1 1.84034 1 2.87318V22.8933C1 23.9262 1.84026 24.7665 2.87318 24.7665H40.1269C41.1597 24.7665 42 23.9262 42 22.8933V2.87318C41.9999 1.84034 41.1597 1 40.1268 1Z"/>
</mask>
<path d="M40.1268 1H7.04765C6.71589 1 6.44706 1.2689 6.44706 1.60058C6.44706 1.93227 6.71589 2.20117 7.04765 2.20117H40.1268C40.4973 2.20117 40.7988 2.50266 40.7988 2.87318V22.8933C40.7988 23.2638 40.4973 23.5653 40.1268 23.5653H2.87318C2.50266 23.5653 2.20117 23.2638 2.20117 22.8933V2.87318C2.20117 2.50266 2.50266 2.20117 2.87318 2.20117H4.64643C4.97819 2.20117 5.24702 1.93227 5.24702 1.60058C5.24702 1.2689 4.97819 1 4.64643 1H2.87318C1.84026 1 1 1.84034 1 2.87318V22.8933C1 23.9262 1.84026 24.7665 2.87318 24.7665H40.1269C41.1597 24.7665 42 23.9262 42 22.8933V2.87318C41.9999 1.84034 41.1597 1 40.1268 1Z" fill="#252525"/>
<path d="M40.1268 1H7.04765C6.71589 1 6.44706 1.2689 6.44706 1.60058C6.44706 1.93227 6.71589 2.20117 7.04765 2.20117H40.1268C40.4973 2.20117 40.7988 2.50266 40.7988 2.87318V22.8933C40.7988 23.2638 40.4973 23.5653 40.1268 23.5653H2.87318C2.50266 23.5653 2.20117 23.2638 2.20117 22.8933V2.87318C2.20117 2.50266 2.50266 2.20117 2.87318 2.20117H4.64643C4.97819 2.20117 5.24702 1.93227 5.24702 1.60058C5.24702 1.2689 4.97819 1 4.64643 1H2.87318C1.84026 1 1 1.84034 1 2.87318V22.8933C1 23.9262 1.84026 24.7665 2.87318 24.7665H40.1269C41.1597 24.7665 42 23.9262 42 22.8933V2.87318C41.9999 1.84034 41.1597 1 40.1268 1Z" stroke="#252525" stroke-width="0.4" mask="url(#path-3-outside-2)"/>
</svg>
